<svg width="109" height="109" viewBox="0 0 109 109" fill="none" xmlns="http://www.w3.org/2000/svg">
<g filter="url(#filter0_d)">
<path d="M54.5 102.257C82.1142 102.257 104.5 79.8713 104.5 52.2571C104.5 24.6428 82.1142 2.25708 54.5 2.25708C26.8858 2.25708 4.5 24.6428 4.5 52.2571C4.5 79.8713 26.8858 102.257 54.5 102.257Z" fill="black"/>
</g>
<path d="M54.5 102.257C82.1142 102.257 104.5 79.8713 104.5 52.2571C104.5 24.6428 82.1142 2.25708 54.5 2.25708C26.8858 2.25708 4.5 24.6428 4.5 52.2571C4.5 79.8713 26.8858 102.257 54.5 102.257Z" fill="white"/>
<path fill-rule="evenodd" clip-rule="evenodd" d="M42.0657 41.0884C42.9063 41.0727 43.4719 41.6102 43.4875 42.4477C43.5094 43.5634 42.3219 44.7727 41.2032 44.7727C41.0173 44.7703 40.8337 44.7311 40.663 44.6574C40.4923 44.5837 40.3379 44.477 40.2087 44.3434C40.0794 44.2098 39.9779 44.0519 39.9099 43.8789C39.8419 43.7059 39.8088 43.5211 39.8125 43.3352C39.8188 42.2415 40.9594 41.1071 42.0657 41.0852V41.0884ZM79.4938 43.379C78.6438 43.3821 78.0875 42.8477 78.0719 42.0227C78.0594 40.8602 79.1844 39.7477 80.3719 39.7602C81.1907 39.7665 81.7469 40.3259 81.7532 41.1727C81.7625 42.2571 80.6282 43.3665 79.4938 43.379Z" fill="#E12529"/>
<mask id="mask0" mask-type="alpha" maskUnits="userSpaceOnUse" x="17" y="33" width="34" height="34">
<path d="M17 33.7196H50.5312V66.1884H17V33.7196Z" fill="white"/>
</mask>
<g mask="url(#mask0)">
<path fill-rule="evenodd" clip-rule="evenodd" d="M31.9533 45.8853C31.6095 47.6197 30.7876 48.3697 29.2126 48.4478C28.9001 48.4634 28.597 48.5634 28.0064 48.6822L33.6626 39.4759C33.7095 39.5072 33.7564 39.5447 33.8158 39.5697C33.1751 41.6728 32.3845 43.7353 31.9533 45.8822V45.8853ZM50.4845 46.5259C50.2939 45.7947 49.3408 45.1759 48.6158 45.3634C48.1876 45.4822 47.7876 45.7759 47.4095 46.0384C47.1033 46.2509 46.847 46.5384 46.447 46.9009C46.5095 45.8978 45.9751 45.5166 45.322 45.5728C44.572 45.6353 43.7501 45.7322 43.4283 46.7228C42.5033 49.6166 40.897 52.0666 38.9283 54.2666C38.6908 54.5259 38.3845 54.7197 38.1126 54.9416C38.0545 54.8892 37.9962 54.8371 37.9376 54.7853C38.1408 54.1947 38.3064 53.5916 38.5658 53.0259C39.2595 51.5822 40.0033 50.1666 40.6908 48.7197C41.2908 47.4697 40.7595 46.5947 39.4408 46.6009C39.2094 46.6036 38.9786 46.6235 38.7501 46.6603C37.3533 46.8603 35.9564 47.0759 34.5564 47.2853C34.4626 47.2259 34.3689 47.1666 34.2658 47.1103C35.1814 44.3509 36.047 41.5791 37.0314 38.8509C37.5689 37.3353 37.972 35.9822 36.7939 34.5322C36.0783 33.6572 35.7501 33.3978 34.9501 34.2197C33.8283 35.3541 32.6689 36.5072 31.7751 37.8416C29.3689 41.4353 27.0845 45.1228 24.7814 48.7916C24.4684 49.358 23.9561 49.7879 23.3439 49.9978C21.564 50.6276 19.8047 51.3144 18.0689 52.0572C17.0595 52.4791 16.7501 53.4916 17.2033 54.5634C17.5408 55.3697 18.2345 55.5009 19.2751 54.9791C20.1501 54.5416 21.0345 54.1166 22.097 53.5947C21.8939 54.0572 21.772 54.3166 21.6533 54.5853C20.6533 56.8478 19.6189 59.1041 18.647 61.3884C18.3158 62.1603 18.0345 62.9822 17.897 63.8103C17.8061 64.3188 17.9126 64.8428 18.1948 65.2755C18.477 65.7081 18.9137 66.0168 19.4158 66.1384C20.3033 66.3353 20.7033 66.0134 21.1033 64.6384C22.3314 60.4697 24.1533 56.5853 26.0564 52.7447C26.1689 52.5009 26.2939 52.1509 26.4876 52.0822C27.8064 51.6134 29.1439 51.2134 30.5814 50.7603C30.2845 52.2103 29.9376 53.4166 29.8126 54.6572C29.6876 55.9384 29.6501 57.2697 29.7876 58.5541C29.8051 58.7487 29.8632 58.9376 29.9581 59.1085C30.053 59.2794 30.1826 59.4285 30.3386 59.5462C30.4947 59.664 30.6736 59.7478 30.864 59.7922C31.0543 59.8366 31.2519 59.8406 31.4439 59.8041C32.2876 59.6509 32.6095 59.0666 32.7126 58.2072C33.0345 55.6666 33.3876 53.1291 33.7626 50.5978C33.8033 50.3322 34.0533 49.9541 34.2814 49.8884C35.2189 49.6103 36.1751 49.4322 37.2876 49.1822C36.7345 50.4509 36.1501 51.5416 35.7814 52.7072C35.3314 54.1072 34.897 55.5572 34.7595 57.0134C34.6126 58.6134 35.9064 59.3134 37.2126 58.4634C37.7501 58.1166 38.2189 57.6322 38.6626 57.1634C39.1064 56.6947 39.4845 56.1634 39.997 55.5322C39.9408 55.8478 39.9033 55.9978 39.8845 56.1447C39.7126 57.5259 40.4908 58.1134 41.7189 57.6853C42.7845 57.3134 42.7501 56.4041 42.9783 55.5291C43.8564 52.1791 45.147 49.1697 48.8158 48.3353C49.0438 48.2937 49.2628 48.2122 49.4626 48.0947C50.0251 47.7384 50.7189 47.4416 50.4845 46.5291" fill="#E12529"/>
</g>
<path fill-rule="evenodd" clip-rule="evenodd" d="M64.6188 39.6382C64.5674 39.6041 64.5142 39.5729 64.4594 39.5445L58.8813 48.6508C60.0125 48.4132 60.8594 48.2757 61.6938 48.0382C61.8381 47.9832 61.9694 47.8986 62.0792 47.7899C62.1889 47.6812 62.2748 47.5508 62.3313 47.407C63.1188 44.8226 63.8625 42.2289 64.6188 39.6382ZM52.9625 53.5758C51.9031 54.1008 51.075 54.5132 50.2531 54.9289C49.1813 55.4726 48.5906 55.3976 48.2219 54.6382C47.7094 53.5945 48.0031 52.4445 49.0031 52.0133C50.7098 51.2724 52.4399 50.5867 54.1906 49.957C54.8011 49.7583 55.3158 49.3394 55.6344 48.782C58.1656 44.7976 60.7031 40.8164 63.3188 36.8945C64.0125 35.857 64.9594 34.9945 65.8656 34.1445C66.625 33.432 66.9688 33.6757 67.6094 34.4632C68.7594 35.882 68.45 37.2351 67.8969 38.7851C67.0125 41.2539 66.2969 43.8007 65.5188 46.3164C65.4313 46.6039 65.4 46.9101 65.3313 47.2664C65.8813 47.2414 66.3938 47.1539 66.8938 47.2101C67.3375 47.257 67.9656 47.1258 68.0094 47.9008C68.05 48.5883 67.7625 49.1007 67.125 49.307C66.575 49.4851 66.0125 49.682 65.4438 49.732C64.8125 49.7945 64.6188 50.1351 64.5375 50.7257C64.2125 53.1976 63.8563 55.6726 63.5281 58.1507C63.3719 59.3101 62.9469 59.832 62.0813 59.8476C61.3406 59.8508 60.5813 59.1289 60.5188 58.1601C60.4537 57.2149 60.4819 56.2655 60.6031 55.3258C60.7906 53.8507 61.0844 52.3882 61.3688 50.732C60.0125 51.1539 58.725 51.5351 57.4563 51.9726C57.2563 52.0414 57.1 52.357 56.9875 52.5914C54.9706 56.4594 53.2964 60.4967 51.9844 64.657C51.5813 65.9383 51.075 66.3757 50.1719 66.1164C49.1281 65.8101 48.3875 64.6007 48.7719 63.5445C49.5625 61.3882 50.4469 59.2632 51.3281 57.1414C51.7938 56.0257 52.3344 54.9445 52.9625 53.5758Z" fill="#E12529"/>
<mask id="mask1" mask-type="alpha" maskUnits="userSpaceOnUse" x="72" y="43" width="20" height="15">
<path d="M72.7907 43.4727H91.0095V57.2758H72.7876L72.7907 43.4727Z" fill="white"/>
</mask>
<g mask="url(#mask1)">
<path fill-rule="evenodd" clip-rule="evenodd" d="M86.3971 46.0134C84.5939 46.529 81.5033 51.4509 81.8283 53.1915C83.3596 52.9727 86.5471 48.0071 86.3971 46.0102V46.0134ZM87.5189 52.0415C87.8314 51.8134 88.1971 51.6321 88.4408 51.3384C88.9533 50.7165 89.3533 49.9946 89.8908 49.4009C90.1189 49.1509 90.5783 49.1446 90.9283 49.0259C90.9408 49.354 91.0752 49.7321 90.9627 49.9946C90.2286 51.7417 89.0486 53.2654 87.5408 54.4134C87.3533 54.5602 87.1533 54.6821 86.9471 54.7884C85.5408 55.4946 84.8283 55.2634 84.0096 53.8196C83.3971 54.379 82.8158 54.9759 82.1658 55.4759C80.7189 56.5915 78.8002 55.9915 78.7189 54.1009C78.7189 53.9915 78.6533 53.8852 78.8252 54.0477C77.9721 54.7977 77.1127 55.554 76.2533 56.2977C75.4721 56.9634 74.6127 57.6634 73.6033 57.0165C72.5689 56.3602 72.7033 55.2165 73.0346 54.2071C73.4877 52.8009 74.0502 51.4259 74.6314 50.0727C75.2439 48.654 75.9439 47.2852 76.5846 45.8852C77.0314 44.9196 78.6596 44.604 79.3627 45.3509C79.8408 45.8634 79.6908 46.4102 79.4064 46.9446C78.5189 48.6321 77.6252 50.304 76.7471 51.9915C76.5189 52.4384 76.3658 52.9165 76.1752 53.3821L76.3689 53.5571C76.7127 53.2321 77.1096 52.9509 77.4064 52.5821C78.8971 50.6759 80.3096 48.6821 81.8783 46.8415C82.8338 45.7574 83.9048 44.7808 85.0721 43.929C86.0408 43.1915 87.3846 43.2602 87.8971 44.7821C87.9877 45.0446 88.3439 45.2446 88.6064 45.3946C89.6814 45.9915 89.7596 46.2477 89.1596 47.3946C88.5971 48.4602 88.0377 49.5321 87.5221 50.6259C87.3564 50.979 87.3346 51.4165 87.2439 51.8196C87.3377 51.8915 87.4283 51.9727 87.5189 52.0446" fill="#E12529"/>
</g>
<path fill-rule="evenodd" clip-rule="evenodd" d="M67.4251 58.5384C66.9032 58.3853 66.3501 58.3072 65.8626 58.0728C64.3001 57.3134 64.0595 55.5103 65.3751 54.3353C65.5345 54.1978 66.0063 54.304 66.2563 54.4447C66.7563 54.7384 67.1595 55.2509 67.6751 55.4447C68.0282 55.5947 68.5126 55.3697 68.9376 55.3103C68.8689 54.9259 68.897 54.4697 68.7063 54.1697C66.8563 51.2447 68.0376 47.4009 71.222 46.2259C72.3032 45.829 73.422 45.829 74.3032 46.7415C74.5563 47.0009 74.7595 47.6134 74.6438 47.9165C74.4282 48.4665 73.9813 48.9322 73.5626 49.3603C73.4907 49.4384 72.9845 49.2322 72.8595 49.029C72.3907 48.2822 71.872 47.9134 71.072 48.4634C70.4095 48.9134 70.2282 49.8915 70.6532 50.7634C70.7854 51.0672 70.9671 51.3471 71.1907 51.5915C72.9095 53.3134 72.0595 56.1478 70.597 57.3134C69.7251 58.0009 68.522 58.4603 67.4251 58.5384Z" fill="#E12529"/>
<defs>
<filter id="filter0_d" x="0.5" y="0.25708" width="108" height="108" filterUnits="userSpaceOnUse" color-interpolation-filters="sRGB">
<feFlood flood-opacity="0" result="BackgroundImageFix"/>
<feColorMatrix in="SourceAlpha" type="matrix" values="0 0 0 0 0 0 0 0 0 0 0 0 0 0 0 0 0 0 127 0"/>
<feOffset dy="2"/>
<feGaussianBlur stdDeviation="2"/>
<feColorMatrix type="matrix" values="0 0 0 0 0 0 0 0 0 0 0 0 0 0 0 0 0 0 0.1 0"/>
<feBlend mode="normal" in2="BackgroundImageFix" result="effect1_dropShadow"/>
<feBlend mode="normal" in="SourceGraphic" in2="effect1_dropShadow" result="shape"/>
</filter>
</defs>
</svg>
