<svg width="180" height="53" viewBox="0 0 180 53" fill="none" xmlns="http://www.w3.org/2000/svg">
<path d="M179 46.543C179 49.3466 176.709 51.6177 173.874 51.6177H6.13243C3.2995 51.6177 1 49.3466 1 46.543V6.07377C1 3.27142 3.2995 0.992432 6.13243 0.992432H173.873C176.709 0.992432 178.999 3.27142 178.999 6.07377L179 46.543Z" fill="black" fill-opacity="0.09"/>
<path d="M173.333 1.05385C176.42 1.05385 178.932 3.53149 178.932 6.57632V46.0343C178.932 49.0791 176.42 51.5567 173.333 51.5567H6.66667C3.58 51.5567 1.06833 49.0791 1.06833 46.0343V6.57632C1.06833 3.53149 3.58 1.05385 6.66667 1.05385H173.333ZM173.333 -1.86585e-07H6.66667C3.00167 -1.86585e-07 0 2.96099 0 6.57632V46.0343C0 49.6496 3.00167 52.6106 6.66667 52.6106H173.333C176.998 52.6106 180 49.6496 180 46.0343V6.57632C180 2.96099 176.998 -1.86585e-07 173.333 -1.86585e-07Z" fill="white"/>
<path d="M40.1707 26.0212C40.132 21.7821 43.6894 19.7198 43.852 19.6237C41.8374 16.7262 38.7147 16.3303 37.6174 16.2988C34.9947 16.0265 32.4507 17.8468 31.1147 17.8468C29.752 17.8468 27.6947 16.3251 25.4774 16.3698C22.624 16.4132 19.9547 18.0428 18.4907 20.5734C15.4694 25.7331 17.7227 33.3156 20.6174 37.4863C22.0654 39.5289 23.7574 41.8096 25.972 41.7294C28.1387 41.6413 28.948 40.3668 31.5627 40.3668C34.1534 40.3668 34.9134 41.7294 37.172 41.6781C39.4974 41.6413 40.9614 39.6263 42.3587 37.5653C44.032 35.2241 44.704 32.9184 44.7307 32.8001C44.676 32.7816 40.2147 31.1021 40.1707 26.0212Z" fill="white"/>
<path d="M35.904 13.5551C37.0694 12.1175 37.8667 10.1617 37.6454 8.177C35.9587 8.25066 33.8494 9.32786 32.6347 10.7339C31.56 11.9729 30.6 14.0036 30.848 15.9134C32.7427 16.0528 34.688 14.9703 35.904 13.5551Z" fill="white"/>
<path d="M71.5266 41.4353H68.4986L66.84 36.294H61.0746L59.4946 41.4353H56.5466L62.2586 23.9319H65.7866L71.5266 41.4353ZM66.34 34.137L64.84 29.5664C64.6813 29.0995 64.384 28 63.9453 26.2691H63.892C63.7173 27.0135 63.436 28.1131 63.0493 29.5664L61.576 34.137H66.34Z" fill="white"/>
<path d="M86.2159 34.9702C86.2159 37.1167 85.6279 38.8133 84.4519 40.0589C83.3986 41.1677 82.0906 41.7214 80.5293 41.7214C78.844 41.7214 77.6333 41.1242 76.896 39.93H76.8426V46.5786H74V32.9697C74 31.6202 73.964 30.2352 73.8947 28.8148H76.3946L76.5533 30.8153H76.6066C77.5546 29.308 78.9933 28.5557 80.924 28.5557C82.4333 28.5557 83.6933 29.1436 84.7013 30.3207C85.7119 31.4992 86.2159 33.0486 86.2159 34.9702ZM83.32 35.0728C83.32 33.8443 83.04 32.8316 82.4773 32.0345C81.8626 31.2033 81.0373 30.7877 80.0026 30.7877C79.3013 30.7877 78.664 31.0191 78.0946 31.4755C77.524 31.9359 77.1506 32.5369 76.976 33.2814C76.888 33.6286 76.844 33.9127 76.844 34.1363V36.2407C76.844 37.1588 77.1293 37.9334 77.7 38.5661C78.2706 39.1987 79.012 39.5144 79.924 39.5144C80.9946 39.5144 81.828 39.1066 82.424 38.2938C83.0213 37.4797 83.32 36.4064 83.32 35.0728Z" fill="white"/>
<path d="M100.932 34.9702C100.932 37.1167 100.344 38.8133 99.1667 40.0589C98.1147 41.1677 96.8067 41.7214 95.2454 41.7214C93.56 41.7214 92.3494 41.1242 91.6134 39.93H91.56V46.5786H88.7174V32.9697C88.7174 31.6202 88.6814 30.2352 88.6121 28.8148H91.1121L91.2707 30.8153H91.324C92.2707 29.308 93.7094 28.5557 95.6414 28.5557C97.1494 28.5557 98.4094 29.1436 99.42 30.3207C100.427 31.4992 100.932 33.0486 100.932 34.9702ZM98.036 35.0728C98.036 33.8443 97.7547 32.8316 97.192 32.0345C96.5774 31.2033 95.7547 30.7877 94.7187 30.7877C94.016 30.7877 93.38 31.0191 92.8094 31.4755C92.2387 31.9359 91.8667 32.5369 91.692 33.2814C91.6054 33.6286 91.56 33.9127 91.56 34.1363V36.2407C91.56 37.1588 91.8454 37.9334 92.4134 38.5661C92.984 39.1974 93.7254 39.5144 94.64 39.5144C95.7107 39.5144 96.544 39.1066 97.14 38.2938C97.7374 37.4797 98.036 36.4064 98.036 35.0728Z" fill="white"/>
<path d="M117.385 36.5274C117.385 38.0163 116.861 39.2276 115.809 40.1628C114.653 41.1847 113.044 41.6951 110.976 41.6951C109.067 41.6951 107.536 41.3321 106.377 40.6047L107.036 38.2675C108.284 39.0119 109.653 39.3855 111.145 39.3855C112.216 39.3855 113.049 39.1461 113.648 38.67C114.244 38.1938 114.541 37.5546 114.541 36.7576C114.541 36.0473 114.296 35.4489 113.804 34.9636C113.315 34.4782 112.497 34.0271 111.356 33.6102C108.249 32.4672 106.697 30.7929 106.697 28.5911C106.697 27.1523 107.241 25.9725 108.331 25.0544C109.416 24.1351 110.864 23.676 112.675 23.676C114.289 23.676 115.631 23.9535 116.701 24.5073L115.991 26.7932C114.991 26.2566 113.86 25.9883 112.595 25.9883C111.595 25.9883 110.813 26.2316 110.253 26.7156C109.78 27.1483 109.543 27.6757 109.543 28.3005C109.543 28.9923 109.813 29.5644 110.357 30.0143C110.831 30.4299 111.691 30.8797 112.939 31.365C114.465 31.9714 115.587 32.6803 116.308 33.4931C117.027 34.3033 117.385 35.3174 117.385 36.5274Z" fill="white"/>
<path d="M126.784 30.9183H123.651V37.0461C123.651 38.6047 124.203 39.3833 125.309 39.3833C125.817 39.3833 126.239 39.3399 126.572 39.2531L126.651 41.3825C126.091 41.589 125.353 41.6929 124.44 41.6929C123.317 41.6929 122.44 41.3549 121.807 40.6801C121.176 40.0041 120.859 38.8703 120.859 37.2776V30.9157H118.992V28.8113H120.859V26.5004L123.651 25.6692V28.8113H126.784V30.9183Z" fill="white"/>
<path d="M140.921 35.0214C140.921 36.9615 140.359 38.5543 139.236 39.7998C138.059 41.0822 136.496 41.7214 134.548 41.7214C132.671 41.7214 131.176 41.1072 130.061 39.8787C128.947 38.6503 128.389 37.0996 128.389 35.2306C128.389 33.2748 128.963 31.6728 130.113 30.4272C131.261 29.1803 132.811 28.5569 134.759 28.5569C136.636 28.5569 138.147 29.1711 139.287 30.4009C140.377 31.5938 140.921 33.134 140.921 35.0214ZM137.972 35.1122C137.972 33.9482 137.72 32.9499 137.209 32.1173C136.613 31.1098 135.761 30.6074 134.657 30.6074C133.515 30.6074 132.647 31.1111 132.051 32.1173C131.54 32.9512 131.288 33.9653 131.288 35.1648C131.288 36.3288 131.54 37.3271 132.051 38.1584C132.665 39.1659 133.524 39.6683 134.632 39.6683C135.717 39.6683 136.569 39.1553 137.184 38.1321C137.708 37.2837 137.972 36.2749 137.972 35.1122Z" fill="white"/>
<path d="M150.161 31.2809C149.88 31.2296 149.58 31.2033 149.265 31.2033C148.265 31.2033 147.492 31.5755 146.948 32.3213C146.475 32.9789 146.237 33.8101 146.237 34.8137V41.436H143.396L143.423 32.7895C143.423 31.3348 143.387 30.0103 143.316 28.8161H145.792L145.896 31.2309H145.975C146.275 30.401 146.748 29.7328 147.396 29.2317C148.029 28.7806 148.713 28.5557 149.451 28.5557C149.713 28.5557 149.951 28.5741 150.161 28.607V31.2809Z" fill="white"/>
<path d="M162.875 34.528C162.875 35.0305 162.841 35.454 162.771 35.7999H154.243C154.276 37.0468 154.688 38.0003 155.48 38.658C156.199 39.2459 157.128 39.5405 158.269 39.5405C159.532 39.5405 160.684 39.3419 161.72 38.9434L162.165 40.89C160.955 41.4108 159.525 41.6699 157.876 41.6699C155.892 41.6699 154.335 41.0938 153.201 39.943C152.071 38.7921 151.504 37.2467 151.504 35.308C151.504 33.4048 152.031 31.8199 153.085 30.5559C154.189 29.2065 155.681 28.5317 157.559 28.5317C159.403 28.5317 160.799 29.2065 161.747 30.5559C162.497 31.6279 162.875 32.9537 162.875 34.528ZM160.164 33.8007C160.183 32.9694 159.997 32.2513 159.612 31.645C159.12 30.865 158.364 30.4757 157.347 30.4757C156.417 30.4757 155.661 30.8558 155.084 31.6187C154.611 32.225 154.329 32.9523 154.243 33.7994H160.164V33.8007Z" fill="white"/>
<path d="M65.4 13.1639C65.4 14.7119 64.9294 15.8773 63.9893 16.6599C63.1187 17.382 61.8813 17.7437 60.2786 17.7437C59.484 17.7437 58.804 17.7095 58.2346 17.6411V9.18254C58.9773 9.06416 59.7773 9.00366 60.6413 9.00366C62.168 9.00366 63.3187 9.33116 64.0947 9.98617C64.964 10.7267 65.4 11.7855 65.4 13.1639ZM63.9267 13.202C63.9267 12.1985 63.6573 11.429 63.1187 10.8924C62.58 10.3571 61.7933 10.0888 60.7573 10.0888C60.3173 10.0888 59.9426 10.1177 59.632 10.1782V16.6086C59.804 16.6349 60.1186 16.6467 60.576 16.6467C61.6453 16.6467 62.4707 16.3534 63.052 15.7668C63.6333 15.1802 63.9267 14.3253 63.9267 13.202Z" fill="white"/>
<path d="M73.212 14.5154C73.212 15.469 72.936 16.2503 72.384 16.8632C71.8054 17.4933 71.0387 17.8076 70.0814 17.8076C69.1587 17.8076 68.424 17.5064 67.876 16.9014C67.3294 16.2977 67.056 15.5361 67.056 14.618C67.056 13.6579 67.3374 12.87 67.9027 12.2584C68.468 11.6468 69.228 11.3403 70.1854 11.3403C71.108 11.3403 71.8494 11.6415 72.4107 12.2453C72.944 12.8319 73.212 13.5895 73.212 14.5154ZM71.7627 14.5602C71.7627 13.988 71.6374 13.4974 71.388 13.0884C71.0947 12.5938 70.6774 12.3465 70.1347 12.3465C69.5734 12.3465 69.1467 12.5938 68.8534 13.0884C68.6027 13.4974 68.4787 13.9959 68.4787 14.5852C68.4787 15.1573 68.604 15.6479 68.8534 16.057C69.156 16.5515 69.5774 16.7988 70.1214 16.7988C70.6547 16.7988 71.0734 16.5476 71.3747 16.0438C71.6334 15.6269 71.7627 15.1323 71.7627 14.5602Z" fill="white"/>
<path d="M83.6866 11.4678L81.72 17.6677H80.44L79.6253 14.9755C79.4186 14.3034 79.2506 13.6353 79.12 12.9724H79.0946C78.9733 13.6537 78.8053 14.3205 78.5893 14.9755L77.724 17.6677H76.4293L74.58 11.4678H76.016L76.7266 14.4152C76.8986 15.1123 77.04 15.7764 77.1533 16.4051H77.1786C77.2826 15.8869 77.4546 15.2267 77.6973 14.4283L78.5893 11.4691H79.728L80.5826 14.3652C80.7893 15.0715 80.9573 15.7514 81.0866 16.4064H81.1253C81.22 15.7685 81.3626 15.0886 81.552 14.3652L82.3146 11.4691H83.6866V11.4678Z" fill="white"/>
<path d="M90.9307 17.6667H89.5333V14.1156C89.5333 13.0213 89.112 12.4741 88.2667 12.4741C87.852 12.4741 87.5174 12.6241 87.2574 12.9253C87 13.2264 86.8694 13.5816 86.8694 13.988V17.6654H85.472V13.2383C85.472 12.6938 85.4547 12.1032 85.4214 11.464H86.6494L86.7147 12.4333H86.7534C86.916 12.1322 87.1587 11.8836 87.4774 11.685C87.856 11.4535 88.28 11.3364 88.744 11.3364C89.3307 11.3364 89.8187 11.5232 90.2067 11.898C90.6893 12.3571 90.9307 13.0423 90.9307 13.9525V17.6667Z" fill="white"/>
<path d="M94.7839 17.6677H93.3879V8.6228H94.7839V17.6677Z" fill="white"/>
<path d="M103.011 14.5154C103.011 15.469 102.735 16.2503 102.183 16.8632C101.604 17.4933 100.836 17.8076 99.8801 17.8076C98.9561 17.8076 98.2214 17.5064 97.6747 16.9014C97.1281 16.2977 96.8547 15.5361 96.8547 14.618C96.8547 13.6579 97.1361 12.87 97.7014 12.2584C98.2667 11.6468 99.0267 11.3403 99.9827 11.3403C100.907 11.3403 101.647 11.6415 102.209 12.2453C102.743 12.8319 103.011 13.5895 103.011 14.5154ZM101.56 14.5602C101.56 13.988 101.435 13.4974 101.185 13.0884C100.893 12.5938 100.475 12.3465 99.9334 12.3465C99.3707 12.3465 98.9441 12.5938 98.6521 13.0884C98.4014 13.4974 98.2774 13.9959 98.2774 14.5852C98.2774 15.1573 98.4027 15.6479 98.6521 16.057C98.9547 16.5515 99.3761 16.7988 99.9201 16.7988C100.453 16.7988 100.871 16.5476 101.172 16.0438C101.432 15.6269 101.56 15.1323 101.56 14.5602Z" fill="white"/>
<path d="M109.773 17.6669H108.519L108.415 16.9527H108.376C107.947 17.5222 107.335 17.8076 106.54 17.8076C105.947 17.8076 105.467 17.6195 105.105 17.246C104.777 16.9066 104.613 16.4844 104.613 15.9833C104.613 15.2257 104.933 14.6483 105.577 14.2484C106.22 13.8486 107.124 13.6526 108.288 13.6618V13.5461C108.288 12.7293 107.853 12.3215 106.983 12.3215C106.363 12.3215 105.816 12.4754 105.344 12.7806L105.06 11.8757C105.644 11.5192 106.365 11.3403 107.216 11.3403C108.859 11.3403 109.683 12.1953 109.683 13.9051V16.1885C109.683 16.808 109.713 17.3012 109.773 17.6669ZM108.323 15.5361V14.5799C106.781 14.5536 106.011 14.9705 106.011 15.8294C106.011 16.153 106.099 16.395 106.279 16.5568C106.459 16.7186 106.688 16.7988 106.961 16.7988C107.268 16.7988 107.555 16.7028 107.816 16.5121C108.079 16.32 108.24 16.0767 108.3 15.7781C108.315 15.711 108.323 15.6295 108.323 15.5361Z" fill="white"/>
<path d="M117.713 17.6679H116.473L116.408 16.6722H116.369C115.973 17.4298 115.299 17.8086 114.351 17.8086C113.593 17.8086 112.963 17.5153 112.463 16.9287C111.963 16.3421 111.713 15.5805 111.713 14.6454C111.713 13.6418 111.984 12.829 112.528 12.2082C113.055 11.6295 113.7 11.3401 114.468 11.3401C115.312 11.3401 115.903 11.6203 116.239 12.1819H116.265V8.6228H117.664V15.9975C117.664 16.6012 117.68 17.1575 117.713 17.6679ZM116.265 15.0531V14.0193C116.265 13.8404 116.252 13.6958 116.227 13.5853C116.148 13.2538 115.979 12.975 115.721 12.7501C115.461 12.5252 115.148 12.4121 114.787 12.4121C114.265 12.4121 113.857 12.6159 113.557 13.025C113.26 13.434 113.109 13.9562 113.109 14.5941C113.109 15.207 113.252 15.7042 113.539 16.0869C113.841 16.4946 114.249 16.6985 114.76 16.6985C115.219 16.6985 115.585 16.5288 115.864 16.1882C116.133 15.8738 116.265 15.495 116.265 15.0531Z" fill="white"/>
<path d="M129.664 14.5154C129.664 15.469 129.388 16.2503 128.836 16.8632C128.257 17.4933 127.492 17.8076 126.533 17.8076C125.612 17.8076 124.877 17.5064 124.328 16.9014C123.781 16.2977 123.508 15.5361 123.508 14.618C123.508 13.6579 123.789 12.87 124.355 12.2584C124.92 11.6468 125.68 11.3403 126.639 11.3403C127.56 11.3403 128.303 11.6415 128.863 12.2453C129.396 12.8319 129.664 13.5895 129.664 14.5154ZM128.216 14.5602C128.216 13.988 128.091 13.4974 127.841 13.0884C127.547 12.5938 127.131 12.3465 126.587 12.3465C126.027 12.3465 125.6 12.5938 125.305 13.0884C125.055 13.4974 124.931 13.9959 124.931 14.5852C124.931 15.1573 125.056 15.6479 125.305 16.057C125.608 16.5515 126.029 16.7988 126.573 16.7988C127.107 16.7988 127.527 16.5476 127.828 16.0438C128.085 15.6269 128.216 15.1323 128.216 14.5602Z" fill="white"/>
<path d="M137.177 17.6667H135.781V14.1156C135.781 13.0213 135.36 12.4741 134.513 12.4741C134.099 12.4741 133.764 12.6241 133.505 12.9253C133.247 13.2264 133.117 13.5816 133.117 13.988V17.6654H131.719V13.2383C131.719 12.6938 131.703 12.1032 131.669 11.464H132.896L132.961 12.4333H133C133.164 12.1322 133.407 11.8836 133.724 11.685C134.104 11.4535 134.527 11.3364 134.992 11.3364C135.577 11.3364 136.065 11.5232 136.453 11.898C136.937 12.3571 137.177 13.0423 137.177 13.9525V17.6667Z" fill="white"/>
<path d="M146.581 12.4997H145.043V15.5116C145.043 16.2771 145.316 16.6599 145.857 16.6599C146.108 16.6599 146.316 16.6388 146.48 16.5954L146.516 17.641C146.24 17.7436 145.877 17.7949 145.431 17.7949C144.879 17.7949 144.449 17.6292 144.139 17.2978C143.827 16.9663 143.672 16.4086 143.672 15.6261V12.4997H142.753V11.4672H143.672V10.3308L145.041 9.9231V11.4659H146.58V12.4997H146.581Z" fill="white"/>
<path d="M153.979 17.6677H152.58V14.1429C152.58 13.0315 152.159 12.4751 151.315 12.4751C150.667 12.4751 150.224 12.7974 149.981 13.4419C149.94 13.5773 149.916 13.743 149.916 13.9377V17.6664H148.52V8.6228H149.916V12.3594H149.943C150.383 11.6794 151.013 11.3401 151.831 11.3401C152.409 11.3401 152.888 11.5269 153.268 11.9017C153.741 12.3686 153.979 13.0631 153.979 13.9811V17.6677Z" fill="white"/>
<path d="M161.609 14.2734C161.609 14.5207 161.591 14.7285 161.557 14.8982H157.367C157.385 15.5111 157.585 15.978 157.973 16.3015C158.328 16.5909 158.785 16.7355 159.345 16.7355C159.965 16.7355 160.531 16.6382 161.04 16.4422L161.259 17.3997C160.663 17.6549 159.961 17.7825 159.149 17.7825C158.176 17.7825 157.409 17.4997 156.855 16.9341C156.297 16.3686 156.021 15.6097 156.021 14.6575C156.021 13.7223 156.279 12.9437 156.797 12.3229C157.339 11.6601 158.071 11.3286 158.995 11.3286C159.899 11.3286 160.585 11.6601 161.049 12.3229C161.424 12.849 161.609 13.5001 161.609 14.2734ZM160.276 13.917C160.287 13.508 160.195 13.1555 160.005 12.8582C159.763 12.4755 159.393 12.2835 158.893 12.2835C158.437 12.2835 158.065 12.4702 157.781 12.8451C157.549 13.1436 157.412 13.5001 157.367 13.917H160.276Z" fill="white"/>
</svg>
