<svg width="109" height="109" viewBox="0 0 109 109" fill="none" xmlns="http://www.w3.org/2000/svg">
<g filter="url(#filter0_d)">
<path d="M54.5 102.257C82.1142 102.257 104.5 79.8713 104.5 52.2571C104.5 24.6428 82.1142 2.25708 54.5 2.25708C26.8858 2.25708 4.5 24.6428 4.5 52.2571C4.5 79.8713 26.8858 102.257 54.5 102.257Z" fill="black"/>
</g>
<path d="M54.5 102.257C82.1142 102.257 104.5 79.8713 104.5 52.2571C104.5 24.6428 82.1142 2.25708 54.5 2.25708C26.8858 2.25708 4.5 24.6428 4.5 52.2571C4.5 79.8713 26.8858 102.257 54.5 102.257Z" fill="white"/>
<path fill-rule="evenodd" clip-rule="evenodd" d="M76.75 51.2195C76.8031 51.1508 76.8563 51.0758 76.9219 51.0133C77.9763 49.9278 79.2348 49.0612 80.625 48.4633C80.8222 48.3876 81.0298 48.3423 81.2406 48.3289C81.55 48.3195 81.6719 48.5039 81.5375 48.7977C81.4544 48.9839 81.3379 49.1534 81.1938 49.2977C80.9205 49.5568 80.6325 49.7999 80.3313 50.0258C79.4844 50.6445 78.6344 51.257 77.8 51.8508L76.75 51.2195ZM51.9 48.1695C50.4219 49.7195 48.9406 51.2789 47.275 52.632C46.8908 52.9317 46.489 53.2082 46.0719 53.4602C45.8833 53.5651 45.68 53.6409 45.4688 53.6852C45.0125 53.7945 44.7313 53.5508 44.7438 53.0445C44.7544 52.5575 44.9017 52.0832 45.1688 51.6758C45.5063 51.1727 45.9438 50.7852 46.425 50.4477C47.5688 49.6445 48.8375 49.1039 50.125 48.6227C50.6563 48.4164 51.2094 48.2477 51.7469 48.0539C51.8094 48.032 51.8813 48.0227 51.9469 48.0102C51.9594 48.0258 51.9688 48.0414 51.975 48.0633C51.95 48.0977 51.9375 48.1383 51.9 48.1695ZM85.1375 50.807L84.9281 50.9727C84.3406 51.4352 83.7719 51.9258 83.1656 52.357C82.4938 52.8258 81.7969 53.2758 81.0969 53.6883C80.8697 53.8161 80.6165 53.8909 80.3563 53.907C79.4656 53.9633 78.9438 53.4008 78.5063 52.6539C78.8688 52.4445 79.225 52.2414 79.5875 52.0414C80.5656 51.4977 81.5469 50.9633 82.4156 50.2352C82.9122 49.8411 83.3219 49.3484 83.6188 48.7883C83.8422 48.3729 83.9486 47.9046 83.9266 47.4335C83.9046 46.9623 83.755 46.506 83.4938 46.1133C83.1656 45.5852 82.7125 45.4258 82.125 45.5945C81.9563 45.6477 81.775 45.6977 81.625 45.782C80.9313 46.1945 80.2156 46.5758 79.5563 47.0414C77.5156 48.4695 75.6344 50.1227 73.7875 51.8258C73.719 51.8846 73.6491 51.9419 73.5781 51.9977C73.5531 51.5289 73.6219 51.1539 73.9625 50.8414C74.4938 50.3414 74.9813 49.8039 75.4844 49.2727C77.4938 47.1477 79.525 45.0445 81.5031 42.8758C82.4344 41.857 83.2813 40.7445 84.125 39.6414C84.3906 39.2977 84.575 38.8789 84.7563 38.4789C84.817 38.3521 84.8352 38.2092 84.8081 38.0712C84.7811 37.9333 84.7103 37.8078 84.6063 37.7133C84.5165 37.6114 84.3963 37.5411 84.2634 37.513C84.1305 37.4848 83.9921 37.5003 83.8688 37.557C83.5625 37.6945 83.2438 37.8383 82.9531 38.0195C81.5063 38.9352 80.225 40.057 78.9688 41.2383C76.4344 43.607 74.2406 46.2695 72.5313 49.357C72.3406 49.7008 72.125 50.0445 72.0375 50.4164C71.9045 50.9538 71.5655 51.4173 71.0938 51.707C70.5125 52.1227 69.9531 52.5727 69.3563 52.9508C68.8786 53.2635 68.3092 53.4056 67.7406 53.3539C66.825 53.2977 66.3969 52.757 66.5094 51.8258C66.5167 51.7475 66.5405 51.6716 66.5793 51.6032C66.6181 51.5348 66.671 51.4754 66.7344 51.4289C67.6719 50.707 68.5281 49.882 69.2844 48.9602C69.6729 48.5085 69.9873 47.998 70.2156 47.4477C70.4969 46.7039 70.275 46.2977 69.5219 46.1445C69.475 46.1352 69.425 46.1352 69.375 46.132C68.8188 46.0695 68.3406 46.2883 67.8875 46.5852C66.4676 47.5286 65.3663 48.8794 64.7281 50.4602C64.6181 50.7531 64.422 51.0058 64.1656 51.1852C63.15 51.9039 62.1594 52.6414 61.1406 53.3445C60.8616 53.5318 60.55 53.6654 60.2219 53.7383C59.5438 53.9164 59.1281 53.5758 59.15 52.8414C59.1625 52.4602 59.2125 52.0664 59.3156 51.7008C59.7594 50.1914 60.6219 48.9133 61.5219 47.6664C61.5594 47.6133 61.6594 47.5852 61.7281 47.5789C62.1344 47.557 62.5406 47.5789 62.9469 47.5477C63.2551 47.5307 63.5568 47.4523 63.8342 47.3171C64.1117 47.1818 64.3593 46.9925 64.5625 46.7602C65.2188 45.982 65.5438 45.0195 66 44.1039L64.3375 43.957L64.5656 43.6445C64.8125 43.2633 65.0813 42.9039 65.2844 42.5039C65.5406 42.0102 65.3375 41.6914 64.8 41.6289C64.3933 41.5787 63.9805 41.6393 63.6054 41.8044C63.2302 41.9694 62.9066 42.2327 62.6688 42.5664C62.3313 42.9977 62.0375 43.4633 61.7094 43.9008C61.6366 43.9956 61.5305 44.0593 61.4125 44.0789C61.0125 44.1289 60.6156 44.1414 60.2188 44.1852C59.3406 44.2852 58.6063 44.6539 58.1063 45.4383C57.6688 46.107 57.2625 46.7977 56.8469 47.4789C56.8344 47.4945 56.8406 47.5195 56.8438 47.4883H59.3C59.2875 47.5195 59.2813 47.5539 59.2656 47.5789C59.1625 47.7289 59.0625 47.8789 58.9531 48.0258C57.532 49.8819 55.8378 51.5119 53.9281 52.8602C53.6498 53.0615 53.3343 53.206 53 53.2852C52.3313 53.4508 51.875 52.9477 52.0781 52.2633C52.1814 51.9366 52.3286 51.6254 52.5156 51.3383C52.8469 50.832 53.2219 50.3633 53.5656 49.8695C53.8031 49.5477 54.0469 49.2195 54.2313 48.8602C54.5125 48.3352 54.325 47.7539 53.8375 47.4414C53.7585 47.397 53.6804 47.3512 53.6031 47.3039C53.8125 47.2008 53.9938 47.1164 54.1656 47.0164C54.5563 46.7852 54.6125 46.5977 54.3844 46.1852C54.2819 45.9777 54.1354 45.795 53.9552 45.6498C53.7749 45.5046 53.5652 45.4005 53.3406 45.3445C52.7906 45.2008 52.2375 45.2977 51.6938 45.4195C49.4531 45.9195 47.4219 46.9195 45.5625 48.2945C44.7188 48.9164 43.9344 49.6227 43.3875 50.5539C42.7563 51.6258 41.8438 52.3414 40.7844 52.8945C40.7469 52.9133 40.7063 52.9164 40.6719 52.9289C40.7345 52.8241 40.8148 52.7311 40.9094 52.6539C41.3563 52.2195 41.7656 51.7508 42.0344 51.1727C42.1634 50.9114 42.2479 50.6305 42.2844 50.3414C42.3469 49.7258 42.0406 49.2414 41.5906 48.9102C41.1875 48.601 40.749 48.3408 40.2844 48.1352C38.8906 47.5195 37.4063 47.2539 35.9188 47.0102C35.5875 46.9477 35.0125 46.8133 34.6563 46.7539L33.725 48.2914C34.975 48.407 36.5031 48.3789 37.7063 48.7602C38.1063 48.8883 38.5063 49.0602 38.8625 49.282C39.3906 49.6102 39.4563 50.0664 39.0156 50.5133C38.6322 50.8964 38.2017 51.2293 37.7344 51.5039C36.5144 52.2315 35.1565 52.6976 33.7469 52.8727C32.8923 52.9763 32.0253 52.8601 31.2281 52.5352C31.1969 52.5227 31.1656 52.5039 31.0813 52.4539L31.1219 52.3602L30.9656 52.5852C30.9906 52.7164 30.6625 52.7977 30.6094 52.9133C30.2969 53.5945 30.1188 54.3383 29.775 55.007C29.6406 55.2633 29.4688 55.507 29.275 55.8102C29.75 55.8945 30.3688 55.9977 30.8063 56.0227C32.7756 56.1208 34.7493 55.9632 36.6781 55.5539C38.8344 55.1039 40.8875 54.3477 42.75 53.1039L42.8969 53.0227L42.9781 53.2445C43.2887 54.1253 43.8397 54.9015 44.5688 55.4852C44.9188 55.7602 45.2813 55.8164 45.6625 55.5695C46.1094 55.2664 46.5813 55.0039 47 54.6633C48.1063 53.7695 49.1938 52.8508 50.2906 51.9445C50.3531 51.882 50.425 51.8445 50.4938 51.8008L50.5406 51.8383L50.4531 52.0602C50.25 52.5602 50.0375 53.0539 49.8563 53.5539C49.6688 54.0539 49.5344 54.5664 49.5594 55.1102C49.6 56.0789 50.325 56.6414 51.2094 56.3633C51.5688 56.2477 51.9188 56.0883 52.2406 55.8945C53.8656 54.932 55.3094 53.7164 56.6406 52.3508C56.6969 52.2883 56.7313 52.2102 56.7719 52.1383L56.8406 52.1977C56.8094 52.2977 56.7719 52.3914 56.7438 52.4945C56.4594 53.2602 56.2438 54.0414 56.275 54.8758C56.3 55.6914 56.7594 56.3633 57.4781 56.507C57.8263 56.5733 58.1839 56.5712 58.5313 56.5008C59.4625 56.3383 60.2563 55.8383 61.0313 55.2977C62.0938 54.5477 63.0531 53.657 63.9938 52.7508L64.1969 52.5758C64.225 52.9289 64.2344 53.2477 64.2781 53.5539C64.3938 54.3039 64.6438 55.007 65.1719 55.5539C65.6094 56.0289 66.1563 56.2133 66.7875 56.1352C67.4384 56.0405 68.0599 55.8013 68.6063 55.4352C69.7 54.7602 70.6063 53.8539 71.4625 52.8789C71.5188 52.8258 71.575 52.7664 71.6563 52.6758C71.7063 53.0352 71.7406 53.3633 71.7906 53.6695C71.8844 54.232 71.9938 54.7852 72.3 55.2633C72.5719 55.6852 73.025 55.7477 73.3781 55.3852C73.516 55.2321 73.6336 55.0619 73.7281 54.8789C74.0906 54.2352 74.4938 53.6164 75.0031 53.0789C75.0656 53.0227 75.1281 52.957 75.2125 52.8914L75.3531 53.0945C75.6031 53.4789 75.8531 53.882 76.1125 54.2633C76.5375 54.8758 77.0125 55.4508 77.6281 55.8695C78.3625 56.3758 79.1469 56.507 79.9688 56.1352C80.297 55.9929 80.6154 55.829 80.9219 55.6445C82.5406 54.6289 83.9063 53.2883 85.3094 51.9883C85.3312 51.9649 85.348 51.9373 85.3587 51.9072C85.3695 51.8771 85.3739 51.8452 85.3719 51.8133C85.3063 51.4852 85.2156 51.157 85.1375 50.807ZM31.5813 45.2195L29.9188 47.4977C29.8813 47.5477 29.7906 47.5977 29.7375 47.5914C29.2377 47.4947 28.7406 47.3842 28.2469 47.2602C28.1335 47.224 28.0313 47.1595 27.95 47.0727C27.6063 46.7789 27.5969 46.3039 27.975 46.0664C28.3026 45.8495 28.6652 45.6909 29.0469 45.5977C29.8781 45.4133 30.7188 45.2914 31.5531 45.1508C31.5656 45.1695 31.5719 45.1945 31.5813 45.2195ZM50.2906 60.5508L50.2719 60.4883C50.2031 60.5008 50.1344 60.5008 50.075 60.5227C49.7405 60.6263 49.4081 60.7367 49.0781 60.8539C47.3313 61.4664 45.6094 62.1289 44.0063 63.1039C43.2656 63.557 42.5781 64.0727 42.0219 64.7633C41.5806 65.3189 41.3239 65.9984 41.2875 66.707C41.2469 67.3414 41.6125 67.6852 42.2063 67.5383C42.5161 67.4672 42.8119 67.3447 43.0813 67.1758C43.6636 66.8069 44.2229 66.4031 44.7563 65.9664C46.7 64.3383 48.4594 62.4977 50.2156 60.6633C50.2406 60.632 50.2656 60.5914 50.2906 60.5508ZM48.4219 65.1977L48.2188 65.3539C46.7938 66.5352 45.375 67.7289 43.9313 68.8914C43.4563 69.2664 42.9313 69.5727 42.4188 69.9008C41.95 70.1977 41.5 70.1289 41.0813 69.7977C39.9563 68.8945 39.1781 67.7414 38.9156 66.2727C38.7938 65.5945 38.9531 64.9414 39.2375 64.3164C39.65 63.3914 40.2719 62.6352 40.9875 61.9477C42.5438 60.4633 44.3469 59.3852 46.2719 58.4945C47.575 57.9008 48.9156 57.4133 50.3281 57.182C50.875 57.0883 51.4281 57.007 51.9844 57.1602C52.3055 57.2479 52.6009 57.4115 52.8456 57.6372C53.0903 57.8629 53.2772 58.144 53.3906 58.457C53.5063 58.7539 53.4688 58.9352 53.2063 59.1164C52.9375 59.3039 52.6438 59.4414 52.3344 59.6164L52.5219 59.732C53.2281 60.132 53.4688 60.8977 53.0594 61.6195C52.7719 62.1289 52.4094 62.5883 52.0688 63.0664C51.6688 63.6383 51.2406 64.1945 50.8656 64.7852C50.6603 65.1074 50.5034 65.458 50.4 65.8258C50.1844 66.6508 50.7688 67.257 51.575 67.032C51.8722 66.9551 52.1551 66.8306 52.4125 66.6633C53.5 66.0164 54.4656 65.1852 55.4344 64.3539C56.4906 63.4508 57.5281 62.5352 58.5813 61.6352C59.0625 61.2227 59.5719 60.8477 60.1563 60.6164C60.5662 60.446 61.0259 60.4393 61.4406 60.5977C61.8719 60.7539 62.0563 61.0695 61.9219 61.5195C61.7996 61.9028 61.6318 62.27 61.4219 62.6133C60.5906 63.8695 59.5156 64.8789 58.3625 65.7914C58.2871 65.8418 58.2261 65.9109 58.1856 65.992C58.145 66.0731 58.1263 66.1634 58.1313 66.2539C58.1344 66.4508 58.1188 66.6445 58.1625 66.832C58.2688 67.3695 58.6625 67.657 59.3188 67.7195C59.8856 67.781 60.4556 67.6369 60.925 67.3133C62.0625 66.5008 63.1 65.5727 63.8875 64.3758L63.9531 64.2508C63.2594 64.107 63.175 63.8633 63.2969 62.9977C63.3569 62.6346 63.4818 62.2852 63.6656 61.9664C64.2625 60.8977 65.1094 60.1008 66.1563 59.5289C66.2967 59.4467 66.4536 59.3965 66.6156 59.382C66.8906 59.3539 67.0938 59.5539 67.0719 59.8414C67.0563 60.0914 66.9906 60.3414 66.9469 60.6164C67.3719 60.5539 67.8031 60.4789 68.2281 60.4227L70.6969 60.1195C70.9719 60.0914 71.2 60.1945 71.3219 60.4633C71.4813 60.8133 71.6688 61.1602 71.7719 61.532C71.9063 62.0102 71.7313 62.4539 71.4281 62.8133C71.2417 63.0326 71.0368 63.2354 70.8156 63.4195C70.1973 63.946 69.6481 64.5487 69.1813 65.2133C68.9114 65.592 68.7182 66.0198 68.6125 66.4727C68.4563 67.1227 69.0688 67.6602 69.6219 67.507C69.9969 67.4008 70.3781 67.2633 70.6938 67.0383C71.3656 66.5477 71.9969 65.9945 72.6438 65.4695C72.8031 65.3383 72.9656 65.1945 73.1563 65.0227C73.2219 65.3664 73.2813 65.6727 73.3281 65.9758C73.3344 66.0164 73.2906 66.0852 73.2531 66.132C72.0469 67.4695 70.7875 68.732 69.2719 69.7008C68.8776 69.9667 68.4397 70.1613 67.9781 70.2758C67.05 70.482 66.2031 69.807 65.9813 68.7539C65.8156 67.9727 65.9688 67.2352 66.2656 66.5227C66.6207 65.7545 67.0791 65.0385 67.6281 64.3945L68.4156 63.4164C68.3 63.4164 68.2406 63.4039 68.1875 63.4164C67.3438 63.607 66.4906 63.7977 65.65 64.007C65.5563 64.0289 65.4563 64.132 65.3938 64.2258C64.2625 65.9258 63.0031 67.5133 61.4875 68.8602C60.725 69.5383 59.9 70.1227 58.9094 70.4039C57.7531 70.7352 56.8656 70.3414 56.3156 69.232C55.8827 68.3555 55.7384 67.3644 55.9031 66.4008C55.9125 66.3383 55.9219 66.282 55.9281 66.2102L55.9375 66.0727C55.8469 66.1539 55.7906 66.1977 55.7406 66.2602C54.1625 67.8008 52.4938 69.1977 50.6156 70.3008C50.1875 70.5508 49.7344 70.7602 49.2656 70.8945C48.2375 71.2008 47.3969 70.5664 47.2875 69.4477C47.2156 68.7383 47.3969 68.0727 47.6313 67.4195C47.8688 66.757 48.1563 66.1133 48.4188 65.4602L48.4844 65.232C48.4626 65.2225 48.4416 65.211 48.4219 65.1977Z" fill="#BC2754"/>
<path fill-rule="evenodd" clip-rule="evenodd" d="M70.6562 45.5197C69.9093 45.5197 69.3999 44.8322 69.5937 44.0322C69.8312 43.0853 70.4843 42.5759 71.3312 42.2947C71.5552 42.2191 71.7933 42.1946 72.028 42.2228C72.5062 42.2884 72.7655 42.6478 72.753 43.1384C72.7249 44.1603 71.8843 45.2509 70.9562 45.479C70.8562 45.504 70.7499 45.5103 70.653 45.5197H70.6562ZM61.8499 60.404C61.0593 60.404 60.5562 59.6509 60.8187 58.804C61.1155 57.8509 61.8155 57.3478 62.7187 57.1165C62.8336 57.0849 62.9527 57.0712 63.0718 57.0759C63.603 57.0822 63.9593 57.4665 63.9405 58.0134C63.903 59.0384 63.0937 60.1165 62.1718 60.354C62.0687 60.3759 61.953 60.3884 61.8499 60.404Z" fill="#BC2754"/>
<path fill-rule="evenodd" clip-rule="evenodd" d="M32.0626 50.6758L32.0314 50.7227L32.3157 50.3227L32.0595 50.6758H32.0626ZM41.4376 35.6196L41.6376 35.3852C41.5409 35.2798 41.4317 35.1864 41.3126 35.1071C41.3439 35.2008 41.3751 35.2696 41.3907 35.3446C41.4095 35.4289 41.422 35.5258 41.4376 35.6196Z" fill="#BD2555"/>
<mask id="mask0" mask-type="alpha" maskUnits="userSpaceOnUse" x="23" y="34" width="19" height="29">
<path d="M23.25 34.2883H41.8312V62.5665H23.25V34.2883Z" fill="white"/>
</mask>
<g mask="url(#mask0)">
<path fill-rule="evenodd" clip-rule="evenodd" d="M41.8312 35.682C41.8312 35.682 41.3281 34.6351 39.8968 34.332C39.8968 34.332 39.5468 34.0757 39.0468 34.857L33.8562 41.9882L28.3875 49.5101L27.8875 50.2163C27.8875 50.2163 27.0812 50.7038 27.0218 51.7288C27.0218 51.7288 23.9843 51.7476 23.2843 55.3507C23.2843 55.3507 22.9687 57.407 24.2937 60.0757C24.2937 60.0757 23.5187 60.9945 23.5187 62.3288C23.5187 62.3288 23.5625 62.5663 23.75 62.5663C23.75 62.5663 23.9687 62.557 23.9687 62.2163C23.9687 62.2163 23.8687 61.3351 24.8906 60.1601C24.8906 60.1601 25.4531 59.5007 26.6687 58.7132C26.6687 58.7132 29.0937 56.557 29.725 55.2538C29.725 55.2538 30.7468 53.8195 31.1812 52.0382L31.15 51.6163L41.825 36.2788V35.6851L41.8312 35.682Z" fill="#FFDB00"/>
</g>
<path fill-rule="evenodd" clip-rule="evenodd" d="M28.7687 50.9102C28.7687 50.9102 29.8187 51.3352 30.0187 52.2727C30.0187 52.2727 30.4375 53.3352 29.2812 55.1664C29.2812 55.1664 28.8468 56.1102 27.5843 57.4727L26.0687 59.1258L26.2437 56.8008C26.2437 56.8008 27.9781 55.5039 27.95 53.9945C27.95 53.9945 28.7687 53.5164 29.2875 52.7664C29.2875 52.7664 29.9843 51.7914 28.7687 50.9102Z" fill="#743C12"/>
<path fill-rule="evenodd" clip-rule="evenodd" d="M24.8751 53.3353C24.0845 54.0603 23.672 55.479 24.4126 56.2228C24.8845 56.6884 25.9126 56.6759 26.8188 55.7228C27.7251 54.754 27.7157 53.4603 27.247 52.9884C26.6001 52.3478 25.7938 52.4884 24.8751 53.3322" fill="#743C12"/>
<path fill-rule="evenodd" clip-rule="evenodd" d="M30.9374 52.2133C30.9374 52.2133 30.7124 50.8383 29.3937 49.9633L30.1687 49.907C30.1687 49.907 30.4468 49.907 30.5999 49.557L33.4249 45.5664L37.5468 39.8477L40.8374 35.2539C40.8374 35.2539 40.9874 34.9383 40.6624 34.5664C40.6624 34.5664 41.3999 34.9789 41.8312 35.682L41.6718 36.3258L31.0156 51.5352L30.9374 52.2133Z" fill="#E4AD00"/>
<path fill-rule="evenodd" clip-rule="evenodd" d="M41.9624 36.0039L41.9562 35.9758C41.8949 35.7274 41.7636 35.5018 41.578 35.3258C41.4812 35.2133 41.378 35.0883 41.253 34.9789C41.253 34.9789 41.3312 35.157 41.3968 35.3945L41.4874 35.9226C41.4998 36.0563 41.486 36.1911 41.4468 36.3195L41.3687 36.432C41.3187 36.4508 41.2843 36.4789 41.2062 36.4789C40.9937 36.4726 40.7812 36.4383 40.5687 36.4289C40.3124 36.4289 40.0593 36.4539 39.7999 36.4601L37.3874 39.9039C37.9695 39.7852 38.5552 39.6852 39.1437 39.6039L39.1218 39.6289L32.1062 49.7101C32.1062 49.7101 32.0437 49.8289 31.978 49.8226C31.9718 49.5726 31.9593 49.3226 31.9468 49.0601C31.9329 49.0788 31.9147 49.0938 31.8937 49.1039V49.0258C31.8937 49.0258 30.2687 50.1601 30.9687 52.6289C30.9687 52.6289 30.9937 52.582 31.0249 52.5008L31.1187 52.357C31.253 52.0383 31.3624 51.7008 31.5468 51.4195C32.2562 50.3601 39.778 39.6508 39.7968 39.6289L41.953 36.4789C41.9921 36.3233 41.9953 36.1609 41.9624 36.0039Z" fill="#743C12"/>
<path fill-rule="evenodd" clip-rule="evenodd" d="M43.9999 37.2416C43.7587 37.11 43.5068 36.9992 43.2468 36.9103C42.8812 36.7978 42.5093 36.7072 42.1405 36.6072L40.5687 36.4291C39.2112 36.4181 37.8556 36.5311 36.5187 36.7666C34.4187 37.1103 32.3405 37.5947 30.3093 38.2603C29.528 38.5166 28.8187 38.8541 28.2593 39.4978C27.5562 40.3103 26.9124 41.1791 26.4093 42.1541C26.2695 42.4187 26.1525 42.6947 26.0593 42.9791C25.9124 43.4447 26.2093 43.8634 26.6749 43.8322C26.9687 43.8166 27.2687 43.7228 27.5562 43.6353C28.6343 43.2697 29.7093 42.8603 30.8374 42.6572C31.203 42.5884 31.5812 42.5009 31.9249 42.3572C32.2968 42.1884 32.2874 41.8478 31.9562 41.6166L31.8374 41.5228C33.7624 40.8103 36.5718 39.8509 39.9187 39.5384L40.0343 39.5447C40.7812 39.5228 41.5312 39.5509 42.2437 39.8353C42.5249 39.9509 42.7968 40.1291 43.0218 40.3416C43.1809 40.4806 43.282 40.6744 43.3052 40.8844C43.3283 41.0945 43.2718 41.3056 43.1468 41.4759C42.915 41.8102 42.6361 42.1091 42.3187 42.3634C41.5496 42.9473 40.6738 43.3752 39.7405 43.6228C38.728 43.9041 36.4968 44.3353 36.4968 44.3353L35.3718 45.9353C35.4124 45.9103 35.4749 45.9353 35.5155 45.9259C36.8374 45.6103 38.1812 45.3353 39.4968 44.9947C40.8876 44.6494 42.2146 44.0851 43.4281 43.3228C44.1093 42.8697 44.7218 42.3384 45.1468 41.6103C45.9687 40.1822 45.8624 38.2478 43.9999 37.2416Z" fill="#BC2754"/>
<defs>
<filter id="filter0_d" x="0.5" y="0.25708" width="108" height="108" filterUnits="userSpaceOnUse" color-interpolation-filters="sRGB">
<feFlood flood-opacity="0" result="BackgroundImageFix"/>
<feColorMatrix in="SourceAlpha" type="matrix" values="0 0 0 0 0 0 0 0 0 0 0 0 0 0 0 0 0 0 127 0"/>
<feOffset dy="2"/>
<feGaussianBlur stdDeviation="2"/>
<feColorMatrix type="matrix" values="0 0 0 0 0 0 0 0 0 0 0 0 0 0 0 0 0 0 0.1 0"/>
<feBlend mode="normal" in2="BackgroundImageFix" result="effect1_dropShadow"/>
<feBlend mode="normal" in="SourceGraphic" in2="effect1_dropShadow" result="shape"/>
</filter>
</defs>
</svg>
