<svg width="112" height="62" viewBox="0 0 112 62" fill="none" xmlns="http://www.w3.org/2000/svg">
<path d="M72.6252 10.7876C72.6305 10.526 72.6126 8.16284 70.296 5.88742C68.0152 3.64784 65.7147 3.58334 65.4585 3.58334H47.5347C47.1065 3.58334 44.8597 3.69621 42.6828 5.91609C40.4397 8.20225 40.3752 10.4974 40.3752 10.75V16.125H38.5835V21.5H40.3752V32.25C40.3752 33.5651 41.1026 34.71 42.1668 35.3335V37.625C42.1668 38.1002 42.3556 38.5559 42.6916 38.8919C43.0276 39.2279 43.4833 39.4167 43.9585 39.4167H45.7502C46.2253 39.4167 46.6811 39.2279 47.0171 38.8919C47.3531 38.5559 47.5418 38.1002 47.5418 37.625V35.8333H65.4585V37.625C65.4585 38.1002 65.6473 38.5559 65.9833 38.8919C66.3193 39.2279 66.775 39.4167 67.2502 39.4167H69.0418C69.517 39.4167 69.9727 39.2279 70.3087 38.8919C70.6447 38.5559 70.8335 38.1002 70.8335 37.625V35.337C71.3771 35.0253 71.8289 34.5758 72.1434 34.0339C72.458 33.4919 72.6241 32.8766 72.6252 32.25V21.5H74.4168V16.125H72.6252V10.7876ZM51.1252 7.16667H61.8752V10.75H51.1252V7.16667ZM46.646 32.25C45.933 32.2498 45.2493 31.9663 44.7453 31.462C44.2413 30.9576 43.9583 30.2737 43.9585 29.5607C43.9587 28.8477 44.2422 28.164 44.7465 27.66C45.2509 27.156 45.9348 26.873 46.6478 26.8732C47.3608 26.8734 48.0445 27.1569 48.5485 27.6613C49.0525 28.1656 49.3355 28.8495 49.3353 29.5625C49.3351 30.2755 49.0516 30.9592 48.5472 31.4632C48.0429 31.9672 47.359 32.2502 46.646 32.25ZM54.7085 23.2917H43.9585V14.3333H54.7085V23.2917ZM66.3543 32.25C65.6413 32.2498 64.9576 31.9663 64.4536 31.462C63.9496 30.9576 63.6666 30.2737 63.6668 29.5607C63.6671 28.8477 63.9505 28.164 64.4549 27.66C64.9592 27.156 65.6431 26.873 66.3561 26.8732C67.0691 26.8734 67.7528 27.1569 68.2568 27.6613C68.7608 28.1656 69.0439 28.8495 69.0436 29.5625C69.0434 30.2755 68.7599 30.9592 68.2556 31.4632C67.7512 31.9672 67.0673 32.2502 66.3543 32.25ZM69.0418 23.2917H58.2918V14.3333H69.0418V23.2917Z" fill="#F97432"/>
<path d="M8.45518 48.574C9.12718 48.694 9.69718 49.048 10.1652 49.636C10.6332 50.224 10.8672 50.89 10.8672 51.634C10.8672 52.27 10.6992 52.846 10.3632 53.362C10.0392 53.866 9.56518 54.268 8.94118 54.568C8.31718 54.856 7.59118 55 6.76318 55H1.75918V42.49H6.52918C7.38118 42.49 8.11318 42.634 8.72518 42.922C9.33718 43.21 9.79918 43.6 10.1112 44.092C10.4232 44.572 10.5792 45.112 10.5792 45.712C10.5792 46.432 10.3872 47.032 10.0032 47.512C9.61918 47.992 9.10318 48.346 8.45518 48.574ZM3.81118 47.746H6.34918C7.02118 47.746 7.54318 47.596 7.91518 47.296C8.29918 46.984 8.49118 46.54 8.49118 45.964C8.49118 45.4 8.29918 44.962 7.91518 44.65C7.54318 44.326 7.02118 44.164 6.34918 44.164H3.81118V47.746ZM6.58318 53.326C7.27918 53.326 7.82518 53.158 8.22118 52.822C8.61718 52.486 8.81518 52.018 8.81518 51.418C8.81518 50.806 8.60518 50.32 8.18518 49.96C7.76518 49.6 7.20718 49.42 6.51118 49.42H3.81118V53.326H6.58318ZM22.0791 45.082V55H20.0271V53.83C19.7031 54.238 19.2771 54.562 18.7491 54.802C18.2331 55.03 17.6811 55.144 17.0931 55.144C16.3131 55.144 15.6111 54.982 14.9871 54.658C14.3751 54.334 13.8891 53.854 13.5291 53.218C13.1811 52.582 13.0071 51.814 13.0071 50.914V45.082H15.0411V50.608C15.0411 51.496 15.2631 52.18 15.7071 52.66C16.1511 53.128 16.7571 53.362 17.5251 53.362C18.2931 53.362 18.8991 53.128 19.3431 52.66C19.7991 52.18 20.0271 51.496 20.0271 50.608V45.082H22.0791ZM28.3865 55.162C27.6065 55.162 26.9045 55.024 26.2805 54.748C25.6685 54.46 25.1825 54.076 24.8225 53.596C24.4625 53.104 24.2705 52.558 24.2465 51.958H26.3705C26.4065 52.378 26.6045 52.732 26.9645 53.02C27.3365 53.296 27.7985 53.434 28.3505 53.434C28.9265 53.434 29.3705 53.326 29.6825 53.11C30.0065 52.882 30.1685 52.594 30.1685 52.246C30.1685 51.874 29.9885 51.598 29.6285 51.418C29.2805 51.238 28.7225 51.04 27.9545 50.824C27.2105 50.62 26.6045 50.422 26.1365 50.23C25.6685 50.038 25.2605 49.744 24.9125 49.348C24.5765 48.952 24.4085 48.43 24.4085 47.782C24.4085 47.254 24.5645 46.774 24.8765 46.342C25.1885 45.898 25.6325 45.55 26.2085 45.298C26.7965 45.046 27.4685 44.92 28.2245 44.92C29.3525 44.92 30.2585 45.208 30.9425 45.784C31.6385 46.348 32.0105 47.122 32.0585 48.106H30.0065C29.9705 47.662 29.7905 47.308 29.4665 47.044C29.1425 46.78 28.7045 46.648 28.1525 46.648C27.6125 46.648 27.1985 46.75 26.9105 46.954C26.6225 47.158 26.4785 47.428 26.4785 47.764C26.4785 48.028 26.5745 48.25 26.7665 48.43C26.9585 48.61 27.1925 48.754 27.4685 48.862C27.7445 48.958 28.1525 49.084 28.6925 49.24C29.4125 49.432 30.0005 49.63 30.4565 49.834C30.9245 50.026 31.3265 50.314 31.6625 50.698C31.9985 51.082 32.1725 51.592 32.1845 52.228C32.1845 52.792 32.0285 53.296 31.7165 53.74C31.4045 54.184 30.9605 54.532 30.3845 54.784C29.8205 55.036 29.1545 55.162 28.3865 55.162ZM48.7435 55L47.1955 53.452C46.5955 54.052 45.9415 54.502 45.2335 54.802C44.5255 55.09 43.7335 55.234 42.8575 55.234C41.9695 55.234 41.1835 55.078 40.4995 54.766C39.8155 54.454 39.2875 54.01 38.9155 53.434C38.5435 52.846 38.3575 52.168 38.3575 51.4C38.3575 50.536 38.6035 49.768 39.0955 49.096C39.5875 48.412 40.3195 47.872 41.2915 47.476C40.9435 47.056 40.6975 46.666 40.5535 46.306C40.4095 45.934 40.3375 45.526 40.3375 45.082C40.3375 44.53 40.4755 44.038 40.7515 43.606C41.0395 43.174 41.4475 42.832 41.9755 42.58C42.5035 42.328 43.1155 42.202 43.8115 42.202C44.5195 42.202 45.1195 42.34 45.6115 42.616C46.1155 42.88 46.4875 43.246 46.7275 43.714C46.9795 44.182 47.0815 44.704 47.0335 45.28H44.9815C44.9935 44.836 44.8855 44.494 44.6575 44.254C44.4295 44.002 44.1175 43.876 43.7215 43.876C43.3255 43.876 43.0015 43.996 42.7495 44.236C42.5095 44.464 42.3895 44.746 42.3895 45.082C42.3895 45.406 42.4795 45.73 42.6595 46.054C42.8515 46.366 43.1815 46.774 43.6495 47.278L46.9615 50.572L48.2395 48.466H50.4535L48.8335 51.238L48.3835 51.976L51.4255 55H48.7435ZM42.8575 53.488C43.9855 53.488 44.9815 53.026 45.8455 52.102L42.5335 48.772C41.1175 49.336 40.4095 50.188 40.4095 51.328C40.4095 51.94 40.6375 52.456 41.0935 52.876C41.5495 53.284 42.1375 53.488 42.8575 53.488ZM65.5287 42.49V44.164H62.1987V55H60.1467V44.164H56.7987V42.49H65.5287ZM69.6588 46.522C69.9588 46.018 70.3548 45.628 70.8468 45.352C71.3508 45.064 71.9448 44.92 72.6288 44.92V47.044H72.1068C71.3028 47.044 70.6908 47.248 70.2708 47.656C69.8628 48.064 69.6588 48.772 69.6588 49.78V55H67.6068V45.082H69.6588V46.522ZM73.831 49.996C73.831 49 74.035 48.118 74.443 47.35C74.863 46.582 75.427 45.988 76.135 45.568C76.855 45.136 77.647 44.92 78.511 44.92C79.291 44.92 79.969 45.076 80.545 45.388C81.133 45.688 81.601 46.066 81.949 46.522V45.082H84.019V55H81.949V53.524C81.601 53.992 81.127 54.382 80.527 54.694C79.927 55.006 79.243 55.162 78.475 55.162C77.623 55.162 76.843 54.946 76.135 54.514C75.427 54.07 74.863 53.458 74.443 52.678C74.035 51.886 73.831 50.992 73.831 49.996ZM81.949 50.032C81.949 49.348 81.805 48.754 81.517 48.25C81.241 47.746 80.875 47.362 80.419 47.098C79.963 46.834 79.471 46.702 78.943 46.702C78.415 46.702 77.923 46.834 77.467 47.098C77.011 47.35 76.639 47.728 76.351 48.232C76.075 48.724 75.937 49.312 75.937 49.996C75.937 50.68 76.075 51.28 76.351 51.796C76.639 52.312 77.011 52.708 77.467 52.984C77.935 53.248 78.427 53.38 78.943 53.38C79.471 53.38 79.963 53.248 80.419 52.984C80.875 52.72 81.241 52.336 81.517 51.832C81.805 51.316 81.949 50.716 81.949 50.032ZM90.5483 53.164L93.3563 45.082H95.5343L91.7543 55H89.3063L85.5443 45.082H87.7403L90.5483 53.164ZM106.175 49.798C106.175 50.17 106.151 50.506 106.103 50.806H98.5254C98.5854 51.598 98.8794 52.234 99.4074 52.714C99.9354 53.194 100.583 53.434 101.351 53.434C102.455 53.434 103.235 52.972 103.691 52.048H105.905C105.605 52.96 105.059 53.71 104.267 54.298C103.487 54.874 102.515 55.162 101.351 55.162C100.403 55.162 99.5514 54.952 98.7954 54.532C98.0514 54.1 97.4634 53.5 97.0314 52.732C96.6114 51.952 96.4014 51.052 96.4014 50.032C96.4014 49.012 96.6054 48.118 97.0134 47.35C97.4334 46.57 98.0154 45.97 98.7594 45.55C99.5154 45.13 100.379 44.92 101.351 44.92C102.287 44.92 103.121 45.124 103.853 45.532C104.585 45.94 105.155 46.516 105.563 47.26C105.971 47.992 106.175 48.838 106.175 49.798ZM104.033 49.15C104.021 48.394 103.751 47.788 103.223 47.332C102.695 46.876 102.041 46.648 101.261 46.648C100.553 46.648 99.9474 46.876 99.4434 47.332C98.9394 47.776 98.6394 48.382 98.5434 49.15H104.033ZM110.247 41.68V55H108.195V41.68H110.247Z" fill="#F97432"/>
</svg>
