<svg width="109" height="109" viewBox="0 0 109 109" fill="none" xmlns="http://www.w3.org/2000/svg">
<g filter="url(#filter0_d)">
<path d="M54.5 102.257C82.1142 102.257 104.5 79.8713 104.5 52.2571C104.5 24.6428 82.1142 2.25708 54.5 2.25708C26.8858 2.25708 4.5 24.6428 4.5 52.2571C4.5 79.8713 26.8858 102.257 54.5 102.257Z" fill="black"/>
</g>
<path d="M54.5 102.257C82.1142 102.257 104.5 79.8713 104.5 52.2571C104.5 24.6428 82.1142 2.25708 54.5 2.25708C26.8858 2.25708 4.5 24.6428 4.5 52.2571C4.5 79.8713 26.8858 102.257 54.5 102.257Z" fill="white"/>
<path fill-rule="evenodd" clip-rule="evenodd" d="M81.7814 53.1196L83.2314 44.704C83.3126 44.229 83.1814 44.0571 82.7126 44.054H79.8252C79.3752 44.0571 79.1845 44.2258 79.1064 44.6946L78.3345 49.2821C77.9533 51.5258 77.5689 53.7696 77.1908 56.0196C76.9377 57.5165 76.6814 59.0102 76.4345 60.5071C76.372 60.8665 76.5252 61.1102 76.8408 61.1102H77.2408L81.7783 53.254V53.1196" fill="#54B648"/>
<path fill-rule="evenodd" clip-rule="evenodd" d="M81.7812 53.2882V53.2507L77.2406 61.1132C78.1437 61.1194 79.0437 61.1226 79.9437 61.1038C80.2781 61.0976 80.475 60.8726 80.5375 60.5351C80.6781 59.7007 80.8281 58.8726 80.9656 58.0413C81.0906 57.2913 81.2094 56.5382 81.3312 55.7788C81.5875 56.3226 81.7875 56.8632 81.9875 57.4038C82.15 57.8601 82.3187 58.3194 82.4875 58.7788L84.8937 49.1226C84.7656 49.3007 82.7406 52.1757 81.7781 53.2882" fill="#D3DD3E"/>
<path fill-rule="evenodd" clip-rule="evenodd" d="M72.025 61.0601H70.5657C70.2032 61.0601 70.0688 60.8976 70.1313 60.5164L71.1813 54.282C71.2938 53.6164 71.4 52.9508 71.4657 52.2789C71.5094 51.7976 71.2969 51.5476 70.8438 51.5133C70.3892 51.4775 69.9324 51.4796 69.4782 51.5195C68.925 51.5664 68.65 51.9664 68.5407 52.4945C68.4125 53.1133 68.3125 53.7383 68.2063 54.3601C67.8594 56.4226 67.5188 58.4758 67.1688 60.5383C67.1063 60.882 66.9094 61.057 66.5813 61.057C65.575 61.0633 64.5719 61.0633 63.5688 61.057C63.2313 61.057 63.1 60.8945 63.1625 60.5258C63.5 58.4758 63.8407 56.432 64.1938 54.382C64.3469 53.4914 64.4844 52.5914 64.7157 51.7195C65.1625 50.0476 66.1219 48.8508 67.7969 48.4133C68.2643 48.2736 68.7471 48.1917 69.2344 48.1695C70.3032 48.1633 71.3907 48.1383 72.4469 48.2883C74.0407 48.507 75.1188 49.532 75.3625 51.0133C75.4782 51.7164 75.4719 52.4726 75.3657 53.1789C75 55.6101 74.5657 58.0289 74.1532 60.4476C74.075 60.9164 73.9125 61.0601 73.4563 61.0601H72.025ZM23.9188 57.3945C24.5344 57.3383 25.1469 57.282 25.7657 57.232C25.8557 57.2177 25.9465 57.2083 26.0375 57.2039C26.3938 57.1976 26.4875 57.2883 26.4313 57.6508C26.3094 58.4101 26.1282 59.1633 26.0563 59.9289C26 60.5758 25.7 60.8539 25.1094 60.9789C23.7032 61.2601 22.2969 61.4133 20.8844 61.0914C18.4125 60.5289 16.9719 58.6664 17 55.9726C17.0125 54.9164 17.2188 53.8601 17.375 52.807C17.5875 51.4101 17.8625 50.0258 18.4125 48.7164C19.5219 46.0914 21.4969 44.7945 24.2 44.582C25.4 44.4883 26.5875 44.5414 27.7594 44.8383C28.5594 45.0414 28.5719 45.0726 28.4344 45.9133C28.3157 46.6414 28.1844 47.3695 28.0625 48.0945C27.9875 48.5508 27.8469 48.6539 27.3969 48.6164C26.5063 48.5508 25.6157 48.4851 24.725 48.4289C23.5719 48.3664 22.7532 48.9101 22.3594 50.0289C22.1 50.7664 21.9219 51.5445 21.7813 52.3164C21.6 53.2758 21.4719 54.2539 21.3563 55.2226C21.325 55.5195 21.3563 55.8351 21.4188 56.1351C21.5594 56.8851 22.0032 57.3008 22.7313 57.3633C23.1219 57.4008 23.5188 57.3726 23.9188 57.3726V57.3945ZM40.7094 48.3133H41.1969C41.9282 48.3133 42.6594 48.307 43.3907 48.3133C43.7219 48.3133 43.8282 48.4133 43.7844 48.7539C43.675 49.5039 43.55 50.2539 43.4032 51.0008C43.35 51.2758 43.1375 51.407 42.8563 51.4039C42.0532 51.4008 41.2532 51.4164 40.45 51.3976C40.1875 51.3914 40.1063 51.4945 40.0657 51.7445C39.7594 53.6195 39.4438 55.4883 39.1344 57.357C39.1181 57.4407 39.1066 57.5252 39.1 57.6101C39.0688 58.0164 39.1813 58.157 39.575 58.1633C40.2219 58.1758 40.8688 58.1695 41.5219 58.1726C42.0469 58.1726 42.1344 58.2914 42.0407 58.8445C41.9438 59.3976 41.8532 59.9508 41.7688 60.5008C41.7282 60.7914 41.5719 60.9726 41.3094 61.0195C39.9875 61.2508 38.65 61.407 37.3219 61.1351C35.5469 60.7695 34.7844 59.5976 35.0563 57.657C35.2844 56.0508 35.5782 54.4539 35.8469 52.8508L36.925 46.4945C36.9813 46.1508 37.1532 45.9633 37.4688 45.9133C38.5157 45.7226 39.5657 45.5289 40.6157 45.3508C40.9969 45.2883 41.1469 45.482 41.0782 45.8976C40.9532 46.6133 40.8313 47.332 40.7125 48.0476C40.7 48.1164 40.7125 48.1914 40.7125 48.3133H40.7094ZM81.7813 53.2883C82.0063 52.982 82.2813 52.6789 82.6282 52.2039C83.4844 51.0445 84.3407 49.8914 85.1844 48.7289C85.2711 48.5905 85.3935 48.478 85.5386 48.4032C85.6838 48.3285 85.8464 48.2941 86.0094 48.3039C87.2032 48.3258 88.4032 48.307 89.6032 48.3164C89.7219 48.3195 89.8375 48.3883 89.9532 48.4258C89.9063 48.5601 89.8844 48.7164 89.8032 48.8133C88.2996 50.6036 86.7902 52.389 85.275 54.1695C85.1 54.3726 85.0875 54.5289 85.1969 54.7758C86.0282 56.6445 86.8469 58.5195 87.6657 60.3914C87.8844 60.882 87.7719 61.0601 87.2625 61.0601C86.1157 61.0601 84.9688 61.0539 83.8188 61.0664C83.5063 61.0695 83.3219 60.9351 83.2188 60.6476C82.9688 59.9601 82.7063 59.2851 82.475 58.6039C82.4424 58.4504 82.45 58.2911 82.4969 58.1414C82.8907 56.307 83.2938 54.4758 83.6875 52.6383C83.7125 52.5526 83.7125 52.4615 83.6875 52.3758C83.6313 52.4539 83.5657 52.5258 83.5094 52.6101L77.6407 60.7851C77.4563 61.0445 76.9407 61.2726 76.6938 61.0883C76.3313 60.9195 76.4125 60.6508 76.4344 60.507C76.5782 59.5414 76.7594 58.6414 77.1969 57.7351C78.2969 55.4508 79.3219 53.1289 80.3844 50.8226L82.9063 45.3664C82.9375 45.3008 83.0438 45.2351 83.1469 45.1883C82.6875 47.9008 82.2407 50.5726 81.7782 53.2883C81.8032 53.3039 81.7563 53.2726 81.7782 53.2883H81.7813ZM52.0813 61.0601H50.6188C50.2438 61.0601 50.0938 60.8726 50.1594 60.5008L51.1938 54.3601C51.55 52.2383 51.9157 50.1226 52.275 48.0008C52.4657 46.8914 52.6469 45.782 52.8375 44.6695C52.9063 44.2633 53.1 44.0914 53.5094 44.0914C54.4532 44.0851 55.3938 44.0883 56.3407 44.0883C56.8407 44.0883 56.9563 44.2258 56.8719 44.7383C56.6625 45.9758 56.4438 47.2101 56.2313 48.4445L54.7469 57.2664L54.1875 60.5414C54.1282 60.8851 53.9313 61.0539 53.6032 61.0601H52.0813ZM45.5625 61.0601H44.1625C43.7157 61.0601 43.5813 60.8883 43.6594 60.4289L44.1813 57.3476C44.6625 54.5195 45.1407 51.6945 45.625 48.8726C45.7 48.4664 45.8719 48.3133 46.2719 48.3101C47.2563 48.307 48.2407 48.307 49.225 48.3133C49.6 48.3133 49.7219 48.4851 49.6532 48.882L47.8563 59.507C47.8032 59.8414 47.7438 60.1726 47.6844 60.5039C47.6188 60.8664 47.4063 61.0539 47.0563 61.0601H45.5625ZM58.6032 61.0601H57.1719C56.7625 61.0601 56.625 60.882 56.6938 60.4633C57.2438 57.2101 57.7938 53.957 58.35 50.7101C58.4532 50.0851 58.5563 49.4601 58.6688 48.8383C58.7313 48.4945 58.9188 48.3195 59.25 48.3133C60.2657 48.307 61.2813 48.307 62.2938 48.3133C62.6438 48.3133 62.7625 48.4976 62.6969 48.8851L61.65 55.0508L60.7219 60.4758C60.6532 60.8883 60.4594 61.057 60.0625 61.0601H58.6032ZM30.0063 61.0601H28.6375C28.1125 61.0601 28.0063 60.9164 28.1 60.3539C28.3407 58.9101 28.5907 57.4633 28.8344 56.0226C29.2282 53.682 29.6219 51.3445 30.0219 49.0008C30.1157 48.4383 30.2532 48.3133 30.8063 48.3133H33.55C34.0469 48.3133 34.1438 48.4383 34.0594 48.9383L32.1344 60.3914C32.0532 60.8914 31.8657 61.0601 31.3782 61.0601H30.0063ZM60.975 47.0383H59.3938C59.0125 47.032 58.8938 46.8758 58.9594 46.4758L59.2719 44.6039C59.3344 44.2445 59.5157 44.0664 59.8719 44.0633C60.9563 44.057 62.0407 44.057 63.1282 44.0633C63.4407 44.0633 63.5657 44.1976 63.5219 44.5164C63.425 45.2164 63.3125 45.9133 63.1782 46.607C63.1282 46.9008 62.9032 47.0351 62.6157 47.0351H60.975V47.0383ZM48.4844 44.0601C49.0157 44.0601 49.5438 44.0539 50.0688 44.0633C50.4063 44.0695 50.5313 44.2133 50.4813 44.5601C50.3875 45.2164 50.275 45.8726 50.1688 46.5289C50.1094 46.8476 49.9094 47.032 49.5969 47.0351H46.3094C45.9875 47.032 45.8532 46.8601 45.9063 46.5258C46.0094 45.8883 46.125 45.257 46.2344 44.6258C46.3063 44.2195 46.4782 44.0695 46.875 44.0633C47.4125 44.0539 47.95 44.0633 48.4844 44.0633V44.0601ZM32.3438 47.0383H30.7969C30.4125 47.0351 30.2907 46.907 30.3469 46.5133C30.4407 45.8476 30.55 45.1789 30.6688 44.5164C30.6843 44.3902 30.7465 44.2744 30.843 44.1917C30.9396 44.109 31.0636 44.0654 31.1907 44.0695C32.3157 44.057 33.4407 44.057 34.5657 44.0695C34.8375 44.0695 34.9594 44.2445 34.9125 44.5351C34.8094 45.1976 34.6938 45.8633 34.5782 46.5258C34.5157 46.8726 34.3313 47.032 33.9875 47.0351H32.3438" fill="#00823F"/>
<defs>
<filter id="filter0_d" x="0.5" y="0.25708" width="108" height="108" filterUnits="userSpaceOnUse" color-interpolation-filters="sRGB">
<feFlood flood-opacity="0" result="BackgroundImageFix"/>
<feColorMatrix in="SourceAlpha" type="matrix" values="0 0 0 0 0 0 0 0 0 0 0 0 0 0 0 0 0 0 127 0"/>
<feOffset dy="2"/>
<feGaussianBlur stdDeviation="2"/>
<feColorMatrix type="matrix" values="0 0 0 0 0 0 0 0 0 0 0 0 0 0 0 0 0 0 0.1 0"/>
<feBlend mode="normal" in2="BackgroundImageFix" result="effect1_dropShadow"/>
<feBlend mode="normal" in="SourceGraphic" in2="effect1_dropShadow" result="shape"/>
</filter>
</defs>
</svg>
