<svg width="33" height="32" viewBox="0 0 33 32" fill="none" xmlns="http://www.w3.org/2000/svg">
<path d="M11.9471 11.2107L10.9243 9.708C9.66041 7.85333 10.9813 5.33333 13.2162 5.33333C13.8521 5.33333 14.4682 5.55333 14.9624 5.956L18.3817 8.74267C18.8281 8.26258 19.3109 7.81813 19.8258 7.41333C20.7002 6.736 21.813 6.09867 23.0451 6.004C26.0087 5.77333 28.2238 7.66133 29.4758 9.10533C30.1236 9.852 30.2535 10.796 29.9766 11.616C29.833 12.0263 29.5981 12.3981 29.29 12.7031C28.9819 13.0081 28.6086 13.2383 28.1987 13.376L21.083 15.8453L16.8939 21.468C16.4891 22.0108 15.9132 22.3994 15.2605 22.5701C14.6078 22.7408 13.9169 22.6836 13.3006 22.4079C12.6844 22.1322 12.1793 21.6542 11.868 21.0521C11.5567 20.4501 11.4575 19.7595 11.5867 19.0933L11.9192 17.3813L8.56743 18.1107C8.12604 18.2066 7.66891 18.2019 7.22958 18.0968C6.79024 17.9917 6.37987 17.789 6.02856 17.5034C5.67725 17.2179 5.39392 16.8568 5.19938 16.4467C5.00484 16.0366 4.90401 15.5878 4.9043 15.1333V10.2533C4.90396 9.75208 5.06961 9.265 5.37505 8.86908C5.6805 8.47315 6.10833 8.19095 6.59094 8.06708C7.07355 7.9432 7.58341 7.98472 8.03996 8.18506C8.4965 8.3854 8.8737 8.73314 9.11193 9.17333L10.3917 11.536L11.9471 11.2093V11.2107ZM12.5631 8.57867L14.0548 10.7693L16.5694 10.2413C16.6886 10.216 16.8078 10.1773 16.9218 10.1253L13.7144 7.51067C13.5667 7.39166 13.3816 7.32986 13.1925 7.33646C13.0035 7.34306 12.823 7.41764 12.6839 7.54666C12.5449 7.67569 12.4563 7.85061 12.4344 8.0397C12.4125 8.2288 12.4586 8.41954 12.5644 8.57733L12.5631 8.57867ZM23.1974 7.99733C22.5258 8.05067 21.7825 8.42 21.0393 8.99733C20.312 9.56133 19.6787 10.2507 19.2376 10.784C18.6811 11.46 17.9048 12.004 16.9748 12.2L10.0751 13.6467C9.86639 13.6903 9.64928 13.6653 9.45581 13.5753C9.26234 13.4852 9.10276 13.335 9.00065 13.1467L7.36714 10.1333C7.3403 10.0834 7.29762 10.0439 7.24591 10.0211C7.1942 9.99838 7.13642 9.99369 7.08175 10.0078C7.02708 10.0219 6.97867 10.054 6.9442 10.0989C6.90973 10.1439 6.8912 10.1992 6.89153 10.256V15.1347C6.89153 15.8 7.50095 16.2947 8.14879 16.1547L12.9751 15.1067C13.1359 15.0718 13.3027 15.0777 13.4607 15.1237C13.6186 15.1697 13.7628 15.2545 13.8801 15.3704C13.9975 15.4863 14.0845 15.6297 14.1333 15.7877C14.182 15.9458 14.191 16.1136 14.1595 16.276L13.5368 19.476C13.4935 19.6979 13.5263 19.928 13.6299 20.1288C13.7334 20.3295 13.9016 20.4889 14.1069 20.5808C14.3122 20.6728 14.5424 20.692 14.7599 20.6352C14.9774 20.5783 15.1693 20.4489 15.3042 20.268L19.6761 14.4013C19.7949 14.241 19.9587 14.1203 20.1464 14.0547L27.5508 11.4853C27.674 11.4467 27.7869 11.3804 27.881 11.2915C27.9751 11.2026 28.0479 11.0933 28.094 10.972C28.1277 10.8785 28.1348 10.7774 28.1144 10.6801C28.094 10.5828 28.047 10.4932 27.9787 10.4213C26.8487 9.11867 25.1979 7.84267 23.1961 7.99733H23.1974Z" fill="#F97432"/>
<path d="M5.89791 26C5.63439 26 5.38166 26.1054 5.19532 26.2929C5.00898 26.4804 4.9043 26.7348 4.9043 27C4.9043 27.2652 5.00898 27.5196 5.19532 27.7071C5.38166 27.8946 5.63439 28 5.89791 28H27.7575C28.021 28 28.2737 27.8946 28.4601 27.7071C28.6464 27.5196 28.7511 27.2652 28.7511 27C28.7511 26.7348 28.6464 26.4804 28.4601 26.2929C28.2737 26.1054 28.021 26 27.7575 26H5.89791Z" fill="#F97432"/>
</svg>
