<svg width="32" height="32" viewBox="0 0 32 32" fill="none" xmlns="http://www.w3.org/2000/svg">
<path d="M7.79073 6.09067C9.96798 3.91342 12.921 2.69025 16.0001 2.69025C19.0792 2.69025 22.0321 3.91342 24.2094 6.09067C26.3866 8.26792 27.6098 11.2209 27.6098 14.3C27.6098 17.3791 26.3866 20.3321 24.2094 22.5093L22.6267 24.0747C21.4601 25.2187 19.9467 26.6907 18.0854 28.4907C17.526 29.0316 16.7782 29.334 16.0001 29.334C15.2219 29.334 14.4742 29.0316 13.9147 28.4907L9.26006 23.9627C8.67473 23.388 8.18539 22.904 7.79073 22.5093C6.71261 21.4313 5.8574 20.1515 5.27392 18.7429C4.69045 17.3343 4.39014 15.8246 4.39014 14.3C4.39014 12.7754 4.69045 11.2657 5.27392 9.85711C5.8574 8.44854 6.71261 7.1687 7.79073 6.09067ZM22.7947 7.504C20.9923 5.70194 18.5479 4.6897 15.9991 4.68995C13.4504 4.6902 11.0061 5.70292 9.20406 7.50533C7.402 9.30775 6.38976 11.7522 6.39001 14.3009C6.39026 16.8497 7.40298 19.2939 9.20539 21.096L11.1867 23.0533C12.5554 24.3906 13.9278 25.7239 15.3041 27.0533C15.4906 27.2338 15.7399 27.3346 15.9994 27.3346C16.2589 27.3346 16.5082 27.2338 16.6947 27.0533L21.2201 22.6533C21.8467 22.0387 22.3707 21.52 22.7934 21.096C24.5954 19.2939 25.6077 16.8498 25.6077 14.3013C25.6077 11.7529 24.5954 9.30875 22.7934 7.50667L22.7947 7.504ZM16.0001 10.6653C16.5257 10.6653 17.0462 10.7689 17.5318 10.97C18.0174 11.1712 18.4587 11.466 18.8304 11.8377C19.2021 12.2094 19.4969 12.6506 19.698 13.1362C19.8992 13.6219 20.0027 14.1424 20.0027 14.668C20.0027 15.1936 19.8992 15.7141 19.698 16.1998C19.4969 16.6854 19.2021 17.1266 18.8304 17.4983C18.4587 17.87 18.0174 18.1648 17.5318 18.366C17.0462 18.5671 16.5257 18.6707 16.0001 18.6707C14.9513 18.6515 13.952 18.2215 13.2171 17.473C12.4822 16.7246 12.0704 15.7176 12.0704 14.6687C12.0704 13.6197 12.4822 12.6127 13.2171 11.8643C13.952 11.1159 14.9513 10.6858 16.0001 10.6667V10.6653ZM16.0001 12.6653C15.7371 12.6653 15.4766 12.7171 15.2337 12.8178C14.9907 12.9184 14.7699 13.0659 14.584 13.2519C14.398 13.4379 14.2505 13.6586 14.1498 13.9016C14.0492 14.1446 13.9974 14.405 13.9974 14.668C13.9974 14.931 14.0492 15.1914 14.1498 15.4344C14.2505 15.6774 14.398 15.8981 14.584 16.0841C14.7699 16.2701 14.9907 16.4176 15.2337 16.5182C15.4766 16.6189 15.7371 16.6707 16.0001 16.6707C16.531 16.6707 17.0402 16.4597 17.4157 16.0843C17.7911 15.7088 18.0021 15.1996 18.0021 14.6687C18.0021 14.1377 17.7911 13.6285 17.4157 13.253C17.0402 12.8776 16.531 12.6667 16.0001 12.6667V12.6653Z" fill="#F97432"/>
</svg>
