<svg width="32" height="32" viewBox="0 0 32 32" fill="none" xmlns="http://www.w3.org/2000/svg">
<path d="M20 15.996C20 16.2612 19.8946 16.5156 19.7071 16.7031C19.5196 16.8906 19.2652 16.996 19 16.996C18.7348 16.996 18.4804 16.8906 18.2929 16.7031C18.1054 16.5156 18 16.2612 18 15.996C18 15.7308 18.1054 15.4764 18.2929 15.2889C18.4804 15.1014 18.7348 14.996 19 14.996C19.2652 14.996 19.5196 15.1014 19.7071 15.2889C19.8946 15.4764 20 15.7308 20 15.996Z" fill="#F97432"/>
<path d="M15.196 4.02001C15.051 3.99102 14.9013 3.99456 14.7578 4.03037C14.6144 4.06619 14.4806 4.13338 14.3662 4.22711C14.2518 4.32085 14.1596 4.43879 14.0963 4.57244C14.033 4.70608 14.0001 4.85212 14 5.00001V26.994C14.0001 27.1419 14.033 27.2879 14.0963 27.4216C14.1596 27.5552 14.2518 27.6732 14.3662 27.7669C14.4806 27.8606 14.6144 27.9278 14.7578 27.9636C14.9013 27.9995 15.051 28.003 15.196 27.974L25.196 25.974C25.4226 25.9287 25.6265 25.8063 25.7731 25.6277C25.9197 25.449 25.9999 25.2251 26 24.994V7.00001C25.9999 6.76891 25.9197 6.545 25.7731 6.36634C25.6265 6.18768 25.4226 6.0653 25.196 6.02001L15.196 4.02001ZM16 25.774V6.22001L24 7.82001V24.174L16 25.774Z" fill="#F97432"/>
<path d="M12 25.994V23.994H8V8H12V6H7C6.73478 6 6.48043 6.10536 6.29289 6.29289C6.10536 6.48043 6 6.73478 6 7V24.994C6 25.2592 6.10536 25.5136 6.29289 25.7011C6.48043 25.8886 6.73478 25.994 7 25.994H12Z" fill="#F97432"/>
</svg>
