<svg width="32" height="32" viewBox="0 0 32 32" fill="none" xmlns="http://www.w3.org/2000/svg">
<path d="M23.672 18.6667C24.0659 18.6665 24.4559 18.7439 24.8199 18.8945C25.1839 19.0452 25.5146 19.266 25.7932 19.5445C26.0718 19.823 26.2928 20.1536 26.4436 20.5175C26.5943 20.8814 26.672 21.2714 26.672 21.6653V22.432C26.672 23.624 26.2453 24.7787 25.4693 25.6827C23.376 28.128 20.1933 29.3347 16 29.3347C11.8053 29.3347 8.62396 28.128 6.53596 25.6813C5.76314 24.7761 5.33858 23.6249 5.33862 22.4347V21.6653C5.33845 21.2714 5.41588 20.8814 5.5665 20.5174C5.71712 20.1534 5.93797 19.8227 6.21644 19.5441C6.49491 19.2655 6.82554 19.0445 7.18944 18.8937C7.55334 18.7429 7.94339 18.6653 8.33729 18.6653H23.672V18.6667ZM23.672 20.6667H8.33729C8.20603 20.6665 8.07602 20.6922 7.95471 20.7423C7.83339 20.7924 7.72314 20.8659 7.63026 20.9587C7.53739 21.0515 7.46371 21.1616 7.41344 21.2829C7.36316 21.4041 7.33729 21.5341 7.33729 21.6653V22.4347C7.33729 23.1493 7.59329 23.84 8.05729 24.3827C9.72796 26.34 12.3493 27.3347 16 27.3347C19.6506 27.3347 22.2746 26.34 23.9493 24.3827C24.4146 23.8393 24.6705 23.1474 24.6706 22.432V21.6653C24.6708 21.5341 24.6451 21.4041 24.595 21.2828C24.5449 21.1614 24.4713 21.0512 24.3786 20.9583C24.2858 20.8654 24.1757 20.7918 24.0544 20.7415C23.9332 20.6912 23.8032 20.6653 23.672 20.6653V20.6667ZM16 2.672C17.7681 2.672 19.4638 3.37438 20.714 4.62462C21.9642 5.87487 22.6666 7.57056 22.6666 9.33867C22.6666 11.1068 21.9642 12.8025 20.714 14.0527C19.4638 15.303 17.7681 16.0053 16 16.0053C14.2318 16.0053 12.5362 15.303 11.2859 14.0527C10.0357 12.8025 9.33329 11.1068 9.33329 9.33867C9.33329 7.57056 10.0357 5.87487 11.2859 4.62462C12.5362 3.37438 14.2318 2.672 16 2.672ZM16 4.672C15.3871 4.672 14.7803 4.79271 14.2141 5.02723C13.6479 5.26175 13.1335 5.6055 12.7001 6.03884C12.2668 6.47218 11.923 6.98663 11.6885 7.55281C11.454 8.119 11.3333 8.72583 11.3333 9.33867C11.3333 9.9515 11.454 10.5583 11.6885 11.1245C11.923 11.6907 12.2668 12.2052 12.7001 12.6385C13.1335 13.0718 13.6479 13.4156 14.2141 13.6501C14.7803 13.8846 15.3871 14.0053 16 14.0053C17.2376 14.0053 18.4246 13.5137 19.2998 12.6385C20.175 11.7633 20.6666 10.5763 20.6666 9.33867C20.6666 8.10099 20.175 6.91401 19.2998 6.03884C18.4246 5.16367 17.2376 4.672 16 4.672Z" fill="#F97432"/>
</svg>
