<svg width="33" height="32" viewBox="0 0 33 32" fill="none" xmlns="http://www.w3.org/2000/svg">
<g clip-path="url(#clip0)">
<path d="M14.3538 8.61191L14.3092 6.79105C14.2529 4.54281 16.7244 3.15337 18.5988 4.37845C19.1321 4.72701 19.5297 5.2492 19.7262 5.85777L21.0859 10.0691C21.7201 9.91121 22.3655 9.80311 23.0164 9.74582C24.1163 9.65704 25.3945 9.73252 26.479 10.3285C29.0893 11.7595 29.9254 14.5571 30.1939 16.4544C30.3332 17.4357 29.9312 18.2986 29.2552 18.8345C28.9128 19.0999 28.5146 19.283 28.0911 19.3699C27.6677 19.4568 27.2301 19.4452 26.8117 19.336L19.5077 17.5066L12.9517 19.926C12.3184 20.1593 11.6252 20.1695 10.9854 19.955C10.3456 19.7404 9.79704 19.3137 9.42943 18.7447C9.06182 18.1756 8.8969 17.4979 8.96163 16.8223C9.02635 16.1467 9.31689 15.5132 9.78575 15.0253L10.9911 13.7718L7.78536 12.5462C7.36326 12.3848 6.98243 12.1302 6.67084 11.8013C6.35925 11.4723 6.12479 11.0774 5.98468 10.6453C5.84457 10.2133 5.80236 9.75515 5.86115 9.30455C5.91994 8.85395 6.07823 8.42232 6.32442 8.04133L8.96529 3.94862C9.23627 3.52804 9.63878 3.21034 10.1092 3.04572C10.5796 2.8811 11.0912 2.87894 11.5629 3.03958C12.0347 3.20023 12.4399 3.51452 12.7143 3.93279C12.9888 4.35106 13.117 4.84946 13.0786 5.34922L12.8733 8.03221L14.3545 8.61079L14.3538 8.61191ZM16.2948 6.7422L16.3603 9.39713L18.7549 10.3326C18.8686 10.3767 18.9896 10.4097 19.1132 10.4285L17.8383 6.47756C17.7788 6.29682 17.657 6.1435 17.4949 6.04542C17.3328 5.94733 17.1411 5.91097 16.9546 5.94293C16.7681 5.9749 16.5992 6.07307 16.4785 6.21963C16.3578 6.3662 16.2932 6.55146 16.2966 6.74181L16.2948 6.7422ZM25.5281 12.0837C24.9359 11.7603 24.1127 11.6627 23.1769 11.7395C22.2617 11.8138 21.3576 12.0448 20.699 12.2503C19.8665 12.5122 18.921 12.5429 18.035 12.1975L11.4655 9.62881C11.2669 9.55104 11.0983 9.41104 10.9848 9.22948C10.8713 9.04792 10.8188 8.83443 10.835 8.62054L11.0957 5.19796C11.1003 5.14134 11.0858 5.08483 11.0548 5.03741C11.0237 4.98998 10.9778 4.95437 10.9243 4.93623C10.8709 4.91809 10.8129 4.91846 10.7596 4.93729C10.7064 4.95611 10.6609 4.99231 10.6305 5.04013L7.99033 9.13173C7.63028 9.68972 7.87368 10.4386 8.49277 10.6763L13.1076 12.4429C13.2613 12.5018 13.398 12.5981 13.5056 12.7233C13.6132 12.8485 13.6882 12.9986 13.7239 13.1601C13.7596 13.3217 13.755 13.4896 13.7103 13.6489C13.6657 13.8082 13.5825 13.9538 13.4681 14.0728L11.2142 16.4152C11.0578 16.5776 10.9607 16.7886 10.939 17.0137C10.9172 17.2388 10.972 17.4646 11.0944 17.6543C11.2167 17.844 11.3995 17.9862 11.6126 18.0578C11.8258 18.1293 12.0568 18.1259 12.2678 18.0482L19.1092 15.5244C19.2956 15.4551 19.4983 15.4436 19.6912 15.4914L27.2915 17.3953C27.4158 17.4304 27.5463 17.4367 27.6734 17.4137C27.8004 17.3907 27.9206 17.339 28.0249 17.2625C28.1037 17.2026 28.1644 17.1217 28.2 17.0289C28.2355 16.9361 28.2446 16.8352 28.2262 16.7375C27.9834 15.0255 27.2895 13.0506 25.527 12.083L25.5281 12.0837Z" fill="#F97432"/>
<path d="M5.89791 26C5.63439 26 5.38166 26.1054 5.19532 26.2929C5.00898 26.4804 4.9043 26.7348 4.9043 27C4.9043 27.2652 5.00898 27.5196 5.19532 27.7071C5.38166 27.8946 5.63439 28 5.89791 28H27.7575C28.021 28 28.2737 27.8946 28.4601 27.7071C28.6464 27.5196 28.7511 27.2652 28.7511 27C28.7511 26.7348 28.6464 26.4804 28.4601 26.2929C28.2737 26.1054 28.021 26 27.7575 26H5.89791Z" fill="#F97432"/>
</g>
<defs>
<clipPath id="clip0">
<rect width="31.7957" height="32" fill="white" transform="translate(0.92981)"/>
</clipPath>
</defs>
</svg>
