<svg width="109" height="109" viewBox="0 0 109 109" fill="none" xmlns="http://www.w3.org/2000/svg">
<g filter="url(#filter0_d)">
<path d="M54.5 102.257C82.1142 102.257 104.5 79.8713 104.5 52.2571C104.5 24.6428 82.1142 2.25708 54.5 2.25708C26.8858 2.25708 4.5 24.6428 4.5 52.2571C4.5 79.8713 26.8858 102.257 54.5 102.257Z" fill="black"/>
</g>
<path d="M54.5 102.257C82.1142 102.257 104.5 79.8713 104.5 52.2571C104.5 24.6428 82.1142 2.25708 54.5 2.25708C26.8858 2.25708 4.5 24.6428 4.5 52.2571C4.5 79.8713 26.8858 102.257 54.5 102.257Z" fill="white"/>
<mask id="mask0" mask-type="alpha" maskUnits="userSpaceOnUse" x="20" y="36" width="59" height="24">
<path d="M20.125 36.6039H78.7313V59.7914H20.125V36.6039Z" fill="white"/>
</mask>
<g mask="url(#mask0)">
<path fill-rule="evenodd" clip-rule="evenodd" d="M27.5063 36.607C29.8407 36.607 32.1719 36.6008 34.5063 36.6133C35.1938 36.6164 35.8813 36.6883 36.5751 36.7227C37.2219 36.7539 37.8719 36.7602 38.5188 36.8039C39.8844 36.8977 41.2532 36.9789 42.6157 37.1164C43.8532 37.2414 45.0844 37.3977 46.3188 37.5852C47.5346 37.762 48.7342 38.0357 49.9063 38.4039C50.5407 38.607 51.1813 38.7789 51.8001 39.0164C52.7782 39.3883 53.7469 39.7852 54.7094 40.1945C55.2969 40.4508 55.8782 40.732 56.4657 41.0289C57.0688 41.3383 57.6719 41.6477 58.2532 42.0039C59.0844 42.507 59.9032 43.0289 60.7094 43.5852C61.3969 44.0602 62.0719 44.5727 62.7313 45.107C63.9188 46.0539 65.0782 47.032 66.2594 47.9945C67.9719 49.3883 69.6907 50.7789 71.4032 52.1758C73.1688 53.6102 74.9469 55.0383 76.7188 56.4727L78.6063 58.0102C78.7782 58.1445 78.7782 58.2227 78.6063 58.3758C78.1688 58.7883 77.7157 59.1727 77.1844 59.457C76.859 59.6377 76.4995 59.7487 76.1289 59.7831C75.7582 59.8176 75.3845 59.7746 75.0313 59.657C74.1063 59.3602 73.3001 58.8258 72.5469 58.207C70.7469 56.7383 68.9376 55.2883 67.1376 53.832L63.4657 50.8445C62.0969 49.7352 60.7407 48.5914 59.3532 47.5102C57.7643 46.2729 56.1494 45.0695 54.5094 43.9008C53.2563 43.0195 51.9532 42.2133 50.6469 41.4227C49.5027 40.7374 48.2872 40.1789 47.0219 39.757C45.8997 39.3671 44.7587 39.0333 43.6032 38.757C42.1848 38.4246 40.7534 38.1504 39.3126 37.9352C37.5815 37.6624 35.8335 37.512 34.0813 37.4852C29.6688 37.457 25.2532 37.4445 20.8376 37.4258C20.4688 37.4258 20.2251 37.232 20.1376 36.8508C20.0938 36.6914 20.1688 36.607 20.3469 36.607H27.5063Z" fill="#00084D"/>
</g>
<path fill-rule="evenodd" clip-rule="evenodd" d="M29.8 42.601C31.8719 42.601 33.9406 42.5697 36.0125 42.6103C37.825 42.6447 39.6406 42.7228 41.4469 42.8385C42.9094 42.9385 44.3719 43.0853 45.8281 43.276C48.6341 43.6131 51.363 44.4213 53.9 45.6666C55.1719 46.2791 56.4187 46.9603 57.5968 47.7697C58.6 48.4541 59.6125 49.126 60.5812 49.8697C61.9437 50.9166 63.2656 52.026 64.6125 53.1072L68.5375 56.2885C70.1281 57.576 71.725 58.8697 73.3125 60.1635L74.6718 61.251C74.8156 61.3666 74.8218 61.4697 74.6843 61.601C74.175 62.101 73.6187 62.5385 72.9718 62.8291C72.3921 63.1075 71.73 63.162 71.1125 62.9822C70.025 62.676 69.1312 62.0478 68.2625 61.326C67.0312 60.3072 65.775 59.3072 64.5281 58.2947C63.4968 57.4666 62.475 56.6291 61.4406 55.7947C60.1281 54.7322 58.8156 53.6603 57.4812 52.6228C56.2069 51.621 54.9118 50.6458 53.5969 49.6978C52.5685 48.971 51.5202 48.2728 50.4531 47.6041C49.6758 47.1115 48.8782 46.6518 48.0625 46.226C47.3423 45.8559 46.5991 45.5323 45.8375 45.2572C44.8812 44.9135 43.9 44.6228 42.9219 44.3541C42.192 44.1625 41.451 44.0164 40.7031 43.9166C39.3672 43.7282 38.0273 43.5698 36.6844 43.4416C35.9463 43.383 35.2059 43.358 34.4656 43.3666C30.8969 43.3603 27.325 43.3666 23.7531 43.3603C23.6562 43.3603 23.5125 43.351 23.4656 43.2853C23.3406 43.1135 23.2562 42.9135 23.1625 42.7166C23.1594 42.7041 23.2156 42.6228 23.2562 42.6166C23.3187 42.5978 23.3844 42.601 23.45 42.601H29.8Z" fill="#00084D"/>
<path fill-rule="evenodd" clip-rule="evenodd" d="M26.272 48.654C26.3782 48.6477 26.4438 48.6415 26.5157 48.6415H37.7595C38.5001 48.6415 39.2407 48.6477 39.9782 48.679C40.922 48.7259 41.8689 48.7415 42.8001 48.8665C43.3564 48.9446 43.9282 48.9227 44.4751 49.0384C44.922 49.1321 45.3751 49.1384 45.822 49.2102C46.1751 49.2665 46.5189 49.3134 46.8595 49.3884C47.2532 49.4759 47.6407 49.5946 48.0314 49.7009C48.4439 49.804 48.8595 49.8915 49.2657 50.0134C49.7282 50.1571 50.1876 50.3384 50.6501 50.4915C50.8689 50.5634 51.0876 50.6165 51.3032 50.6977C51.5407 50.7915 51.7626 50.8946 52.0001 50.9946L52.5157 51.2134C52.7314 51.3071 52.9314 51.404 53.1407 51.504C53.3282 51.5884 53.5189 51.6634 53.697 51.7571C53.95 51.8902 54.2 52.0288 54.447 52.1727C54.872 52.4165 55.2939 52.6571 55.7032 52.9165C56.022 53.1071 56.3282 53.3102 56.6282 53.5196C57.0876 53.8415 57.5501 54.1727 58.0032 54.5196C58.4095 54.8259 58.7938 55.1634 59.1907 55.4821C59.6063 55.8259 60.0345 56.1509 60.447 56.4915L62.047 57.804L63.7282 59.179C64.1501 59.5134 64.572 59.854 64.997 60.2009C65.4657 60.5759 65.9345 60.954 66.4032 61.3415L67.3439 62.1009C67.8126 62.4759 68.2814 62.8571 68.7532 63.2446C69.3306 63.7077 69.9025 64.1775 70.4689 64.654C70.547 64.7196 70.5939 64.8071 70.4939 64.8946C70.2751 65.0946 70.0532 65.3134 69.8064 65.4884C69.5064 65.7134 69.1939 65.9259 68.8689 66.0915C68.3408 66.354 67.735 66.414 67.1657 66.2602C66.7673 66.1805 66.3863 66.0302 66.0407 65.8165C65.7251 65.6009 65.3845 65.4352 65.0595 65.229C64.8845 65.1227 64.7314 64.979 64.572 64.854C63.8095 64.229 63.0438 63.604 62.272 62.9852C61.7095 62.5227 61.1376 62.0727 60.5657 61.6071L58.2532 59.7259C57.472 59.0821 56.7064 58.429 55.9157 57.8009C55.297 57.304 54.6501 56.8384 54.022 56.3571C53.4564 55.929 52.897 55.4884 52.3282 55.0696C51.9157 54.7571 51.4751 54.4759 51.047 54.1727C50.722 53.9477 50.4032 53.7134 50.0782 53.4946C49.2849 52.9708 48.4762 52.4706 47.6532 51.9946C47.372 51.8384 47.0907 51.7165 46.8095 51.5759C46.4782 51.4165 46.1595 51.2477 45.8251 51.0915C45.672 51.0196 45.5063 50.9634 45.3438 50.904C44.7032 50.6821 44.0657 50.454 43.4251 50.2509C43.1345 50.1571 42.8282 50.1259 42.5251 50.0571C42.1501 49.9634 41.7751 49.8602 41.397 49.7634L41.3814 49.7571C40.8813 49.6821 40.3813 49.6102 39.8907 49.5321C39.6907 49.5009 39.4939 49.4602 39.297 49.429C39.1286 49.4059 38.9598 49.3861 38.7907 49.3696C38.3907 49.3259 37.997 49.2821 37.6032 49.2446C37.4689 49.2259 37.3345 49.2071 37.2095 49.2071C33.7563 49.2009 30.3032 49.1977 26.847 49.2009C26.6595 49.2009 26.5345 49.1571 26.4657 48.9759C26.422 48.8727 26.3532 48.7915 26.272 48.654Z" fill="#10879C"/>
<path fill-rule="evenodd" clip-rule="evenodd" d="M29.3905 54.6322C32.4124 54.6322 35.4155 54.6259 38.4218 54.6322C39.4968 54.6384 40.5718 54.6478 41.6405 54.7228C42.8218 54.804 43.9999 54.9509 45.178 55.0853C45.7345 55.1471 46.2882 55.2326 46.8374 55.3415C47.1999 55.4072 47.5499 55.5384 47.9061 55.629C48.178 55.704 48.453 55.754 48.7124 55.8353C48.9811 55.9165 49.2499 56.0259 49.5155 56.1197C49.7186 56.1915 49.9186 56.2634 50.1124 56.3447C50.353 56.4478 50.5905 56.5603 50.8311 56.6603C50.9811 56.7322 51.1468 56.804 51.2999 56.879C51.678 57.0603 52.0593 57.2384 52.4249 57.429C53.1661 57.791 53.8804 58.2056 54.5624 58.6697C54.9124 58.904 55.2624 59.1322 55.603 59.3884C56.0343 59.7009 56.4624 60.0259 56.8843 60.3572C57.8186 61.0915 58.7405 61.8259 59.6718 62.5697C60.3436 63.1072 61.0093 63.6572 61.6843 64.1947C62.2155 64.6228 62.7593 65.0384 63.2905 65.4665C63.8124 65.8822 64.3218 66.3165 64.8405 66.7384C65.3405 67.1384 65.8499 67.5322 66.3499 67.9384C66.5499 68.1009 66.5468 68.1415 66.3561 68.3072C66.1374 68.4978 65.9374 68.7322 65.7061 68.8884C65.4124 69.0947 65.0936 69.2634 64.7749 69.4353C64.4059 69.6504 63.9776 69.7413 63.553 69.6947C63.2196 69.639 62.8921 69.5522 62.5749 69.4353C62.2946 69.3486 62.0251 69.2301 61.7718 69.0822C61.3844 68.8351 61.008 68.5713 60.6436 68.2915C60.1499 67.9072 59.6655 67.5134 59.1811 67.1259C58.4718 66.5384 57.7624 65.9478 57.0499 65.3697C56.5811 64.9947 56.103 64.6415 55.6374 64.2665C55.203 63.9165 54.7843 63.5478 54.3561 63.1947C53.8061 62.7634 53.2624 62.3322 52.703 61.9134C51.712 61.1596 50.712 60.4179 49.703 59.6884C49.328 59.4165 48.9218 59.1853 48.5249 58.9384C47.8186 58.5103 47.1218 58.0634 46.3999 57.6572C45.9936 57.429 45.5436 57.2665 45.1186 57.0665C44.9186 56.9728 44.7249 56.8603 44.5249 56.7759C44.3218 56.6884 44.1155 56.6228 43.9093 56.5509L43.4343 56.379L42.6718 56.079C42.6561 56.0697 42.6405 56.0509 42.628 56.0478L41.7218 55.8165C41.4749 55.754 41.2405 55.6853 40.9999 55.6322C40.5093 55.5259 40.0155 55.4072 39.5186 55.3259C38.2708 55.1221 37.0079 55.0249 35.7436 55.0353C33.8593 55.0447 31.9718 55.0384 30.0874 55.0384C30.003 55.0384 29.9124 55.0384 29.8311 55.0478C29.5811 55.0822 29.3999 54.9072 29.3936 54.6322" fill="#10879C"/>
<path fill-rule="evenodd" clip-rule="evenodd" d="M35.8095 60.5071C36.8407 60.5071 37.8689 60.4821 38.8939 60.5133C40.1282 60.5446 41.3657 60.6071 42.6001 60.6789C43.122 60.7071 43.6439 60.7727 44.1626 60.8383C44.547 60.8789 44.9439 60.9321 45.3251 61.0039C45.7439 61.0789 46.1595 61.1914 46.5751 61.2883C46.6626 61.3039 46.7533 61.3039 46.8345 61.3227C46.9595 61.3539 47.0939 61.3977 47.222 61.4321C47.247 61.4383 47.2689 61.4602 47.2939 61.4664C47.5689 61.5414 47.8439 61.5977 48.1158 61.6852C48.3501 61.7602 48.5845 61.8571 48.822 61.9414C49.1408 62.0633 49.4595 62.1789 49.7751 62.3164C50.1314 62.4727 50.4814 62.6383 50.8251 62.8008C51.2157 62.9883 51.6064 63.1602 51.9908 63.3727C52.397 63.5977 52.8126 63.8383 53.197 64.1164C53.8314 64.5727 54.4408 65.0571 55.0595 65.5383C55.7501 66.0789 56.4376 66.6383 57.1283 67.1852C57.8408 67.7539 58.5626 68.3164 59.2751 68.8914C60.0033 69.4664 60.722 70.0508 61.4439 70.6289C61.7376 70.8664 62.047 71.0821 62.3439 71.3196C62.5314 71.4727 62.522 71.4821 62.3345 71.6321C62.022 71.8758 61.7189 72.1352 61.4033 72.3758C61.0374 72.6673 60.6044 72.8627 60.1437 72.944C59.683 73.0253 59.2093 72.9901 58.7658 72.8414C58.1169 72.6608 57.506 72.3644 56.9626 71.9664C56.6189 71.7164 56.3064 71.4352 55.9783 71.1696C55.2001 70.5321 54.4251 69.9039 53.6501 69.2633C52.9751 68.7008 52.3189 68.1258 51.6501 67.5633C51.1314 67.1289 50.6126 66.7133 50.0939 66.2821C49.8064 66.0446 49.5314 65.7946 49.247 65.5633C48.822 65.2352 48.3908 64.9227 47.9595 64.5946C47.6376 64.3539 47.3126 64.1196 46.9908 63.8664C46.4011 63.4145 45.7615 63.0318 45.0845 62.7258C44.6626 62.5227 44.2158 62.3727 43.7783 62.1977C43.5283 62.1008 43.2783 61.9852 43.0158 61.9008C42.7345 61.8133 42.4533 61.7602 42.172 61.6883C41.797 61.5946 41.4157 61.4914 41.0345 61.4008C40.8595 61.3602 40.6751 61.3539 40.497 61.3196C40.372 61.2946 40.247 61.2477 40.1251 61.2133C40.052 61.1876 39.9767 61.1688 39.9001 61.1571C39.4564 61.1508 39.0032 61.1789 38.572 61.0102C38.4907 60.9789 38.3907 60.9977 38.297 60.9977C36.497 60.9946 34.6782 60.9946 32.8814 60.9883C32.6001 60.9883 32.4251 60.8633 32.3439 60.5977C32.3376 60.5727 32.4126 60.4977 32.4501 60.4977C33.5657 60.4914 34.6876 60.4946 35.8095 60.4946V60.5071Z" fill="#10879C"/>
<path fill-rule="evenodd" clip-rule="evenodd" d="M88.8406 55.3757C88.8331 55.5946 88.8217 55.8134 88.8062 56.032C88.8 56.0945 88.7625 56.1726 88.7219 56.1976C88.6906 56.2163 88.6125 56.1663 88.5719 56.1351C88.2375 55.9163 87.9094 55.6632 87.5625 55.4726C87.3422 55.357 87.0986 55.2929 86.85 55.2851C85.6625 55.2538 84.4687 55.2726 83.3062 55.5507C82.7406 55.682 82.2 55.9476 81.6594 56.1851C81.2469 56.3601 80.8531 56.5913 80.4625 56.7945C79.7875 57.1413 79.1812 57.007 78.6125 56.5445C76.9062 55.1695 75.2 53.7945 73.5062 52.407C72.7562 51.7913 71.9937 51.182 71.2844 50.5163C70.9381 50.1747 70.6499 49.7789 70.4312 49.3445C70.2937 49.0757 70.275 48.7226 70.2187 48.407C70.2062 48.3351 70.2781 48.257 70.3125 48.1788C70.3687 48.2226 70.4531 48.2507 70.4937 48.307C70.9969 49.0663 71.7062 49.4726 72.5625 49.6695C73.6993 49.9097 74.8603 50.0156 76.0218 49.9851C77.925 49.9726 79.8312 49.982 81.7406 49.982C82.375 49.9788 82.7875 50.2632 83.0312 50.8757C83.1062 51.057 83.1844 51.2382 83.2437 51.4226C83.3187 51.6413 83.1125 51.882 82.8969 51.8538L79.7406 51.4882C79.6594 51.4788 79.5906 51.5195 79.5156 51.5413C79.5531 51.607 79.5781 51.6851 79.6281 51.7382C79.9156 52.0195 80.2094 52.2882 80.5031 52.5632C80.6156 52.6726 80.7437 52.6788 80.8906 52.632C81.4312 52.4476 81.9875 52.2882 82.5312 52.0882C82.8659 51.9742 83.2243 51.9483 83.5719 52.0132C84.525 52.1382 85.4781 52.2726 86.4344 52.432C86.8812 52.5132 87.3187 52.6601 87.7187 52.9101C88.4062 53.3288 88.6937 53.9913 88.8062 54.7663C88.8312 54.9726 88.8312 55.182 88.8375 55.3757" fill="#00084D"/>
<defs>
<filter id="filter0_d" x="0.5" y="0.25708" width="108" height="108" filterUnits="userSpaceOnUse" color-interpolation-filters="sRGB">
<feFlood flood-opacity="0" result="BackgroundImageFix"/>
<feColorMatrix in="SourceAlpha" type="matrix" values="0 0 0 0 0 0 0 0 0 0 0 0 0 0 0 0 0 0 127 0"/>
<feOffset dy="2"/>
<feGaussianBlur stdDeviation="2"/>
<feColorMatrix type="matrix" values="0 0 0 0 0 0 0 0 0 0 0 0 0 0 0 0 0 0 0.1 0"/>
<feBlend mode="normal" in2="BackgroundImageFix" result="effect1_dropShadow"/>
<feBlend mode="normal" in="SourceGraphic" in2="effect1_dropShadow" result="shape"/>
</filter>
</defs>
</svg>
