<svg width="180" height="53" viewBox="0 0 180 53" fill="none" xmlns="http://www.w3.org/2000/svg">
<path d="M173.095 52.6104H6.6575C2.99754 52.6104 0 49.6494 0 46.0341V6.5763C0 2.96098 2.99754 1.3295e-06 6.6575 1.3295e-06H173.095C176.755 1.3295e-06 179.753 2.96098 179.753 6.5763V46.0341C179.753 49.6494 176.755 52.6104 173.095 52.6104Z" fill="black" fill-opacity="0.09"/>
<path d="M173.095 1.05385C176.177 1.05385 178.686 3.53147 178.686 6.5763V46.0341C178.686 49.0789 176.177 51.5565 173.095 51.5565H6.6575C3.57508 51.5565 1.06686 49.0789 1.06686 46.0341V6.5763C1.06686 3.53147 3.57508 1.05385 6.6575 1.05385H173.095ZM173.095 1.3295e-06H6.6575C2.99754 1.3295e-06 0 2.96098 0 6.5763V46.0341C0 49.6494 2.99754 52.6104 6.6575 52.6104H173.095C176.755 52.6104 179.753 49.6494 179.753 46.0341V6.5763C179.753 2.96098 176.755 1.3295e-06 173.095 1.3295e-06Z" fill="white"/>
<path d="M63.1365 13.4731C63.1365 14.5713 62.8036 15.4509 62.1478 16.1069C61.3939 16.8846 60.4119 17.2759 59.2085 17.2759C58.0585 17.2759 57.0765 16.878 56.2709 16.0938C55.4637 15.298 55.0609 14.3214 55.0609 13.1525C55.0609 11.9835 55.4637 11.0069 56.2709 10.2177C57.0765 9.42693 58.0585 9.02905 59.2085 9.02905C59.7811 9.02905 60.327 9.14578 60.848 9.36281C61.3672 9.58147 61.79 9.87741 62.0962 10.2424L61.4005 10.9362C60.8663 10.3131 60.1389 10.0057 59.2085 10.0057C58.3697 10.0057 57.6424 10.295 57.0249 10.8787C56.4141 11.464 56.1078 12.2219 56.1078 13.1525C56.1078 14.083 56.4141 14.8475 57.0249 15.4328C57.6424 16.0099 58.3697 16.3059 59.2085 16.3059C60.099 16.3059 60.848 16.0099 61.4388 15.4263C61.8283 15.0399 62.0496 14.5072 62.1079 13.8265H59.2085V12.8763H63.0766C63.1232 13.0818 63.1365 13.2807 63.1365 13.4731Z" fill="white" stroke="white" stroke-width="0.16" stroke-miterlimit="10"/>
<path d="M69.2729 10.1783H65.6397V12.6773H68.9151V13.6276H65.6397V16.1266H69.2729V17.095H64.6111V9.20996H69.2729V10.1783Z" fill="white" stroke="white" stroke-width="0.16" stroke-miterlimit="10"/>
<path d="M73.6036 17.095H72.575V10.1783H70.3464V9.20996H75.8339V10.1783H73.6036V17.095Z" fill="white" stroke="white" stroke-width="0.16" stroke-miterlimit="10"/>
<path d="M79.8052 17.095V9.20996H80.832V17.095H79.8052Z" fill="white" stroke="white" stroke-width="0.16" stroke-miterlimit="10"/>
<path d="M85.3841 17.095H84.3638V10.1783H82.127V9.20996H87.621V10.1783H85.3841V17.095Z" fill="white" stroke="white" stroke-width="0.16" stroke-miterlimit="10"/>
<path d="M98.0101 16.0806C97.2228 16.878 96.2475 17.2759 95.0841 17.2759C93.914 17.2759 92.9387 16.878 92.1514 16.0806C91.3659 15.2849 90.9747 14.3083 90.9747 13.1525C90.9747 11.9967 91.3659 11.0201 92.1514 10.2243C92.9387 9.42693 93.914 9.02905 95.0841 9.02905C96.2408 9.02905 97.2161 9.42693 98.0034 10.2309C98.7956 11.0332 99.1868 12.0032 99.1868 13.1525C99.1868 14.3083 98.7956 15.2849 98.0101 16.0806ZM92.9121 15.4197C93.5046 16.0099 94.2253 16.3059 95.0841 16.3059C95.9362 16.3059 96.6636 16.0099 97.2494 15.4197C97.8403 14.8295 98.1399 14.0715 98.1399 13.1525C98.1399 12.2334 97.8403 11.4755 97.2494 10.8852C96.6636 10.295 95.9362 9.99907 95.0841 9.99907C94.2253 9.99907 93.5046 10.295 92.9121 10.8852C92.3212 11.4755 92.0216 12.2334 92.0216 13.1525C92.0216 14.0715 92.3212 14.8295 92.9121 15.4197Z" fill="white" stroke="white" stroke-width="0.16" stroke-miterlimit="10"/>
<path d="M100.63 17.095V9.20996H101.878L105.759 15.3424H105.804L105.759 13.8265V9.20996H106.786V17.095H105.714L101.65 10.66H101.605L101.65 12.1825V17.095H100.63Z" fill="white" stroke="white" stroke-width="0.16" stroke-miterlimit="10"/>
<path d="M90.7218 28.6101C87.5944 28.6101 85.0396 30.9612 85.0396 34.205C85.0396 37.4224 87.5944 39.7981 90.7218 39.7981C93.8558 39.7981 96.4106 37.4224 96.4106 34.205C96.4106 30.9612 93.8558 28.6101 90.7218 28.6101ZM90.7218 37.5951C89.0058 37.5951 87.5295 36.1959 87.5295 34.205C87.5295 32.1877 89.0058 30.8132 90.7218 30.8132C92.4377 30.8132 93.9207 32.1877 93.9207 34.205C93.9207 36.1959 92.4377 37.5951 90.7218 37.5951ZM78.3238 28.6101C75.1898 28.6101 72.6417 30.9612 72.6417 34.205C72.6417 37.4224 75.1898 39.7981 78.3238 39.7981C81.4562 39.7981 84.006 37.4224 84.006 34.205C84.006 30.9612 81.4562 28.6101 78.3238 28.6101ZM78.3238 37.5951C76.6062 37.5951 75.1249 36.1959 75.1249 34.205C75.1249 32.1877 76.6062 30.8132 78.3238 30.8132C80.0398 30.8132 81.5161 32.1877 81.5161 34.205C81.5161 36.1959 80.0398 37.5951 78.3238 37.5951ZM63.5708 30.3249V32.7023H69.3179C69.1498 34.0307 68.7004 35.0073 68.0114 35.6879C67.1725 36.51 65.866 37.4224 63.5708 37.4224C60.034 37.4224 57.2645 34.6028 57.2645 31.1091C57.2645 27.6155 60.034 24.7959 63.5708 24.7959C65.4832 24.7959 66.8746 25.5341 67.9015 26.4909L69.5975 24.8156C68.1612 23.4609 66.2505 22.4202 63.5708 22.4202C58.7208 22.4202 54.6448 26.3183 54.6448 31.1091C54.6448 35.9 58.7208 39.7981 63.5708 39.7981C66.1922 39.7981 68.1612 38.9498 69.709 37.3583C71.2952 35.7915 71.7895 33.5884 71.7895 31.8095C71.7895 31.2571 71.7429 30.7491 71.6597 30.3249H63.5708ZM123.898 32.1679C123.43 30.9168 121.987 28.6101 119.048 28.6101C116.135 28.6101 113.71 30.8773 113.71 34.205C113.71 37.3386 116.11 39.7981 119.327 39.7981C121.929 39.7981 123.43 38.2313 124.048 37.3188L122.117 36.048C121.473 36.9785 120.596 37.5951 119.327 37.5951C118.067 37.5951 117.164 37.0246 116.584 35.9L124.159 32.8042L123.898 32.1679ZM116.175 34.0307C116.11 31.8736 117.871 30.7688 119.133 30.7688C120.121 30.7688 120.96 31.2571 121.24 31.9559L116.175 34.0307ZM110.019 39.4578H112.508V23.017H110.019V39.4578ZM105.941 29.8564H105.858C105.298 29.202 104.231 28.6101 102.88 28.6101C100.044 28.6101 97.4508 31.0697 97.4508 34.223C97.4508 37.3583 100.044 39.7981 102.88 39.7981C104.231 39.7981 105.298 39.2013 105.858 38.5273H105.941V39.3296C105.941 41.4685 104.784 42.6177 102.918 42.6177C101.397 42.6177 100.453 41.5326 100.064 40.6202L97.8985 41.5129C98.5227 42.9959 100.175 44.8208 102.918 44.8208C105.838 44.8208 108.301 43.1241 108.301 38.9958V28.9505H105.941V29.8564ZM103.093 37.5951C101.377 37.5951 99.9407 36.1762 99.9407 34.223C99.9407 32.2518 101.377 30.8132 103.093 30.8132C104.784 30.8132 106.117 32.2518 106.117 34.223C106.117 36.1762 104.784 37.5951 103.093 37.5951ZM135.555 23.017H129.6V39.4578H132.083V33.2284H135.555C138.313 33.2284 141.017 31.2571 141.017 28.1218C141.017 24.9882 138.306 23.017 135.555 23.017ZM135.62 30.9414H132.083V25.3039H135.62C137.474 25.3039 138.533 26.8247 138.533 28.1218C138.533 29.3944 137.474 30.9414 135.62 30.9414ZM150.97 28.5789C149.176 28.5789 147.31 29.3615 146.543 31.096L148.747 32.0085C149.221 31.096 150.093 30.8001 151.015 30.8001C152.304 30.8001 153.61 31.5646 153.63 32.9144V33.087C153.181 32.8305 152.219 32.4507 151.035 32.4507C148.662 32.4507 146.244 33.7413 146.244 36.1499C146.244 38.353 148.188 39.7718 150.373 39.7718C152.044 39.7718 152.966 39.0271 153.545 38.1606H153.63V39.4315H156.028V33.1248C156.028 30.2098 153.825 28.5789 150.97 28.5789ZM150.671 37.5885C149.859 37.5885 148.727 37.1906 148.727 36.1959C148.727 34.9234 150.138 34.4351 151.36 34.4351C152.453 34.4351 152.966 34.6735 153.63 34.9875C153.435 36.51 152.109 37.5885 150.671 37.5885ZM164.766 28.939L161.912 36.0661H161.827L158.876 28.939H156.198L160.632 38.8988L158.102 44.441H160.697L167.529 28.939H164.766ZM142.382 39.4578H144.872V23.017H142.382V39.4578Z" fill="white"/>
<path d="M13.8942 9.91518C13.5031 10.3196 13.2767 10.9493 13.2767 11.7648V40.8519C13.2767 41.6674 13.5031 42.2971 13.8942 42.7015L13.9907 42.7903L30.4913 26.4974V26.1127L13.9907 9.81983L13.8942 9.91518Z" fill="url(#paint0_linear)"/>
<path d="M35.9854 31.9314L30.4913 26.4975V26.1128L35.9921 20.679L36.1152 20.7497L42.6296 24.4111C44.4887 25.4502 44.4887 27.1601 42.6296 28.2058L36.1152 31.8607L35.9854 31.9314Z" fill="url(#paint1_linear)"/>
<path d="M36.1152 31.8605L30.4913 26.3052L13.8942 42.7016C14.5116 43.3428 15.5186 43.4201 16.6637 42.7789L36.1152 31.8605Z" fill="url(#paint2_linear)"/>
<path d="M36.1152 20.7498L16.6637 9.83147C15.5186 9.19686 14.5116 9.27413 13.8942 9.91532L30.4913 26.3052L36.1152 20.7498Z" fill="url(#paint3_linear)"/>
<defs>
<linearGradient id="paint0_linear" x1="29.0263" y1="41.1548" x2="6.95461" y2="18.8108" gradientUnits="userSpaceOnUse">
<stop stop-color="#00A0FF"/>
<stop offset="0.0066" stop-color="#00A1FF"/>
<stop offset="0.2601" stop-color="#00BEFF"/>
<stop offset="0.5122" stop-color="#00D2FF"/>
<stop offset="0.7604" stop-color="#00DFFF"/>
<stop offset="1" stop-color="#00E3FF"/>
</linearGradient>
<linearGradient id="paint1_linear" x1="45.0505" y1="26.3033" x2="12.8323" y2="26.3033" gradientUnits="userSpaceOnUse">
<stop stop-color="#FFE000"/>
<stop offset="0.4087" stop-color="#FFBD00"/>
<stop offset="0.7754" stop-color="#FFA500"/>
<stop offset="1" stop-color="#FF9C00"/>
</linearGradient>
<linearGradient id="paint2_linear" x1="33.0571" y1="23.2852" x2="3.12611" y2="-7.01521" gradientUnits="userSpaceOnUse">
<stop stop-color="#FF3A44"/>
<stop offset="1" stop-color="#C31162"/>
</linearGradient>
<linearGradient id="paint3_linear" x1="9.71632" y1="52.3788" x2="23.0818" y2="38.8484" gradientUnits="userSpaceOnUse">
<stop stop-color="#32A071"/>
<stop offset="0.0685" stop-color="#2DA771"/>
<stop offset="0.4762" stop-color="#15CF74"/>
<stop offset="0.8009" stop-color="#06E775"/>
<stop offset="1" stop-color="#00F076"/>
</linearGradient>
</defs>
</svg>
