<svg width="47" height="63" viewBox="0 0 47 63" fill="none" xmlns="http://www.w3.org/2000/svg">
<path d="M14.5416 23.2917C17.5158 23.2917 19.9166 20.8908 19.9166 17.9167C19.9166 14.9425 17.5158 12.5417 14.5416 12.5417C11.5675 12.5417 9.16662 14.9425 9.16662 17.9167C9.16662 20.8908 11.5675 23.2917 14.5416 23.2917ZM36.0416 12.5417H21.7083V25.0833H7.37496V8.95833H3.79163V35.8333H7.37496V30.4583H39.6249V35.8333H43.2083V19.7083C43.2083 15.7487 40.0012 12.5417 36.0416 12.5417Z" fill="#F97432"/>
<path d="M11.34 43.49V56H9.288V50.528H3.402V56H1.35V43.49H3.402V48.854H9.288V43.49H11.34ZM18.3434 56.162C17.4074 56.162 16.5614 55.952 15.8054 55.532C15.0494 55.1 14.4554 54.5 14.0234 53.732C13.5914 52.952 13.3754 52.052 13.3754 51.032C13.3754 50.024 13.5974 49.13 14.0414 48.35C14.4854 47.57 15.0914 46.97 15.8594 46.55C16.6274 46.13 17.4854 45.92 18.4334 45.92C19.3814 45.92 20.2394 46.13 21.0074 46.55C21.7754 46.97 22.3814 47.57 22.8254 48.35C23.2694 49.13 23.4914 50.024 23.4914 51.032C23.4914 52.04 23.2634 52.934 22.8074 53.714C22.3514 54.494 21.7274 55.1 20.9354 55.532C20.1554 55.952 19.2914 56.162 18.3434 56.162ZM18.3434 54.38C18.8714 54.38 19.3634 54.254 19.8194 54.002C20.2874 53.75 20.6654 53.372 20.9534 52.868C21.2414 52.364 21.3854 51.752 21.3854 51.032C21.3854 50.312 21.2474 49.706 20.9714 49.214C20.6954 48.71 20.3294 48.332 19.8734 48.08C19.4174 47.828 18.9254 47.702 18.3974 47.702C17.8694 47.702 17.3774 47.828 16.9214 48.08C16.4774 48.332 16.1234 48.71 15.8594 49.214C15.5954 49.706 15.4634 50.312 15.4634 51.032C15.4634 52.1 15.7334 52.928 16.2734 53.516C16.8254 54.092 17.5154 54.38 18.3434 54.38ZM27.9139 47.756V53.246C27.9139 53.618 27.9979 53.888 28.1659 54.056C28.3459 54.212 28.6459 54.29 29.0659 54.29H30.3259V56H28.7059C27.7819 56 27.0739 55.784 26.5819 55.352C26.0899 54.92 25.8439 54.218 25.8439 53.246V47.756H24.6739V46.082H25.8439V43.616H27.9139V46.082H30.3259V47.756H27.9139ZM41.3072 50.798C41.3072 51.17 41.2832 51.506 41.2352 51.806H33.6572C33.7172 52.598 34.0112 53.234 34.5392 53.714C35.0672 54.194 35.7152 54.434 36.4832 54.434C37.5872 54.434 38.3672 53.972 38.8232 53.048H41.0372C40.7372 53.96 40.1912 54.71 39.3992 55.298C38.6192 55.874 37.6472 56.162 36.4832 56.162C35.5352 56.162 34.6832 55.952 33.9272 55.532C33.1832 55.1 32.5952 54.5 32.1632 53.732C31.7432 52.952 31.5332 52.052 31.5332 51.032C31.5332 50.012 31.7372 49.118 32.1452 48.35C32.5652 47.57 33.1472 46.97 33.8912 46.55C34.6472 46.13 35.5112 45.92 36.4832 45.92C37.4192 45.92 38.2532 46.124 38.9852 46.532C39.7172 46.94 40.2872 47.516 40.6952 48.26C41.1032 48.992 41.3072 49.838 41.3072 50.798ZM39.1652 50.15C39.1532 49.394 38.8832 48.788 38.3552 48.332C37.8272 47.876 37.1732 47.648 36.3932 47.648C35.6852 47.648 35.0792 47.876 34.5752 48.332C34.0712 48.776 33.7712 49.382 33.6752 50.15H39.1652ZM45.3786 42.68V56H43.3266V42.68H45.3786Z" fill="#F97432"/>
</svg>
