<svg width="94" height="63" viewBox="0 0 94 63" fill="none" xmlns="http://www.w3.org/2000/svg">
<path d="M55.3385 3.58334H39.6543C39.2529 3.58334 37.1477 3.69979 35.1697 6.00388C33.2222 8.27034 33.1666 10.5028 33.1666 10.75V30.4583C33.1666 31.4087 33.5442 32.3201 34.2162 32.9921C34.8882 33.6641 35.7996 34.0417 36.75 34.0417H38.5416L34.9583 39.4167H39.1741L40.3691 37.625H54.7025L55.9154 39.4167H60.0416L56.4583 34.0417H58.25C59.2003 34.0417 60.1118 33.6641 60.7838 32.9921C61.4558 32.3201 61.8333 31.4087 61.8333 30.4583V10.75C61.8351 10.4132 61.776 8.18075 59.8105 5.97521C57.7393 3.64963 55.5786 3.58334 55.3385 3.58334ZM43.9166 7.16667H51.0833V10.75H43.9166V7.16667ZM39.4375 30.4583C38.7245 30.4581 38.0407 30.1746 37.5367 29.6703C37.0327 29.1659 36.7497 28.4821 36.75 27.769C36.7502 27.056 37.0337 26.3723 37.538 25.8683C38.0423 25.3643 38.7262 25.0813 39.4393 25.0815C40.1523 25.0818 40.836 25.3653 41.34 25.8696C41.844 26.3739 42.127 27.0578 42.1268 27.7708C42.1265 28.4838 41.843 29.1676 41.3387 29.6716C40.8344 30.1756 40.1505 30.4586 39.4375 30.4583ZM55.5625 30.4583C54.8495 30.4581 54.1657 30.1746 53.6617 29.6703C53.1577 29.1659 52.8747 28.4821 52.875 27.769C52.8752 27.056 53.1587 26.3723 53.663 25.8683C54.1673 25.3643 54.8512 25.0813 55.5643 25.0815C56.2773 25.0818 56.961 25.3653 57.465 25.8696C57.969 26.3739 58.252 27.0578 58.2518 27.7708C58.2515 28.4838 57.968 29.1676 57.4637 29.6716C56.9594 30.1756 56.2755 30.4586 55.5625 30.4583ZM58.25 21.5H36.75V14.3333H58.25V21.5Z" fill="#4D4D4D"/>
<path d="M8.45103 56L3.60903 50.402V56H1.55703V43.49H3.60903V49.196L8.46903 43.49H11.043L5.60703 49.754L11.133 56H8.45103ZM22.0377 50.798C22.0377 51.17 22.0137 51.506 21.9657 51.806H14.3877C14.4477 52.598 14.7417 53.234 15.2697 53.714C15.7977 54.194 16.4457 54.434 17.2137 54.434C18.3177 54.434 19.0977 53.972 19.5537 53.048H21.7677C21.4677 53.96 20.9217 54.71 20.1297 55.298C19.3497 55.874 18.3777 56.162 17.2137 56.162C16.2657 56.162 15.4137 55.952 14.6577 55.532C13.9137 55.1 13.3257 54.5 12.8937 53.732C12.4737 52.952 12.2637 52.052 12.2637 51.032C12.2637 50.012 12.4677 49.118 12.8757 48.35C13.2957 47.57 13.8777 46.97 14.6217 46.55C15.3777 46.13 16.2417 45.92 17.2137 45.92C18.1497 45.92 18.9837 46.124 19.7157 46.532C20.4477 46.94 21.0177 47.516 21.4257 48.26C21.8337 48.992 22.0377 49.838 22.0377 50.798ZM19.8957 50.15C19.8837 49.394 19.6137 48.788 19.0857 48.332C18.5577 47.876 17.9037 47.648 17.1237 47.648C16.4157 47.648 15.8097 47.876 15.3057 48.332C14.8017 48.776 14.5017 49.382 14.4057 50.15H19.8957ZM26.109 47.522C26.409 47.018 26.805 46.628 27.297 46.352C27.801 46.064 28.395 45.92 29.079 45.92V48.044H28.557C27.753 48.044 27.141 48.248 26.721 48.656C26.313 49.064 26.109 49.772 26.109 50.78V56H24.057V46.082H26.109V47.522ZM40.0552 50.798C40.0552 51.17 40.0312 51.506 39.9832 51.806H32.4052C32.4652 52.598 32.7592 53.234 33.2872 53.714C33.8152 54.194 34.4632 54.434 35.2312 54.434C36.3352 54.434 37.1152 53.972 37.5712 53.048H39.7852C39.4852 53.96 38.9392 54.71 38.1472 55.298C37.3672 55.874 36.3952 56.162 35.2312 56.162C34.2832 56.162 33.4312 55.952 32.6752 55.532C31.9312 55.1 31.3432 54.5 30.9112 53.732C30.4912 52.952 30.2812 52.052 30.2812 51.032C30.2812 50.012 30.4852 49.118 30.8932 48.35C31.3132 47.57 31.8952 46.97 32.6392 46.55C33.3952 46.13 34.2592 45.92 35.2312 45.92C36.1672 45.92 37.0012 46.124 37.7332 46.532C38.4652 46.94 39.0352 47.516 39.4432 48.26C39.8512 48.992 40.0552 49.838 40.0552 50.798ZM37.9132 50.15C37.9012 49.394 37.6312 48.788 37.1032 48.332C36.5752 47.876 35.9212 47.648 35.1412 47.648C34.4332 47.648 33.8272 47.876 33.3232 48.332C32.8192 48.776 32.5192 49.382 32.4232 50.15H37.9132ZM44.4686 47.756V53.246C44.4686 53.618 44.5526 53.888 44.7206 54.056C44.9006 54.212 45.2006 54.29 45.6206 54.29H46.8806V56H45.2606C44.3366 56 43.6286 55.784 43.1366 55.352C42.6446 54.92 42.3986 54.218 42.3986 53.246V47.756H41.2286V46.082H42.3986V43.616H44.4686V46.082H46.8806V47.756H44.4686ZM48.0879 50.996C48.0879 50 48.2919 49.118 48.6999 48.35C49.1199 47.582 49.6839 46.988 50.3919 46.568C51.1119 46.136 51.9039 45.92 52.7679 45.92C53.5479 45.92 54.2259 46.076 54.8019 46.388C55.3899 46.688 55.8579 47.066 56.2059 47.522V46.082H58.2759V56H56.2059V54.524C55.8579 54.992 55.3839 55.382 54.7839 55.694C54.1839 56.006 53.4999 56.162 52.7319 56.162C51.8799 56.162 51.0999 55.946 50.3919 55.514C49.6839 55.07 49.1199 54.458 48.6999 53.678C48.2919 52.886 48.0879 51.992 48.0879 50.996ZM56.2059 51.032C56.2059 50.348 56.0619 49.754 55.7739 49.25C55.4979 48.746 55.1319 48.362 54.6759 48.098C54.2199 47.834 53.7279 47.702 53.1999 47.702C52.6719 47.702 52.1799 47.834 51.7239 48.098C51.2679 48.35 50.8959 48.728 50.6079 49.232C50.3319 49.724 50.1939 50.312 50.1939 50.996C50.1939 51.68 50.3319 52.28 50.6079 52.796C50.8959 53.312 51.2679 53.708 51.7239 53.984C52.1919 54.248 52.6839 54.38 53.1999 54.38C53.7279 54.38 54.2199 54.248 54.6759 53.984C55.1319 53.72 55.4979 53.336 55.7739 52.832C56.0619 52.316 56.2059 51.716 56.2059 51.032ZM73.1889 53.444H67.9509L67.0509 56H64.9089L69.3909 43.472H71.7669L76.2489 56H74.0889L73.1889 53.444ZM72.6129 51.77L70.5789 45.956L68.5269 51.77H72.6129ZM80.2497 47.54C80.5977 47.084 81.0717 46.7 81.6717 46.388C82.2717 46.076 82.9497 45.92 83.7057 45.92C84.5697 45.92 85.3557 46.136 86.0637 46.568C86.7837 46.988 87.3477 47.582 87.7557 48.35C88.1637 49.118 88.3677 50 88.3677 50.996C88.3677 51.992 88.1637 52.886 87.7557 53.678C87.3477 54.458 86.7837 55.07 86.0637 55.514C85.3557 55.946 84.5697 56.162 83.7057 56.162C82.9497 56.162 82.2777 56.012 81.6897 55.712C81.1017 55.4 80.6217 55.016 80.2497 54.56V60.716H78.1977V46.082H80.2497V47.54ZM86.2797 50.996C86.2797 50.312 86.1357 49.724 85.8477 49.232C85.5717 48.728 85.1997 48.35 84.7317 48.098C84.2757 47.834 83.7837 47.702 83.2557 47.702C82.7397 47.702 82.2477 47.834 81.7797 48.098C81.3237 48.362 80.9517 48.746 80.6637 49.25C80.3877 49.754 80.2497 50.348 80.2497 51.032C80.2497 51.716 80.3877 52.316 80.6637 52.832C80.9517 53.336 81.3237 53.72 81.7797 53.984C82.2477 54.248 82.7397 54.38 83.2557 54.38C83.7837 54.38 84.2757 54.248 84.7317 53.984C85.1997 53.708 85.5717 53.312 85.8477 52.796C86.1357 52.28 86.2797 51.68 86.2797 50.996ZM91.4409 44.768C91.0689 44.768 90.7569 44.642 90.5049 44.39C90.2529 44.138 90.1269 43.826 90.1269 43.454C90.1269 43.082 90.2529 42.77 90.5049 42.518C90.7569 42.266 91.0689 42.14 91.4409 42.14C91.8009 42.14 92.1069 42.266 92.3589 42.518C92.6109 42.77 92.7369 43.082 92.7369 43.454C92.7369 43.826 92.6109 44.138 92.3589 44.39C92.1069 44.642 91.8009 44.768 91.4409 44.768ZM92.4489 46.082V56H90.3969V46.082H92.4489Z" fill="#4D4D4D"/>
</svg>
