<svg width="109" height="109" viewBox="0 0 109 109" fill="none" xmlns="http://www.w3.org/2000/svg">
<g filter="url(#filter0_d)">
<path d="M54.5 102.257C82.1142 102.257 104.5 79.8713 104.5 52.2571C104.5 24.6428 82.1142 2.25708 54.5 2.25708C26.8858 2.25708 4.5 24.6428 4.5 52.2571C4.5 79.8713 26.8858 102.257 54.5 102.257Z" fill="black"/>
</g>
<path d="M54.5 102.257C82.1142 102.257 104.5 79.8713 104.5 52.2571C104.5 24.6428 82.1142 2.25708 54.5 2.25708C26.8858 2.25708 4.5 24.6428 4.5 52.2571C4.5 79.8713 26.8858 102.257 54.5 102.257Z" fill="white"/>
<mask id="mask0" mask-type="alpha" maskUnits="userSpaceOnUse" x="29" y="24" width="50" height="58">
<path d="M29.5 24.5227H78.2094V81.3509H29.5V24.5227Z" fill="white"/>
</mask>
<g mask="url(#mask0)">
<path fill-rule="evenodd" clip-rule="evenodd" d="M72.8586 38.4758L70.5461 38.8695C71.0899 39.5039 71.468 39.9383 71.9118 40.4633C72.2524 39.7539 72.5055 39.2289 72.8586 38.4758ZM62.3367 38.3914C62.5086 36.4601 62.5086 36.4601 64.5086 36.5539C64.0774 35.4851 63.3461 34.8851 62.5336 35.2601C61.9836 35.5164 61.4492 36.2007 61.2774 36.8132C61.068 37.5382 61.4711 38.2039 62.3399 38.3914H62.3367ZM31.7523 63.2289C32.5867 63.6664 33.3242 64.1039 34.0961 64.4539C37.7398 66.107 41.5523 66.8445 45.5242 66.5258C47.097 66.3934 48.6646 66.2058 50.2242 65.9633C50.4961 65.9195 50.7148 65.5695 50.9555 65.3633C50.6867 65.0726 50.4305 64.5508 50.1492 64.5351C47.643 64.3758 45.1148 64.4945 42.6336 64.182C38.3367 63.6414 34.2554 62.3633 31.0929 59.0539C29.4054 57.2758 29.1054 55.1445 29.9679 52.8508C30.1429 52.3883 30.5273 52.007 30.8586 51.5226C35.9836 58.1101 42.9055 61.1101 50.4523 62.957C50.968 61.8383 50.8805 61.6258 49.8711 61.257C44.4742 59.2726 39.5992 56.4133 35.5086 52.2258C33.4554 50.1258 31.8679 47.6758 30.9711 44.832C30.2992 42.6758 30.6898 39.6101 32.5304 38.207C33.0992 37.7695 33.8211 37.5351 34.3211 37.2882C35.1461 39.6851 35.7836 41.9133 36.6711 44.0289C38.9836 49.5133 42.7086 53.857 47.2836 57.4539C48.2898 58.2445 49.3305 58.982 50.4023 59.682C50.643 59.8476 51.0398 59.7664 51.3648 59.7976C51.2492 59.3789 51.2648 58.8226 51.0023 58.5539C48.7773 56.3039 46.4148 54.1851 44.2617 51.8601C41.6492 49.0289 39.918 45.5976 38.6273 41.9383C37.4711 38.657 36.6773 35.3007 36.9586 31.7726C37.1242 29.7507 37.4898 27.7632 38.7929 26.1445C40.143 24.482 42.1148 24.0789 44.1898 25.0226C43.2586 28.2726 43.2367 31.6382 43.3398 34.9976C43.568 42.3133 45.7398 48.9383 50.1555 54.7226C50.7023 55.4414 51.4211 56.0226 52.0211 56.707C52.4805 57.2383 52.793 57.1758 53.2774 56.6914C56.293 53.707 60.4711 52.9695 64.0993 55.0195C66.9743 56.6508 68.6305 59.2258 68.7836 62.7539C68.9399 66.2133 67.6024 68.8976 64.9493 70.8383C63.9524 71.5695 62.6367 71.8445 61.4836 72.3476C60.9555 72.5758 59.9149 72.3351 60.4086 73.6758C62.7524 73.6351 64.8711 72.8758 66.643 71.2445C70.4243 67.7633 71.1336 62.8258 69.1274 58.4414C67.1524 54.1164 62.8586 52.0601 58.5055 52.6133C56.5483 52.8482 54.7037 53.6547 53.2024 54.932C52.6461 55.4008 52.3555 55.2976 51.9492 54.782C49.2742 51.3383 47.3242 47.5351 46.4648 43.1758C46.4148 42.9383 46.3398 42.7008 46.2773 42.4664C45.7711 40.5601 45.7961 40.4945 47.5773 39.7539C46.6836 38.5976 46.1586 37.332 46.5305 35.7976L51.3117 35.1507L51.1336 34.332C50.8586 32.9445 51.2648 32.5132 52.593 32.482C54.4055 32.4382 56.2274 32.2757 58.118 32.157C58.1711 31.9164 58.2117 31.6007 58.318 31.3164C58.6524 30.4476 59.1617 30.2789 59.9992 30.6382C60.943 31.0445 61.9242 31.3632 62.8742 31.7476C63.6336 32.0476 64.3742 32.3757 65.2336 32.7414C65.3399 32.6164 65.5274 32.2226 65.7961 32.1507C66.2836 32.0226 67.193 31.8851 67.2961 32.0945C68.2961 34.0226 70.1399 34.8039 71.8055 35.8195C72.1305 36.0164 72.518 36.1414 72.7836 36.4039C73.0243 36.6539 73.3461 37.0914 73.2836 37.3539C72.9836 38.5945 73.8618 38.8414 74.6118 39.0601C75.4649 39.3101 76.368 39.4132 77.2586 39.4789C78.0836 39.5383 78.3493 39.857 78.1461 40.7039C77.993 41.3383 78.0774 42.0476 77.868 42.6539C77.5649 43.5101 77.093 44.3008 76.693 45.132C76.0461 44.4664 75.6711 43.807 75.1305 43.5789C73.6586 42.9508 71.9024 44.3445 71.668 46.2101C71.3774 48.4789 72.7836 49.5414 74.8961 48.6476C74.9836 48.6133 75.0899 48.6445 75.1836 48.6445C75.443 51.3008 74.2743 52.1883 71.4774 51.4883C70.6243 52.9914 71.2899 55.4445 72.8399 56.4976C73.0961 56.6758 73.3805 56.8101 73.6211 57.0008C74.3399 57.5726 74.3399 58.007 73.668 58.632C72.668 59.5695 72.6086 60.3164 73.4649 61.4226C74.5305 62.8039 74.5024 62.9195 73.1524 63.8226C72.9086 63.9789 72.8118 64.3976 72.718 64.7195C71.868 67.557 70.5524 70.0758 68.1618 71.8508C65.993 73.4695 63.4524 74.057 60.868 74.4695C60.7336 74.4945 60.5961 74.507 60.493 74.5258C60.493 75.682 60.5117 76.807 60.4836 77.9289C60.4714 78.3927 60.342 78.8459 60.1073 79.2461C59.8727 79.6463 59.5405 79.9806 59.1417 80.2178C58.7429 80.4549 58.2906 80.5872 57.8269 80.6022C57.3632 80.6173 56.9032 80.5147 56.4899 80.3039C58.443 78.0477 58.5211 75.3102 58.4524 72.4914C57.568 72.1383 57.2586 72.4164 57.1617 73.332C56.8992 75.7039 56.3711 78.0008 54.8774 79.9258C53.5961 81.5695 51.3242 81.8508 49.9523 80.4539L50.8836 79.8789C53.6086 78.1414 55.0399 75.4477 56.0399 72.4508C56.118 72.2195 55.8617 71.8695 55.768 71.5758C55.4805 71.732 55.0867 71.8039 54.918 72.0476C53.7211 73.8476 52.7024 75.807 51.343 77.4727C50.018 79.0945 48.243 80.1008 46.0305 80.032C44.7648 79.982 44.0586 79.2508 43.4836 78.3227C44.9523 77.7414 46.3992 77.3133 47.718 76.6164C50.1773 75.3133 52.0961 73.332 53.743 71.0633C54.1367 70.5133 54.0867 70.4383 53.2055 69.8008C51.8836 71.0195 50.6117 72.3008 49.2273 73.4383C47.0336 75.232 44.6086 76.557 41.7055 76.3758C40.2555 76.2883 38.6742 76.2508 37.7586 74.7695C37.3898 74.1726 37.2179 73.4414 36.9023 72.6445C38.2586 72.7226 39.3711 72.832 40.4836 72.8476C44.268 72.882 47.6398 71.5039 50.8523 69.607C51.093 69.4633 51.3773 69.3601 51.5336 69.1539C51.7648 68.8508 52.0898 68.4351 52.0336 68.132C51.9148 67.4445 51.3617 67.4758 50.8242 67.6883C49.2617 68.3101 47.7242 69.032 46.1242 69.532C42.4586 70.6789 38.7648 71.1789 35.0179 69.782C32.5023 68.8351 31.0742 66.1476 31.7554 63.2258" fill="#E82226"/>
</g>
<defs>
<filter id="filter0_d" x="0.5" y="0.25708" width="108" height="108" filterUnits="userSpaceOnUse" color-interpolation-filters="sRGB">
<feFlood flood-opacity="0" result="BackgroundImageFix"/>
<feColorMatrix in="SourceAlpha" type="matrix" values="0 0 0 0 0 0 0 0 0 0 0 0 0 0 0 0 0 0 127 0"/>
<feOffset dy="2"/>
<feGaussianBlur stdDeviation="2"/>
<feColorMatrix type="matrix" values="0 0 0 0 0 0 0 0 0 0 0 0 0 0 0 0 0 0 0.1 0"/>
<feBlend mode="normal" in2="BackgroundImageFix" result="effect1_dropShadow"/>
<feBlend mode="normal" in="SourceGraphic" in2="effect1_dropShadow" result="shape"/>
</filter>
</defs>
</svg>
