<svg width="109" height="109" viewBox="0 0 109 109" fill="none" xmlns="http://www.w3.org/2000/svg">
<g filter="url(#filter0_d)">
<path d="M54.5 102.257C82.1142 102.257 104.5 79.8713 104.5 52.2571C104.5 24.6428 82.1142 2.25708 54.5 2.25708C26.8858 2.25708 4.5 24.6428 4.5 52.2571C4.5 79.8713 26.8858 102.257 54.5 102.257Z" fill="black"/>
</g>
<path d="M54.5 102.257C82.1142 102.257 104.5 79.8713 104.5 52.2571C104.5 24.6428 82.1142 2.25708 54.5 2.25708C26.8858 2.25708 4.5 24.6428 4.5 52.2571C4.5 79.8713 26.8858 102.257 54.5 102.257Z" fill="white"/>
<path fill-rule="evenodd" clip-rule="evenodd" d="M74.9656 57.6163L56.3406 76.607H73.4281L78.3968 57.6163H74.9656Z" fill="#0B0B49"/>
<mask id="mask0" mask-type="alpha" maskUnits="userSpaceOnUse" x="23" y="31" width="62" height="46">
<path d="M23.25 31.3633H84.8625V76.6039H23.25V31.3633Z" fill="white"/>
</mask>
<g mask="url(#mask0)">
<path fill-rule="evenodd" clip-rule="evenodd" d="M84.0844 31.3821H70.1031C70.1031 31.3821 69.3438 31.1852 68.4813 32.1509L23.25 76.6071H57.8438C71.6875 68.5321 76.9844 60.7259 77.9438 59.1759L84.8063 32.0102C84.8063 32.0102 85.1562 31.3821 84.0875 31.3821" fill="#FA131E"/>
</g>
<path fill-rule="evenodd" clip-rule="evenodd" d="M69.7875 47.1415C70.0313 48.0915 70.2781 49.0353 70.5125 49.9853C70.8563 51.3478 71.1906 52.7072 71.5188 54.0697C71.5249 54.1032 71.5224 54.1377 71.5115 54.17C71.5005 54.2022 71.4815 54.2312 71.4563 54.254C70.9844 54.6915 70.5094 55.129 70.025 55.554C69.7594 55.7853 69.6125 55.7759 69.3781 55.5259C68.7844 54.8822 68.2 54.2322 67.5969 53.5915C67.0031 52.954 66.3906 52.329 65.7813 51.6947C65.7438 51.6603 65.6906 51.6259 65.65 51.5884C65.6247 51.5935 65.5997 51.5998 65.575 51.6072C65.6 51.7072 65.6063 51.8103 65.6563 51.9009C66.4844 53.5384 67.3156 55.1728 68.1563 56.8103C68.2375 56.9728 68.2281 57.079 68.0719 57.2165C67.5938 57.6228 67.1406 58.0447 66.6813 58.4634C66.6344 58.5009 66.6094 58.5509 66.5719 58.5947L66.4969 58.5634C66.3531 58.2822 66.2156 57.9915 66.0719 57.7103C64.8406 55.2103 63.6094 52.7072 62.3719 50.204C62.2594 49.9853 62.3094 49.8197 62.5188 49.6322C63.2469 48.9915 63.95 48.3322 64.6625 47.6822C64.7354 47.6151 64.8104 47.5505 64.8875 47.4884C65.0469 47.3634 65.075 47.3697 65.2063 47.5072C65.7188 48.0665 66.2344 48.6197 66.7438 49.1822L68.3844 50.9853C68.5094 51.1197 68.6563 51.2415 68.7906 51.3665L68.8469 51.3415L68.5906 50.2665C68.2219 48.7197 67.8594 47.1759 67.4719 45.6353C67.4094 45.3728 67.4625 45.1853 67.6906 44.979C68.4719 44.2947 69.2156 43.5978 69.9781 42.9072C70.1844 42.7197 70.375 42.7572 70.4969 43.0009C70.8813 43.7353 71.2406 44.4728 71.6469 45.204C72.7219 47.1509 73.8156 49.0884 74.9063 51.0322C74.9781 51.154 74.9688 51.2509 74.8563 51.3509L73.2875 52.754C73.1688 52.8634 73.025 52.8478 72.9406 52.7072C72.8469 52.5634 72.7844 52.404 72.7063 52.2509L70.1219 47.4853C70.05 47.3603 69.9531 47.2447 69.8688 47.1228L69.7875 47.1415ZM49.6844 66.3322C49.7719 66.529 49.8594 66.729 49.9563 66.9197C50.6906 68.3728 51.425 69.8259 52.1719 71.2728C52.2656 71.4603 52.2563 71.6384 52.0875 71.7915C51.6156 72.2197 51.1344 72.6478 50.6563 73.0728C50.5938 73.1259 50.5063 73.1634 50.4031 73.2228C50.3219 73.0259 50.2625 72.8478 50.1844 72.6759C49.6531 71.5603 49.1344 70.4447 48.5781 69.3322C47.8438 67.8728 47.0844 66.4072 46.3219 64.9447C46.2063 64.7259 46.2281 64.5603 46.45 64.3728C46.7906 64.0915 47.075 63.7853 47.3906 63.4947C47.5156 63.3728 47.6719 63.2665 47.8219 63.1634C48.4719 62.7103 49.4094 62.7728 49.9844 63.104C50.7031 63.5228 51.3844 63.979 52.0594 64.4322C52.5094 64.7384 52.9219 65.079 53.3594 65.3947C53.4656 65.4728 53.5938 65.5322 53.7125 65.604C53.7313 65.5884 53.75 65.579 53.7719 65.5665C53.7594 65.5322 53.7563 65.4947 53.7344 65.4572C52.8844 63.8322 52.05 62.1978 51.1656 60.5822C51 60.2853 51.0563 60.1103 51.3094 59.8884C51.7625 59.4853 52.1844 59.0665 52.6219 58.654C52.675 58.6072 52.7563 58.5697 52.825 58.529C52.8875 58.5853 52.9719 58.6322 53 58.6947C53.6531 60.004 54.2844 61.3228 54.9469 62.6322C55.6656 64.0478 56.3969 65.4603 57.1313 66.8728C57.2344 67.0728 57.2031 67.2165 57.0063 67.3853C56.4438 67.8728 55.9156 68.3759 55.3688 68.8697C55.2306 68.9913 55.09 69.1101 54.9469 69.2259C54.8344 69.3197 54.7094 69.3322 54.5781 69.2384C53.5781 68.5072 52.4344 67.9009 51.3438 67.254C50.8781 66.979 50.425 66.6822 49.9625 66.3978C49.8969 66.3572 49.8063 66.3322 49.7313 66.2947L49.6844 66.3322ZM60.4531 57.8103L58.6719 56.2165C58.653 56.2224 58.6343 56.2287 58.6156 56.2353L58.8969 59.0165C59.4438 58.5978 59.9406 58.2072 60.4531 57.8103ZM66.1438 59.0228C65.3844 59.6759 64.6375 60.3259 63.8625 60.9853L61.8313 59.2634L61.0375 59.9447C60.5188 60.3947 60.0063 60.8447 59.475 61.2884C59.375 61.3822 59.35 61.4697 59.3688 61.5759C59.5344 62.5509 59.6938 63.5228 59.8438 64.4978C59.8499 64.5291 59.8476 64.5615 59.8372 64.5917C59.8268 64.6219 59.8085 64.6488 59.7844 64.6697L57.6688 66.5759C57.6469 66.5915 57.6219 66.5978 57.5688 66.6259C57.55 66.4697 57.525 66.3322 57.5063 66.1947C57.3777 64.8338 57.2444 63.4733 57.1063 62.1134L56.7344 58.4697C56.6281 57.3915 56.5188 56.3134 56.4219 55.2384C56.4207 55.1961 56.4287 55.1541 56.4455 55.1152C56.4622 55.0763 56.4872 55.0416 56.5188 55.0134C57.1844 54.4134 57.8563 53.8197 58.5313 53.2228C58.775 53.0103 58.9375 53.0134 59.1938 53.2228C60.8438 54.604 62.5 55.9822 64.1531 57.3603L66.0219 58.9072L66.1469 59.0228" fill="white"/>
<defs>
<filter id="filter0_d" x="0.5" y="0.25708" width="108" height="108" filterUnits="userSpaceOnUse" color-interpolation-filters="sRGB">
<feFlood flood-opacity="0" result="BackgroundImageFix"/>
<feColorMatrix in="SourceAlpha" type="matrix" values="0 0 0 0 0 0 0 0 0 0 0 0 0 0 0 0 0 0 127 0"/>
<feOffset dy="2"/>
<feGaussianBlur stdDeviation="2"/>
<feColorMatrix type="matrix" values="0 0 0 0 0 0 0 0 0 0 0 0 0 0 0 0 0 0 0.1 0"/>
<feBlend mode="normal" in2="BackgroundImageFix" result="effect1_dropShadow"/>
<feBlend mode="normal" in="SourceGraphic" in2="effect1_dropShadow" result="shape"/>
</filter>
</defs>
</svg>
