<svg width="78" height="63" viewBox="0 0 78 63" fill="none" xmlns="http://www.w3.org/2000/svg">
<path d="M24.1168 24.6856L21.5834 27.219L30.4503 31.0191L34.2522 39.8879L36.7857 37.3545L35.519 31.0191L41.4548 25.0833L47.9227 38.8863L50.3217 36.4873L48.1896 18.3502L53.2565 13.2816C53.5987 12.9511 53.8717 12.5557 54.0595 12.1185C54.2473 11.6813 54.3461 11.2111 54.3503 10.7353C54.3544 10.2595 54.2637 9.78767 54.0836 9.34729C53.9034 8.90691 53.6373 8.50683 53.3009 8.17038C52.9644 7.83393 52.5643 7.56785 52.124 7.38768C51.6836 7.20751 51.2117 7.11684 50.7359 7.12098C50.2601 7.12511 49.7899 7.22396 49.3528 7.41176C48.9156 7.59956 48.5202 7.87255 48.1896 8.21479L42.9884 13.416L24.8514 11.2821L22.5849 13.5504L36.2804 20.1258L30.4521 25.9541L24.1168 24.6856Z" fill="#4D4D4D"/>
<path d="M10.4085 47.216C10.4085 47.852 10.2585 48.452 9.95855 49.016C9.65855 49.58 9.17855 50.042 8.51855 50.402C7.85855 50.75 7.01255 50.924 5.98055 50.924H3.71255V56H1.66055V43.49H5.98055C6.94055 43.49 7.75055 43.658 8.41055 43.994C9.08255 44.318 9.58055 44.762 9.90455 45.326C10.2405 45.89 10.4085 46.52 10.4085 47.216ZM5.98055 49.25C6.76055 49.25 7.34255 49.076 7.72655 48.728C8.11055 48.368 8.30255 47.864 8.30255 47.216C8.30255 45.848 7.52855 45.164 5.98055 45.164H3.71255V49.25H5.98055ZM21.4556 50.798C21.4556 51.17 21.4316 51.506 21.3836 51.806H13.8056C13.8656 52.598 14.1596 53.234 14.6876 53.714C15.2156 54.194 15.8636 54.434 16.6316 54.434C17.7356 54.434 18.5156 53.972 18.9716 53.048H21.1856C20.8856 53.96 20.3396 54.71 19.5476 55.298C18.7676 55.874 17.7956 56.162 16.6316 56.162C15.6836 56.162 14.8316 55.952 14.0756 55.532C13.3316 55.1 12.7436 54.5 12.3116 53.732C11.8916 52.952 11.6816 52.052 11.6816 51.032C11.6816 50.012 11.8856 49.118 12.2936 48.35C12.7136 47.57 13.2956 46.97 14.0396 46.55C14.7956 46.13 15.6596 45.92 16.6316 45.92C17.5676 45.92 18.4016 46.124 19.1336 46.532C19.8656 46.94 20.4356 47.516 20.8436 48.26C21.2516 48.992 21.4556 49.838 21.4556 50.798ZM19.3136 50.15C19.3016 49.394 19.0316 48.788 18.5036 48.332C17.9756 47.876 17.3216 47.648 16.5416 47.648C15.8336 47.648 15.2276 47.876 14.7236 48.332C14.2196 48.776 13.9196 49.382 13.8236 50.15H19.3136ZM27.075 56.162C26.295 56.162 25.593 56.024 24.969 55.748C24.357 55.46 23.871 55.076 23.511 54.596C23.151 54.104 22.959 53.558 22.935 52.958H25.059C25.095 53.378 25.293 53.732 25.653 54.02C26.025 54.296 26.487 54.434 27.039 54.434C27.615 54.434 28.059 54.326 28.371 54.11C28.695 53.882 28.857 53.594 28.857 53.246C28.857 52.874 28.677 52.598 28.317 52.418C27.969 52.238 27.411 52.04 26.643 51.824C25.899 51.62 25.293 51.422 24.825 51.23C24.357 51.038 23.949 50.744 23.601 50.348C23.265 49.952 23.097 49.43 23.097 48.782C23.097 48.254 23.253 47.774 23.565 47.342C23.877 46.898 24.321 46.55 24.897 46.298C25.485 46.046 26.157 45.92 26.913 45.92C28.041 45.92 28.947 46.208 29.631 46.784C30.327 47.348 30.699 48.122 30.747 49.106H28.695C28.659 48.662 28.479 48.308 28.155 48.044C27.831 47.78 27.393 47.648 26.841 47.648C26.301 47.648 25.887 47.75 25.599 47.954C25.311 48.158 25.167 48.428 25.167 48.764C25.167 49.028 25.263 49.25 25.455 49.43C25.647 49.61 25.881 49.754 26.157 49.862C26.433 49.958 26.841 50.084 27.381 50.24C28.101 50.432 28.689 50.63 29.145 50.834C29.613 51.026 30.015 51.314 30.351 51.698C30.687 52.082 30.861 52.592 30.873 53.228C30.873 53.792 30.717 54.296 30.405 54.74C30.093 55.184 29.649 55.532 29.073 55.784C28.509 56.036 27.843 56.162 27.075 56.162ZM32.4062 50.996C32.4062 50 32.6102 49.118 33.0182 48.35C33.4382 47.582 34.0022 46.988 34.7102 46.568C35.4302 46.136 36.2222 45.92 37.0862 45.92C37.8662 45.92 38.5442 46.076 39.1202 46.388C39.7082 46.688 40.1762 47.066 40.5242 47.522V46.082H42.5942V56H40.5242V54.524C40.1762 54.992 39.7022 55.382 39.1022 55.694C38.5022 56.006 37.8182 56.162 37.0502 56.162C36.1982 56.162 35.4182 55.946 34.7102 55.514C34.0022 55.07 33.4382 54.458 33.0182 53.678C32.6102 52.886 32.4062 51.992 32.4062 50.996ZM40.5242 51.032C40.5242 50.348 40.3802 49.754 40.0922 49.25C39.8162 48.746 39.4502 48.362 38.9942 48.098C38.5382 47.834 38.0462 47.702 37.5182 47.702C36.9902 47.702 36.4982 47.834 36.0422 48.098C35.5862 48.35 35.2142 48.728 34.9262 49.232C34.6502 49.724 34.5122 50.312 34.5122 50.996C34.5122 51.68 34.6502 52.28 34.9262 52.796C35.2142 53.312 35.5862 53.708 36.0422 53.984C36.5102 54.248 37.0022 54.38 37.5182 54.38C38.0462 54.38 38.5382 54.248 38.9942 53.984C39.4502 53.72 39.8162 53.336 40.0922 52.832C40.3802 52.316 40.5242 51.716 40.5242 51.032ZM58.6095 46.082L55.5315 56H53.3715L51.3735 48.674L49.3755 56H47.2155L44.1195 46.082H46.2075L48.2775 54.056L50.3835 46.082H52.5255L54.5415 54.02L56.5935 46.082H58.6095ZM59.459 50.996C59.459 50 59.663 49.118 60.071 48.35C60.491 47.582 61.055 46.988 61.763 46.568C62.483 46.136 63.275 45.92 64.139 45.92C64.919 45.92 65.597 46.076 66.173 46.388C66.761 46.688 67.229 47.066 67.577 47.522V46.082H69.647V56H67.577V54.524C67.229 54.992 66.755 55.382 66.155 55.694C65.555 56.006 64.871 56.162 64.103 56.162C63.251 56.162 62.471 55.946 61.763 55.514C61.055 55.07 60.491 54.458 60.071 53.678C59.663 52.886 59.459 51.992 59.459 50.996ZM67.577 51.032C67.577 50.348 67.433 49.754 67.145 49.25C66.869 48.746 66.503 48.362 66.047 48.098C65.591 47.834 65.099 47.702 64.571 47.702C64.043 47.702 63.551 47.834 63.095 48.098C62.639 48.35 62.267 48.728 61.979 49.232C61.703 49.724 61.565 50.312 61.565 50.996C61.565 51.68 61.703 52.28 61.979 52.796C62.267 53.312 62.639 53.708 63.095 53.984C63.563 54.248 64.055 54.38 64.571 54.38C65.099 54.38 65.591 54.248 66.047 53.984C66.503 53.72 66.869 53.336 67.145 52.832C67.433 52.316 67.577 51.716 67.577 51.032ZM74.7362 47.756V53.246C74.7362 53.618 74.8202 53.888 74.9882 54.056C75.1682 54.212 75.4682 54.29 75.8882 54.29H77.1482V56H75.5282C74.6042 56 73.8962 55.784 73.4042 55.352C72.9122 54.92 72.6662 54.218 72.6662 53.246V47.756H71.4962V46.082H72.6662V43.616H74.7362V46.082H77.1482V47.756H74.7362Z" fill="#4D4D4D"/>
</svg>
