<svg width="109" height="109" viewBox="0 0 109 109" fill="none" xmlns="http://www.w3.org/2000/svg">
<g filter="url(#filter0_d)">
<path d="M54.5 102.257C82.1142 102.257 104.5 79.8713 104.5 52.2571C104.5 24.6428 82.1142 2.25708 54.5 2.25708C26.8858 2.25708 4.5 24.6428 4.5 52.2571C4.5 79.8713 26.8858 102.257 54.5 102.257Z" fill="black"/>
</g>
<path d="M54.5 102.257C82.1142 102.257 104.5 79.8713 104.5 52.2571C104.5 24.6428 82.1142 2.25708 54.5 2.25708C26.8858 2.25708 4.5 24.6428 4.5 52.2571C4.5 79.8713 26.8858 102.257 54.5 102.257Z" fill="white"/>
<mask id="mask0" mask-type="alpha" maskUnits="userSpaceOnUse" x="23" y="27" width="62" height="53">
<path d="M23.25 27.7789H84.9656V79.5602H23.25V27.7789Z" fill="white"/>
</mask>
<g mask="url(#mask0)">
<path fill-rule="evenodd" clip-rule="evenodd" d="M63.15 41.2696C61.6063 42.7071 60.1719 44.0821 58.6969 45.404C58.5344 45.5478 58.1125 45.554 57.9313 45.429C57.3188 45.0228 56.7594 44.5196 56.1875 44.0509C55.8907 43.8009 55.8657 43.5509 56.1625 43.2696C57.3188 42.1603 58.4719 41.0321 59.6438 39.9259C59.7375 39.8353 59.9719 39.7915 60.0875 39.8478C61.075 40.2853 62.0407 40.7446 63.15 41.2696ZM61.9469 49.8946C61.15 50.5696 60.4532 51.1446 59.7719 51.7509C59.3188 52.1571 58.8782 52.5946 58.4407 53.0134C57.8219 53.5978 57.5782 53.6134 56.9282 53.0915C56.5438 52.779 56.1719 52.4571 55.8032 52.1321C55.5469 51.904 55.5469 51.6728 55.7844 51.429C56.8782 50.3353 57.9719 49.2259 59.075 48.1415C59.175 48.0478 59.3875 47.979 59.4688 48.0321C60.2719 48.6071 61.0469 49.2103 61.9469 49.8946ZM56.7844 54.6446L56.6094 54.9321C56.0094 55.7821 55.4157 56.6353 54.8094 57.4821C54.2875 58.1946 54.1469 58.2009 53.55 57.5665C52.9469 56.9196 52.3719 56.2509 51.7688 55.5978C51.5219 55.3353 51.5625 55.179 51.8188 54.9384C52.5657 54.2478 53.2907 53.5384 54.0032 52.8196C54.2782 52.5415 54.4688 52.5415 54.7594 52.8071C55.3219 53.3228 55.9219 53.7946 56.5188 54.2665C56.6407 54.3603 56.8094 54.3821 56.9532 54.4384C56.8936 54.5044 56.8373 54.5732 56.7844 54.6446ZM50.3125 53.3478C50.225 53.4103 50.1094 53.4384 49.9688 53.4915C49.85 53.4384 49.7 53.3884 49.5875 53.304C48.7688 52.6478 47.9657 51.979 47.1375 51.3196C46.85 51.0821 46.8563 50.8946 47.1594 50.6821C48.0469 50.0696 48.9344 49.4415 49.8375 48.8478C49.9625 48.7634 50.2532 48.7821 50.3688 48.8759C51.1063 49.4821 51.8157 50.1165 52.5282 50.7571C52.7469 50.9603 52.8907 51.1915 52.5938 51.4446C51.8438 52.0821 51.0782 52.7165 50.3125 53.3478ZM45.8594 42.7134C45.7969 42.6509 45.7469 42.5665 45.6563 42.4259C46.5282 41.979 47.3344 41.5821 48.1407 41.1634C48.5563 40.9478 48.9375 40.6446 49.3719 40.4634C49.5844 40.3728 49.9563 40.354 50.1157 40.4884C51.0282 41.2071 51.9032 41.9853 52.7719 42.7571C53.2813 43.2134 53.2782 43.2915 52.7719 43.7259C51.9344 44.4446 51.0844 45.154 50.2407 45.8728C49.8407 46.2071 49.4344 46.2978 49.0282 45.8853C47.9657 44.8353 46.9188 43.7759 45.8594 42.7134ZM55.4688 44.979C56.0032 45.4446 56.5407 45.8853 57.0875 46.3353C57.3375 46.5321 57.3844 46.7134 57.1407 46.9446C56.1657 47.8665 55.1969 48.7915 54.2188 49.6946C53.8188 50.0634 53.4344 50.004 53.0219 49.6165C52.4469 49.0634 51.8094 48.5915 51.1219 48.0228C51.7094 47.5009 52.2219 47.054 52.7344 46.604C53.3157 46.0821 53.9094 45.5665 54.4719 45.029C54.8032 44.7165 55.1094 44.6759 55.4688 44.979ZM51.2188 39.1978C52.2813 38.3915 53.3313 37.5665 54.4063 36.7696C54.5125 36.6821 54.7563 36.6478 54.8657 36.7103C55.8032 37.2571 56.7188 37.8353 57.6438 38.3978C57.7313 38.4571 57.7813 38.5759 57.9188 38.7478C56.7907 39.8665 55.7188 40.9603 54.5938 41.9978C54.4438 42.1415 53.9438 42.1009 53.7563 41.9509C52.8844 41.2696 52.0688 40.5134 51.225 39.7946C50.975 39.5759 50.9438 39.4103 51.2188 39.2009V39.1978ZM50.5969 32.3696C51.0907 32.0759 51.4188 31.8634 51.7594 31.6915C52.6813 31.2134 53.6094 30.7509 54.55 30.2853C54.6907 30.2228 54.9 30.154 55.0219 30.2165C55.8032 30.6228 56.575 31.054 57.4313 31.529C57.1938 31.7634 57.0594 31.9196 56.9063 32.0478C56.0563 32.7165 55.2157 33.404 54.3438 34.0478C54.1438 34.2009 53.7625 34.3509 53.5938 34.2478C52.6188 33.6946 51.6813 33.0603 50.5969 32.3728V32.3696ZM71.9407 37.9259C72.4657 37.9353 72.8063 38.1884 72.9313 38.6946C73.0875 39.2415 72.7969 39.6196 72.3532 39.829C70.6844 40.604 68.9063 40.6446 67.1125 40.6009C67.0688 40.5978 67.0313 40.5321 66.8969 40.4321C68.5157 39.3696 69.8657 37.8946 71.9407 37.9259ZM65.0563 50.2415C65.9844 49.5946 66.9938 49.1571 68.125 49.0696C68.7313 49.0259 69.3563 49.4884 69.4 50.004C69.4188 50.2259 69.3094 50.6415 69.1594 50.6978C68.6852 50.896 68.1766 50.999 67.6625 51.0009C67.0438 50.9759 66.4125 50.7821 65.7875 50.6415C65.5375 50.5946 65.3032 50.4915 65.0532 50.4165L65.0563 50.2415ZM40.1782 51.1978C39.7813 50.9478 39.5657 50.6009 39.6782 50.1228C39.7969 49.6353 40.1782 49.4821 40.6407 49.4821C41.4844 49.4884 42.625 49.9884 43.2969 50.679C42.4219 51.479 40.9813 51.7071 40.1782 51.1978ZM38.4188 40.9571C38.0067 40.8248 37.6319 40.5967 37.325 40.2915C36.8063 39.8071 36.9719 39.0821 37.6719 38.9915C38.275 38.9134 38.9438 39.0009 39.5157 39.2259C40.2469 39.5009 40.9063 39.9759 41.5782 40.3978C41.75 40.504 41.8594 40.6946 42.0782 40.9415C40.7594 41.1353 39.5813 41.2603 38.4219 40.9571H38.4188ZM84.8188 34.4821C84.3625 31.4978 82.6313 29.4571 79.8688 28.4634C77.804 27.6979 75.5569 27.5705 73.4188 28.0978C71.1532 28.6384 69.1438 29.7946 67.2 31.0634C64.6563 32.7259 62.3188 34.6696 60.0594 36.7071C59.0375 37.629 59.0313 37.6196 57.8532 36.8946C57.7188 36.8134 57.575 36.7509 57.45 36.6696L55.825 35.6134C56.8563 34.8509 57.75 34.1446 58.6875 33.504C59.6157 32.8665 60.5844 32.3071 61.5407 31.7134C61.1032 30.9821 60.4032 30.8571 59.7782 30.6384C57.9375 30.0071 56.1063 29.3509 54.4469 28.2696C54.025 27.9978 53.6875 28.1134 53.3 28.3446C51.5188 29.4071 49.6594 30.304 47.6782 30.8946C47.2407 31.0228 46.8469 31.3321 46.4407 31.5634C46.4625 31.6259 46.4719 31.6853 46.4938 31.7478C48.5938 32.8196 50.7188 33.8415 52.7407 35.3603C51.5657 36.179 50.5375 36.8915 49.5125 37.6103C49.1625 37.8509 48.8907 37.7321 48.6094 37.4634C47.9625 36.8384 47.3 36.2228 46.6282 35.629C43.9969 33.3103 41.2125 31.2134 38.0438 29.7353C36.1263 28.8319 34.0512 28.3107 31.9344 28.2009C29.3438 28.0759 27.0625 28.9728 25.375 31.1821C23.2125 34.004 22.625 37.1446 23.9532 40.4415C25.5157 44.329 28.525 46.2603 32.5657 46.2821C33.825 46.2978 35.0969 46.0446 36.3532 45.8321C37.0188 45.7228 37.6563 45.4415 38.2438 45.2571L35.9625 45.104C34.975 45.029 33.9782 45.0103 32.9938 44.8665C31.525 44.6384 30.025 44.3728 28.8094 43.4103C26.6063 41.6603 25.3875 39.3946 25.4875 36.4415C25.5688 33.9103 27.6125 31.1915 29.925 30.3728C31.8 29.7103 33.6844 29.7259 35.6063 29.9353C36.0313 29.9759 36.4563 30.0915 36.8688 30.2228C39.1875 30.9759 41.2 32.3134 43.0813 33.8665C44.2875 34.8634 45.425 35.9478 46.575 37.0165C47.075 37.479 47.5219 37.9915 47.9938 38.4853C47.8813 38.6103 47.8532 38.6759 47.8032 38.6946C46.5688 39.2103 45.3344 39.7509 44.0782 40.2134C43.8438 40.2978 43.4282 40.154 43.2344 39.9634C41.7188 38.5009 39.9907 37.7384 37.8938 37.9196C37.6199 37.9351 37.3529 38.0113 37.1121 38.1427C36.8713 38.2741 36.6627 38.4575 36.5015 38.6794C36.3403 38.9014 36.2304 39.1564 36.1799 39.426C36.1294 39.6956 36.1395 39.9731 36.2094 40.2384C36.5407 41.5509 37.4063 42.3415 38.5907 42.7728C40.2813 43.4103 41.9875 43.2134 43.7063 42.8665C43.9938 42.8165 44.4188 42.879 44.6188 43.0696C45.8282 44.2446 46.9907 45.4634 48.1625 46.6821C48.4125 46.9415 48.4844 47.1759 48.1063 47.4321C47.2298 48.0043 46.3721 48.6046 45.5344 49.2321C44.9813 49.6571 44.5 49.6759 43.8782 49.3634C42.875 48.8478 41.8063 48.5509 40.6594 48.6446C39.1907 48.7696 38.4438 50.2884 39.2532 51.5696C39.8032 52.4384 40.625 52.8071 41.5875 52.9071C42.8188 53.0321 43.9344 52.6634 44.9813 52.029C45.3969 51.7728 45.7094 51.8321 46.0563 52.1321C46.6657 52.6446 47.2938 53.1478 47.8938 53.6821C48.8875 54.5603 48.9094 54.6009 47.9532 55.4415C46.7188 56.5196 45.3875 57.429 43.7344 57.6821C43.3438 57.7446 42.9719 57.8821 42.4813 58.0259C43.0813 58.6821 43.6375 59.0634 44.3688 59.1446C45.2813 59.2353 46.1438 58.9634 46.9094 58.5103C47.9719 57.879 48.9625 57.1321 49.9938 56.4603C50.15 56.3665 50.4782 56.304 50.5625 56.3946C51.4563 57.3446 52.3375 58.3103 53.1813 59.3009C53.2969 59.4415 53.3063 59.7853 53.225 59.9634C52.7375 61.0259 52.1625 62.0415 51.7032 63.1103C50.4125 66.1103 49.5563 69.2134 49.7907 72.554C49.9344 74.6384 50.4782 76.5915 51.8 78.2415C52.8813 79.5853 54.9188 80.2009 56.025 78.6196C56.625 77.7571 56.8782 76.754 56.7907 75.679C56.7813 75.6165 56.7157 75.5571 56.6375 75.4259C56.3407 75.804 56.1032 76.1759 55.8188 76.4978C54.4438 78.0759 52.7407 78.1446 51.8407 75.9353C50.9407 73.7384 50.9407 71.404 51.3719 69.1134C51.6844 67.454 52.2375 65.8321 52.8125 64.2478C53.1625 63.279 53.7688 62.3978 54.25 61.4853H54.5C54.6875 61.8571 54.9063 62.2165 55.0625 62.6009C55.7813 64.4259 56.1625 66.3509 56.3125 68.304C56.4063 69.5853 56.4782 70.8915 56.0125 72.1446C55.8125 72.6821 55.5563 73.1884 54.9875 73.3009C54.4563 73.4009 53.8907 73.3321 53.3438 73.3415C53.1625 73.3478 52.9219 73.354 52.8344 73.4665C52.7438 73.579 52.7594 73.8415 52.8188 74.0071C53.0938 74.7884 53.8094 75.1009 54.5625 74.8009C55.5125 74.4165 56.125 73.6603 56.575 72.7603C57.5563 70.8009 57.6813 68.7165 57.325 66.5821C56.9927 64.6579 56.3656 62.7964 55.4657 61.0634C55.2188 60.5853 55.1938 60.2071 55.5344 59.7696C56.2625 58.8165 56.9438 57.8259 57.6782 56.8915C58.3438 56.0446 58.3719 56.0603 59.2032 56.7134C59.3188 56.8196 59.4438 56.9071 59.5563 57.004C60.8063 57.929 62.0563 58.8228 63.5875 59.1915C64.8719 59.4946 66.1157 58.954 66.6188 57.8634C66.2563 57.5384 65.8657 57.4353 65.3938 57.6165C65.2534 57.6698 65.1029 57.6911 64.9532 57.679C63.1167 57.4798 61.3695 56.7828 59.9 55.6634C59.2188 55.1634 59.2219 55.1415 59.8782 54.554C60.1625 54.304 60.3844 54.0071 60.6625 53.7759C61.6063 52.9696 62.55 52.1665 63.5219 51.4009C63.6969 51.2571 64.0219 51.2196 64.2407 51.2759C65.3469 51.5353 66.4469 51.9071 67.5625 52.1103C68.3188 52.2415 69.1313 52.1696 69.6594 51.429C70.5657 50.1821 69.6407 48.1603 68.1063 47.9353C66.7537 47.7327 65.3718 47.9716 64.1657 48.6165C63.4719 48.9728 62.9313 48.9915 62.3063 48.5259C61.6438 48.0353 60.9188 47.6196 60.2125 47.1634C60.3219 46.9915 60.3563 46.9134 60.4 46.8603C61.9625 45.2728 63.525 43.679 65.1032 42.1103C65.2282 41.9759 65.5094 41.9415 65.7094 41.9509C66.975 42.0134 68.225 42.1821 69.4782 42.1603C70.6157 42.1384 71.7594 41.9228 72.7782 41.2884C73.1814 41.0305 73.4983 40.658 73.6882 40.2186C73.8781 39.7793 73.9323 39.2932 73.8438 38.8228C73.3438 36.629 72.2625 36.2196 70.4438 36.6071C68.7438 36.9665 67.3 37.9884 65.8657 38.9509C63.9719 40.2321 64.6594 40.3134 62.3094 39.429C61.8688 39.2603 61.4407 39.0228 60.8875 38.7634L62.9969 36.8446C65.4719 34.6165 68.0563 32.5478 71.1125 31.2728C73.1469 30.4196 75.2001 29.7415 77.5 30.3978C80.7313 31.3165 83.3375 33.7103 83.0188 37.5384C82.9329 38.6663 82.6081 39.7631 82.0661 40.7561C81.5242 41.749 80.7773 42.6154 79.875 43.2978C77.7282 44.9509 75.1813 45.1103 72.6188 44.7978C71.1438 44.6259 69.675 44.2853 68.1969 44.0228C68.1532 44.0853 68.1094 44.1353 68.0719 44.1915C68.1657 44.229 68.2875 44.2571 68.375 44.3134C70.075 45.3509 71.8313 46.1821 73.8188 46.4571C76.4688 46.8165 78.9219 46.2915 80.9938 44.5665C84.0969 41.9915 85.4282 38.5665 84.8188 34.4821Z" fill="#C69431"/>
</g>
<defs>
<filter id="filter0_d" x="0.5" y="0.25708" width="108" height="108" filterUnits="userSpaceOnUse" color-interpolation-filters="sRGB">
<feFlood flood-opacity="0" result="BackgroundImageFix"/>
<feColorMatrix in="SourceAlpha" type="matrix" values="0 0 0 0 0 0 0 0 0 0 0 0 0 0 0 0 0 0 127 0"/>
<feOffset dy="2"/>
<feGaussianBlur stdDeviation="2"/>
<feColorMatrix type="matrix" values="0 0 0 0 0 0 0 0 0 0 0 0 0 0 0 0 0 0 0.1 0"/>
<feBlend mode="normal" in2="BackgroundImageFix" result="effect1_dropShadow"/>
<feBlend mode="normal" in="SourceGraphic" in2="effect1_dropShadow" result="shape"/>
</filter>
</defs>
</svg>
