<svg width="109" height="109" viewBox="0 0 109 109" fill="none" xmlns="http://www.w3.org/2000/svg">
<g filter="url(#filter0_d)">
<path d="M54.5 102.257C82.1142 102.257 104.5 79.8713 104.5 52.2571C104.5 24.6428 82.1142 2.25708 54.5 2.25708C26.8858 2.25708 4.5 24.6428 4.5 52.2571C4.5 79.8713 26.8858 102.257 54.5 102.257Z" fill="black"/>
</g>
<path d="M54.5 102.257C82.1142 102.257 104.5 79.8713 104.5 52.2571C104.5 24.6428 82.1142 2.25708 54.5 2.25708C26.8858 2.25708 4.5 24.6428 4.5 52.2571C4.5 79.8713 26.8858 102.257 54.5 102.257Z" fill="white"/>
<mask id="mask0" mask-type="alpha" maskUnits="userSpaceOnUse" x="29" y="27" width="51" height="56">
<path d="M29.5 27.7789H79.2063V82.5383H29.5V27.7789Z" fill="white"/>
</mask>
<g mask="url(#mask0)">
<path fill-rule="evenodd" clip-rule="evenodd" d="M61.8501 73.1413C69.6501 67.2882 69.9657 54.8288 63.4376 48.2663L62.0782 49.8351C68.7657 56.6788 68.1907 66.3851 61.8501 73.1413ZM45.1563 48.2476C38.0782 55.6538 39.7126 68.6163 47.1563 73.382C40.5563 66.7632 39.7376 56.8351 46.5626 49.8257L45.1563 48.2476ZM70.8282 54.707C73.0782 53.9038 73.0782 53.9038 77.1376 48.3445C79.2157 50.0101 79.9407 52.907 78.3251 55.2195C76.9251 57.2195 74.9313 58.7507 73.1751 60.4538C72.6313 60.9788 71.9938 61.3882 71.4001 61.8507L71.6938 62.4976L78.2251 59.9101C79.1376 62.607 78.0344 65.5101 75.3032 66.5757C73.5251 67.2695 71.6313 67.6351 69.7876 68.1382C69.3344 68.2663 68.8782 68.3757 68.2376 68.5382C70.0063 69.532 71.8751 69.532 75.4251 68.6695C75.6563 70.8757 73.5782 72.9695 71.0282 73.0382C69.1938 73.0851 67.3563 73.0445 65.1313 73.0445C67.3094 74.457 69.5001 74.2007 71.5469 74.5663C71.3876 76.4726 70.3501 77.6757 68.4938 77.5601C66.8969 77.457 65.3188 76.9038 63.7438 76.5038C63.1813 76.3601 62.6563 76.0788 62.1126 75.8601C62.0476 75.986 61.9809 76.111 61.9126 76.2351C62.8001 76.8101 63.6501 77.4538 64.5813 77.9257C65.5407 78.4195 66.5751 78.7382 67.7251 79.1945C66.1626 81.0382 64.2251 81.8101 62.2376 81.0132C60.4563 80.3038 58.9407 78.8601 56.9626 77.5038L60.2563 82.457C58.1876 82.3132 55.8813 83.4132 54.4126 80.3851C52.8501 83.1413 50.6001 82.5101 48.4063 82.3601C49.4969 80.7663 50.5313 79.257 51.5719 77.7476L51.0969 77.3101C49.4563 79.4757 47.7532 81.5882 44.8188 81.2382C43.3657 81.0663 41.9126 80.7132 41.0969 79.3132L46.8126 76.3757L46.6094 75.8757C44.0032 76.6976 41.4907 78.5476 38.6563 77.1351C37.8813 76.7445 37.3751 75.7288 36.5563 74.7788L43.2813 73.5538C43.2688 73.3507 43.2563 73.1476 43.2376 72.9413C42.8126 72.9163 42.3782 72.857 41.9469 72.8663C40.4219 72.907 38.8876 73.0788 37.3688 73.007C35.0876 72.9007 33.3063 71.082 33.0782 68.7476C34.2969 68.9351 35.4938 69.2257 36.7001 69.2726C37.8876 69.3195 39.0813 69.1132 40.2751 69.0163L40.2688 68.4882C38.7938 68.1445 37.2969 67.8882 35.8563 67.4288C34.5563 67.0195 33.2501 66.5257 32.0876 65.8163C30.5938 64.9038 29.4313 61.8663 30.4376 59.9101L36.9813 62.4882L37.2719 61.8632C36.3313 61.1257 35.3532 60.432 34.4501 59.6382C33.2313 58.5757 31.9344 57.5601 30.9126 56.3007C28.8001 53.6757 29.0969 50.4757 31.5438 48.2788C33.1376 50.7726 34.6219 53.4132 37.7251 54.8226C36.5751 52.7726 35.5376 51.0976 34.6751 49.3351C33.4563 46.8413 32.6032 44.2101 32.7219 41.3413C32.8407 38.4538 34.3313 36.5257 37.1907 35.6851C37.2313 39.8226 37.6657 43.8413 39.5563 47.4882L40.0626 47.4851C40.0626 46.8007 40.1876 46.082 40.0438 45.4382C39.1626 41.6413 38.4688 37.8257 39.2876 33.9257C39.9094 30.9476 41.4938 28.8257 44.3938 27.9695C45.8001 27.557 46.9438 27.9726 47.8438 28.6632C46.9751 31.357 45.8813 33.8507 45.3969 36.4726C44.6157 40.7163 45.2501 44.7851 47.8657 48.3163C49.1313 50.032 48.7376 53.3601 47.1563 54.7757C43.8907 57.6976 42.9751 62.2195 44.6938 66.9945C46.3626 71.6382 50.1688 74.3882 54.6751 74.2132C59.1344 74.0351 62.8157 71.0632 64.1563 66.4695C65.6501 61.3601 64.4782 56.6382 60.6876 54.1257C59.9063 53.607 59.6251 49.9445 60.3563 48.9382C64.9751 42.5382 64.2751 36.0351 60.8001 29.4445C60.7219 29.3007 60.6751 29.132 60.6251 28.982C62.2782 27.4726 64.0157 27.3726 66.0188 28.7257C68.8001 30.6007 69.8063 33.5476 69.6907 36.7976C69.5876 39.6632 68.9501 42.5101 68.5688 45.3663C68.4751 46.0445 68.4657 46.7382 68.7063 47.4757C71.0344 43.9257 71.3501 39.8507 71.5188 35.7382C74.7501 36.482 76.5032 39.5695 75.8751 43.3507C75.2626 47.0132 73.8001 50.2882 71.7751 53.2945C71.5251 53.657 71.2844 54.0257 70.8282 54.707Z" fill="#E82226"/>
</g>
<defs>
<filter id="filter0_d" x="0.5" y="0.25708" width="108" height="108" filterUnits="userSpaceOnUse" color-interpolation-filters="sRGB">
<feFlood flood-opacity="0" result="BackgroundImageFix"/>
<feColorMatrix in="SourceAlpha" type="matrix" values="0 0 0 0 0 0 0 0 0 0 0 0 0 0 0 0 0 0 127 0"/>
<feOffset dy="2"/>
<feGaussianBlur stdDeviation="2"/>
<feColorMatrix type="matrix" values="0 0 0 0 0 0 0 0 0 0 0 0 0 0 0 0 0 0 0.1 0"/>
<feBlend mode="normal" in2="BackgroundImageFix" result="effect1_dropShadow"/>
<feBlend mode="normal" in="SourceGraphic" in2="effect1_dropShadow" result="shape"/>
</filter>
</defs>
</svg>
